<svg xmlns="http://www.w3.org/2000/svg" width="85mm" height="55mm" viewBox="0 0 85 55" role="img" aria-label="IndLokal - your Indian community, locally">
  <title>IndLokal - Personal visiting card (85x55)</title>
  <rect width="85" height="55" fill="#FAFAF9"/>
  <rect x="0.5" y="0.5" width="84" height="54" fill="none" stroke="#6366F1" stroke-width="0.6" opacity="0.14"/>

  <g transform="translate(6,8.2)">
    <rect width="6.2" height="6.2" rx="1.35625" fill="#4F46E5"/>
    <g fill="none" stroke-width="0.484375" stroke-linecap="round" stroke-linejoin="round">
      <polyline points="0.96875,3.6328125 2.421875,3.6328125 3.1,1.646875" stroke="#FAFAF9"/>
      <polyline points="3.1,1.646875 3.778125,3.6328125 5.23125,3.6328125" stroke="#F59E0B"/>
    </g>
  </g>
  <text x="14.399999999999999" y="14.4" text-anchor="start" font-family="Inter, 'Helvetica Neue', Arial, sans-serif" font-weight="700" font-size="7.2" letter-spacing="-0.16" fill="#312E81" opacity="1.0">IndLokal</text>
  <text x="6" y="25.6" text-anchor="start" font-family="Inter, 'Helvetica Neue', Arial, sans-serif" font-weight="700" font-size="4.7" letter-spacing="-0.03" fill="#312E81" opacity="1.0">Jayaprakash Jain</text>
  <text x="6" y="29.9" text-anchor="start" font-family="Inter, 'Helvetica Neue', Arial, sans-serif" font-weight="600" font-size="3.2" letter-spacing="0.0" fill="#64748B" opacity="1.0">Founder</text>
  <text x="6" y="40.0" text-anchor="start" font-family="Inter, 'Helvetica Neue', Arial, sans-serif" font-weight="600" font-size="3.1" letter-spacing="0.0" fill="#312E81" opacity="1.0">founder@indlokal.com</text>
  <text x="6" y="44.4" text-anchor="start" font-family="Inter, 'Helvetica Neue', Arial, sans-serif" font-weight="600" font-size="3.1" letter-spacing="0.0" fill="#64748B" opacity="1.0">+49 1516 3256868</text>
  <rect x="63.1" y="24.1" width="16.8" height="16.8" rx="1.2" fill="#FFFFFF"/>

  <g>
    <rect x="64.0" y="25.0" width="15.0" height="15.0" fill="#FFFFFF"/>
      <rect x="65.818" y="26.818" width="0.455" height="0.455" fill="#312E81"/>
      <rect x="66.273" y="26.818" width="0.455" height="0.455" fill="#312E81"/>
      <rect x="66.727" y="26.818" width="0.455" height="0.455" fill="#312E81"/>
      <rect x="67.182" y="26.818" width="0.455" height="0.455" fill="#312E81"/>
      <rect x="67.636" y="26.818" width="0.455" height="0.455" fill="#312E81"/>
      <rect x="68.091" y="26.818" width="0.455" height="0.455" fill="#312E81"/>
      <rect x="68.545" y="26.818" width="0.455" height="0.455" fill="#312E81"/>
      <rect x="69.455" y="26.818" width="0.455" height="0.455" fill="#312E81"/>
      <rect x="69.909" y="26.818" width="0.455" height="0.455" fill="#312E81"/>
      <rect x="70.818" y="26.818" width="0.455" height="0.455" fill="#312E81"/>
      <rect x="71.273" y="26.818" width="0.455" height="0.455" fill="#312E81"/>
      <rect x="72.182" y="26.818" width="0.455" height="0.455" fill="#312E81"/>
      <rect x="72.636" y="26.818" width="0.455" height="0.455" fill="#312E81"/>
      <rect x="74.000" y="26.818" width="0.455" height="0.455" fill="#312E81"/>
      <rect x="74.455" y="26.818" width="0.455" height="0.455" fill="#312E81"/>
      <rect x="74.909" y="26.818" width="0.455" height="0.455" fill="#312E81"/>
      <rect x="75.364" y="26.818" width="0.455" height="0.455" fill="#312E81"/>
      <rect x="75.818" y="26.818" width="0.455" height="0.455" fill="#312E81"/>
      <rect x="76.273" y="26.818" width="0.455" height="0.455" fill="#312E81"/>
      <rect x="76.727" y="26.818" width="0.455" height="0.455" fill="#312E81"/>
      <rect x="65.818" y="27.273" width="0.455" height="0.455" fill="#312E81"/>
      <rect x="68.545" y="27.273" width="0.455" height="0.455" fill="#312E81"/>
      <rect x="69.455" y="27.273" width="0.455" height="0.455" fill="#312E81"/>
      <rect x="69.909" y="27.273" width="0.455" height="0.455" fill="#312E81"/>
      <rect x="71.273" y="27.273" width="0.455" height="0.455" fill="#312E81"/>
      <rect x="72.636" y="27.273" width="0.455" height="0.455" fill="#312E81"/>
      <rect x="74.000" y="27.273" width="0.455" height="0.455" fill="#312E81"/>
      <rect x="76.727" y="27.273" width="0.455" height="0.455" fill="#312E81"/>
      <rect x="65.818" y="27.727" width="0.455" height="0.455" fill="#312E81"/>
      <rect x="66.727" y="27.727" width="0.455" height="0.455" fill="#312E81"/>
      <rect x="67.182" y="27.727" width="0.455" height="0.455" fill="#312E81"/>
      <rect x="67.636" y="27.727" width="0.455" height="0.455" fill="#312E81"/>
      <rect x="68.545" y="27.727" width="0.455" height="0.455" fill="#312E81"/>
      <rect x="69.455" y="27.727" width="0.455" height="0.455" fill="#312E81"/>
      <rect x="69.909" y="27.727" width="0.455" height="0.455" fill="#312E81"/>
      <rect x="70.818" y="27.727" width="0.455" height="0.455" fill="#312E81"/>
      <rect x="71.273" y="27.727" width="0.455" height="0.455" fill="#312E81"/>
      <rect x="72.636" y="27.727" width="0.455" height="0.455" fill="#312E81"/>
      <rect x="74.000" y="27.727" width="0.455" height="0.455" fill="#312E81"/>
      <rect x="74.909" y="27.727" width="0.455" height="0.455" fill="#312E81"/>
      <rect x="75.364" y="27.727" width="0.455" height="0.455" fill="#312E81"/>
      <rect x="75.818" y="27.727" width="0.455" height="0.455" fill="#312E81"/>
      <rect x="76.727" y="27.727" width="0.455" height="0.455" fill="#312E81"/>
      <rect x="65.818" y="28.182" width="0.455" height="0.455" fill="#312E81"/>
      <rect x="66.727" y="28.182" width="0.455" height="0.455" fill="#312E81"/>
      <rect x="67.182" y="28.182" width="0.455" height="0.455" fill="#312E81"/>
      <rect x="67.636" y="28.182" width="0.455" height="0.455" fill="#312E81"/>
      <rect x="68.545" y="28.182" width="0.455" height="0.455" fill="#312E81"/>
      <rect x="69.455" y="28.182" width="0.455" height="0.455" fill="#312E81"/>
      <rect x="70.818" y="28.182" width="0.455" height="0.455" fill="#312E81"/>
      <rect x="72.182" y="28.182" width="0.455" height="0.455" fill="#312E81"/>
      <rect x="74.000" y="28.182" width="0.455" height="0.455" fill="#312E81"/>
      <rect x="74.909" y="28.182" width="0.455" height="0.455" fill="#312E81"/>
      <rect x="75.364" y="28.182" width="0.455" height="0.455" fill="#312E81"/>
      <rect x="75.818" y="28.182" width="0.455" height="0.455" fill="#312E81"/>
      <rect x="76.727" y="28.182" width="0.455" height="0.455" fill="#312E81"/>
      <rect x="65.818" y="28.636" width="0.455" height="0.455" fill="#312E81"/>
      <rect x="66.727" y="28.636" width="0.455" height="0.455" fill="#312E81"/>
      <rect x="67.182" y="28.636" width="0.455" height="0.455" fill="#312E81"/>
      <rect x="67.636" y="28.636" width="0.455" height="0.455" fill="#312E81"/>
      <rect x="68.545" y="28.636" width="0.455" height="0.455" fill="#312E81"/>
      <rect x="69.455" y="28.636" width="0.455" height="0.455" fill="#312E81"/>
      <rect x="69.909" y="28.636" width="0.455" height="0.455" fill="#312E81"/>
      <rect x="70.364" y="28.636" width="0.455" height="0.455" fill="#312E81"/>
      <rect x="71.273" y="28.636" width="0.455" height="0.455" fill="#312E81"/>
      <rect x="71.727" y="28.636" width="0.455" height="0.455" fill="#312E81"/>
      <rect x="72.182" y="28.636" width="0.455" height="0.455" fill="#312E81"/>
      <rect x="72.636" y="28.636" width="0.455" height="0.455" fill="#312E81"/>
      <rect x="73.091" y="28.636" width="0.455" height="0.455" fill="#312E81"/>
      <rect x="74.000" y="28.636" width="0.455" height="0.455" fill="#312E81"/>
      <rect x="74.909" y="28.636" width="0.455" height="0.455" fill="#312E81"/>
      <rect x="75.364" y="28.636" width="0.455" height="0.455" fill="#312E81"/>
      <rect x="75.818" y="28.636" width="0.455" height="0.455" fill="#312E81"/>
      <rect x="76.727" y="28.636" width="0.455" height="0.455" fill="#312E81"/>
      <rect x="65.818" y="29.091" width="0.455" height="0.455" fill="#312E81"/>
      <rect x="68.545" y="29.091" width="0.455" height="0.455" fill="#312E81"/>
      <rect x="69.909" y="29.091" width="0.455" height="0.455" fill="#312E81"/>
      <rect x="70.818" y="29.091" width="0.455" height="0.455" fill="#312E81"/>
      <rect x="71.273" y="29.091" width="0.455" height="0.455" fill="#312E81"/>
      <rect x="72.182" y="29.091" width="0.455" height="0.455" fill="#312E81"/>
      <rect x="72.636" y="29.091" width="0.455" height="0.455" fill="#312E81"/>
      <rect x="74.000" y="29.091" width="0.455" height="0.455" fill="#312E81"/>
      <rect x="76.727" y="29.091" width="0.455" height="0.455" fill="#312E81"/>
      <rect x="65.818" y="29.545" width="0.455" height="0.455" fill="#312E81"/>
      <rect x="66.273" y="29.545" width="0.455" height="0.455" fill="#312E81"/>
      <rect x="66.727" y="29.545" width="0.455" height="0.455" fill="#312E81"/>
      <rect x="67.182" y="29.545" width="0.455" height="0.455" fill="#312E81"/>
      <rect x="67.636" y="29.545" width="0.455" height="0.455" fill="#312E81"/>
      <rect x="68.091" y="29.545" width="0.455" height="0.455" fill="#312E81"/>
      <rect x="68.545" y="29.545" width="0.455" height="0.455" fill="#312E81"/>
      <rect x="69.455" y="29.545" width="0.455" height="0.455" fill="#312E81"/>
      <rect x="70.364" y="29.545" width="0.455" height="0.455" fill="#312E81"/>
      <rect x="71.273" y="29.545" width="0.455" height="0.455" fill="#312E81"/>
      <rect x="72.182" y="29.545" width="0.455" height="0.455" fill="#312E81"/>
      <rect x="73.091" y="29.545" width="0.455" height="0.455" fill="#312E81"/>
      <rect x="74.000" y="29.545" width="0.455" height="0.455" fill="#312E81"/>
      <rect x="74.455" y="29.545" width="0.455" height="0.455" fill="#312E81"/>
      <rect x="74.909" y="29.545" width="0.455" height="0.455" fill="#312E81"/>
      <rect x="75.364" y="29.545" width="0.455" height="0.455" fill="#312E81"/>
      <rect x="75.818" y="29.545" width="0.455" height="0.455" fill="#312E81"/>
      <rect x="76.273" y="29.545" width="0.455" height="0.455" fill="#312E81"/>
      <rect x="76.727" y="29.545" width="0.455" height="0.455" fill="#312E81"/>
      <rect x="69.455" y="30.000" width="0.455" height="0.455" fill="#312E81"/>
      <rect x="70.818" y="30.000" width="0.455" height="0.455" fill="#312E81"/>
      <rect x="71.273" y="30.000" width="0.455" height="0.455" fill="#312E81"/>
      <rect x="71.727" y="30.000" width="0.455" height="0.455" fill="#312E81"/>
      <rect x="72.182" y="30.000" width="0.455" height="0.455" fill="#312E81"/>
      <rect x="72.636" y="30.000" width="0.455" height="0.455" fill="#312E81"/>
      <rect x="73.091" y="30.000" width="0.455" height="0.455" fill="#312E81"/>
      <rect x="66.273" y="30.455" width="0.455" height="0.455" fill="#312E81"/>
      <rect x="66.727" y="30.455" width="0.455" height="0.455" fill="#312E81"/>
      <rect x="67.636" y="30.455" width="0.455" height="0.455" fill="#312E81"/>
      <rect x="68.545" y="30.455" width="0.455" height="0.455" fill="#312E81"/>
      <rect x="69.000" y="30.455" width="0.455" height="0.455" fill="#312E81"/>
      <rect x="69.909" y="30.455" width="0.455" height="0.455" fill="#312E81"/>
      <rect x="71.273" y="30.455" width="0.455" height="0.455" fill="#312E81"/>
      <rect x="71.727" y="30.455" width="0.455" height="0.455" fill="#312E81"/>
      <rect x="72.636" y="30.455" width="0.455" height="0.455" fill="#312E81"/>
      <rect x="73.091" y="30.455" width="0.455" height="0.455" fill="#312E81"/>
      <rect x="74.000" y="30.455" width="0.455" height="0.455" fill="#312E81"/>
      <rect x="74.909" y="30.455" width="0.455" height="0.455" fill="#312E81"/>
      <rect x="75.364" y="30.455" width="0.455" height="0.455" fill="#312E81"/>
      <rect x="75.818" y="30.455" width="0.455" height="0.455" fill="#312E81"/>
      <rect x="76.273" y="30.455" width="0.455" height="0.455" fill="#312E81"/>
      <rect x="76.727" y="30.455" width="0.455" height="0.455" fill="#312E81"/>
      <rect x="65.818" y="30.909" width="0.455" height="0.455" fill="#312E81"/>
      <rect x="67.182" y="30.909" width="0.455" height="0.455" fill="#312E81"/>
      <rect x="67.636" y="30.909" width="0.455" height="0.455" fill="#312E81"/>
      <rect x="68.091" y="30.909" width="0.455" height="0.455" fill="#312E81"/>
      <rect x="69.000" y="30.909" width="0.455" height="0.455" fill="#312E81"/>
      <rect x="69.909" y="30.909" width="0.455" height="0.455" fill="#312E81"/>
      <rect x="70.818" y="30.909" width="0.455" height="0.455" fill="#312E81"/>
      <rect x="71.273" y="30.909" width="0.455" height="0.455" fill="#312E81"/>
      <rect x="73.091" y="30.909" width="0.455" height="0.455" fill="#312E81"/>
      <rect x="73.545" y="30.909" width="0.455" height="0.455" fill="#312E81"/>
      <rect x="74.000" y="30.909" width="0.455" height="0.455" fill="#312E81"/>
      <rect x="76.727" y="30.909" width="0.455" height="0.455" fill="#312E81"/>
      <rect x="65.818" y="31.364" width="0.455" height="0.455" fill="#312E81"/>
      <rect x="66.273" y="31.364" width="0.455" height="0.455" fill="#312E81"/>
      <rect x="66.727" y="31.364" width="0.455" height="0.455" fill="#312E81"/>
      <rect x="67.636" y="31.364" width="0.455" height="0.455" fill="#312E81"/>
      <rect x="68.091" y="31.364" width="0.455" height="0.455" fill="#312E81"/>
      <rect x="68.545" y="31.364" width="0.455" height="0.455" fill="#312E81"/>
      <rect x="69.000" y="31.364" width="0.455" height="0.455" fill="#312E81"/>
      <rect x="69.909" y="31.364" width="0.455" height="0.455" fill="#312E81"/>
      <rect x="70.818" y="31.364" width="0.455" height="0.455" fill="#312E81"/>
      <rect x="73.545" y="31.364" width="0.455" height="0.455" fill="#312E81"/>
      <rect x="74.455" y="31.364" width="0.455" height="0.455" fill="#312E81"/>
      <rect x="74.909" y="31.364" width="0.455" height="0.455" fill="#312E81"/>
      <rect x="75.818" y="31.364" width="0.455" height="0.455" fill="#312E81"/>
      <rect x="76.273" y="31.364" width="0.455" height="0.455" fill="#312E81"/>
      <rect x="76.727" y="31.364" width="0.455" height="0.455" fill="#312E81"/>
      <rect x="66.273" y="31.818" width="0.455" height="0.455" fill="#312E81"/>
      <rect x="69.000" y="31.818" width="0.455" height="0.455" fill="#312E81"/>
      <rect x="69.455" y="31.818" width="0.455" height="0.455" fill="#312E81"/>
      <rect x="70.364" y="31.818" width="0.455" height="0.455" fill="#312E81"/>
      <rect x="71.273" y="31.818" width="0.455" height="0.455" fill="#312E81"/>
      <rect x="71.727" y="31.818" width="0.455" height="0.455" fill="#312E81"/>
      <rect x="72.182" y="31.818" width="0.455" height="0.455" fill="#312E81"/>
      <rect x="72.636" y="31.818" width="0.455" height="0.455" fill="#312E81"/>
      <rect x="73.545" y="31.818" width="0.455" height="0.455" fill="#312E81"/>
      <rect x="74.000" y="31.818" width="0.455" height="0.455" fill="#312E81"/>
      <rect x="74.455" y="31.818" width="0.455" height="0.455" fill="#312E81"/>
      <rect x="74.909" y="31.818" width="0.455" height="0.455" fill="#312E81"/>
      <rect x="76.273" y="31.818" width="0.455" height="0.455" fill="#312E81"/>
      <rect x="66.727" y="32.273" width="0.455" height="0.455" fill="#312E81"/>
      <rect x="67.182" y="32.273" width="0.455" height="0.455" fill="#312E81"/>
      <rect x="67.636" y="32.273" width="0.455" height="0.455" fill="#312E81"/>
      <rect x="68.545" y="32.273" width="0.455" height="0.455" fill="#312E81"/>
      <rect x="69.000" y="32.273" width="0.455" height="0.455" fill="#312E81"/>
      <rect x="71.273" y="32.273" width="0.455" height="0.455" fill="#312E81"/>
      <rect x="72.182" y="32.273" width="0.455" height="0.455" fill="#312E81"/>
      <rect x="73.091" y="32.273" width="0.455" height="0.455" fill="#312E81"/>
      <rect x="73.545" y="32.273" width="0.455" height="0.455" fill="#312E81"/>
      <rect x="74.000" y="32.273" width="0.455" height="0.455" fill="#312E81"/>
      <rect x="75.364" y="32.273" width="0.455" height="0.455" fill="#312E81"/>
      <rect x="76.273" y="32.273" width="0.455" height="0.455" fill="#312E81"/>
      <rect x="76.727" y="32.273" width="0.455" height="0.455" fill="#312E81"/>
      <rect x="66.273" y="32.727" width="0.455" height="0.455" fill="#312E81"/>
      <rect x="66.727" y="32.727" width="0.455" height="0.455" fill="#312E81"/>
      <rect x="67.182" y="32.727" width="0.455" height="0.455" fill="#312E81"/>
      <rect x="67.636" y="32.727" width="0.455" height="0.455" fill="#312E81"/>
      <rect x="68.091" y="32.727" width="0.455" height="0.455" fill="#312E81"/>
      <rect x="69.000" y="32.727" width="0.455" height="0.455" fill="#312E81"/>
      <rect x="69.909" y="32.727" width="0.455" height="0.455" fill="#312E81"/>
      <rect x="71.273" y="32.727" width="0.455" height="0.455" fill="#312E81"/>
      <rect x="71.727" y="32.727" width="0.455" height="0.455" fill="#312E81"/>
      <rect x="73.091" y="32.727" width="0.455" height="0.455" fill="#312E81"/>
      <rect x="73.545" y="32.727" width="0.455" height="0.455" fill="#312E81"/>
      <rect x="74.000" y="32.727" width="0.455" height="0.455" fill="#312E81"/>
      <rect x="75.364" y="32.727" width="0.455" height="0.455" fill="#312E81"/>
      <rect x="76.727" y="32.727" width="0.455" height="0.455" fill="#312E81"/>
      <rect x="65.818" y="33.182" width="0.455" height="0.455" fill="#312E81"/>
      <rect x="66.727" y="33.182" width="0.455" height="0.455" fill="#312E81"/>
      <rect x="67.182" y="33.182" width="0.455" height="0.455" fill="#312E81"/>
      <rect x="68.545" y="33.182" width="0.455" height="0.455" fill="#312E81"/>
      <rect x="69.000" y="33.182" width="0.455" height="0.455" fill="#312E81"/>
      <rect x="69.455" y="33.182" width="0.455" height="0.455" fill="#312E81"/>
      <rect x="69.909" y="33.182" width="0.455" height="0.455" fill="#312E81"/>
      <rect x="70.364" y="33.182" width="0.455" height="0.455" fill="#312E81"/>
      <rect x="70.818" y="33.182" width="0.455" height="0.455" fill="#312E81"/>
      <rect x="71.727" y="33.182" width="0.455" height="0.455" fill="#312E81"/>
      <rect x="73.545" y="33.182" width="0.455" height="0.455" fill="#312E81"/>
      <rect x="74.000" y="33.182" width="0.455" height="0.455" fill="#312E81"/>
      <rect x="74.455" y="33.182" width="0.455" height="0.455" fill="#312E81"/>
      <rect x="75.818" y="33.182" width="0.455" height="0.455" fill="#312E81"/>
      <rect x="76.273" y="33.182" width="0.455" height="0.455" fill="#312E81"/>
      <rect x="76.727" y="33.182" width="0.455" height="0.455" fill="#312E81"/>
      <rect x="66.273" y="33.636" width="0.455" height="0.455" fill="#312E81"/>
      <rect x="67.182" y="33.636" width="0.455" height="0.455" fill="#312E81"/>
      <rect x="67.636" y="33.636" width="0.455" height="0.455" fill="#312E81"/>
      <rect x="68.091" y="33.636" width="0.455" height="0.455" fill="#312E81"/>
      <rect x="69.000" y="33.636" width="0.455" height="0.455" fill="#312E81"/>
      <rect x="69.909" y="33.636" width="0.455" height="0.455" fill="#312E81"/>
      <rect x="70.818" y="33.636" width="0.455" height="0.455" fill="#312E81"/>
      <rect x="71.727" y="33.636" width="0.455" height="0.455" fill="#312E81"/>
      <rect x="73.545" y="33.636" width="0.455" height="0.455" fill="#312E81"/>
      <rect x="74.909" y="33.636" width="0.455" height="0.455" fill="#312E81"/>
      <rect x="76.273" y="33.636" width="0.455" height="0.455" fill="#312E81"/>
      <rect x="65.818" y="34.091" width="0.455" height="0.455" fill="#312E81"/>
      <rect x="66.727" y="34.091" width="0.455" height="0.455" fill="#312E81"/>
      <rect x="67.636" y="34.091" width="0.455" height="0.455" fill="#312E81"/>
      <rect x="68.091" y="34.091" width="0.455" height="0.455" fill="#312E81"/>
      <rect x="68.545" y="34.091" width="0.455" height="0.455" fill="#312E81"/>
      <rect x="69.455" y="34.091" width="0.455" height="0.455" fill="#312E81"/>
      <rect x="70.364" y="34.091" width="0.455" height="0.455" fill="#312E81"/>
      <rect x="70.818" y="34.091" width="0.455" height="0.455" fill="#312E81"/>
      <rect x="71.273" y="34.091" width="0.455" height="0.455" fill="#312E81"/>
      <rect x="71.727" y="34.091" width="0.455" height="0.455" fill="#312E81"/>
      <rect x="72.182" y="34.091" width="0.455" height="0.455" fill="#312E81"/>
      <rect x="72.636" y="34.091" width="0.455" height="0.455" fill="#312E81"/>
      <rect x="73.091" y="34.091" width="0.455" height="0.455" fill="#312E81"/>
      <rect x="73.545" y="34.091" width="0.455" height="0.455" fill="#312E81"/>
      <rect x="74.000" y="34.091" width="0.455" height="0.455" fill="#312E81"/>
      <rect x="74.455" y="34.091" width="0.455" height="0.455" fill="#312E81"/>
      <rect x="74.909" y="34.091" width="0.455" height="0.455" fill="#312E81"/>
      <rect x="75.364" y="34.091" width="0.455" height="0.455" fill="#312E81"/>
      <rect x="69.455" y="34.545" width="0.455" height="0.455" fill="#312E81"/>
      <rect x="69.909" y="34.545" width="0.455" height="0.455" fill="#312E81"/>
      <rect x="70.818" y="34.545" width="0.455" height="0.455" fill="#312E81"/>
      <rect x="72.182" y="34.545" width="0.455" height="0.455" fill="#312E81"/>
      <rect x="72.636" y="34.545" width="0.455" height="0.455" fill="#312E81"/>
      <rect x="73.091" y="34.545" width="0.455" height="0.455" fill="#312E81"/>
      <rect x="74.909" y="34.545" width="0.455" height="0.455" fill="#312E81"/>
      <rect x="75.364" y="34.545" width="0.455" height="0.455" fill="#312E81"/>
      <rect x="76.273" y="34.545" width="0.455" height="0.455" fill="#312E81"/>
      <rect x="76.727" y="34.545" width="0.455" height="0.455" fill="#312E81"/>
      <rect x="65.818" y="35.000" width="0.455" height="0.455" fill="#312E81"/>
      <rect x="66.273" y="35.000" width="0.455" height="0.455" fill="#312E81"/>
      <rect x="66.727" y="35.000" width="0.455" height="0.455" fill="#312E81"/>
      <rect x="67.182" y="35.000" width="0.455" height="0.455" fill="#312E81"/>
      <rect x="67.636" y="35.000" width="0.455" height="0.455" fill="#312E81"/>
      <rect x="68.091" y="35.000" width="0.455" height="0.455" fill="#312E81"/>
      <rect x="68.545" y="35.000" width="0.455" height="0.455" fill="#312E81"/>
      <rect x="69.455" y="35.000" width="0.455" height="0.455" fill="#312E81"/>
      <rect x="69.909" y="35.000" width="0.455" height="0.455" fill="#312E81"/>
      <rect x="71.273" y="35.000" width="0.455" height="0.455" fill="#312E81"/>
      <rect x="72.636" y="35.000" width="0.455" height="0.455" fill="#312E81"/>
      <rect x="73.091" y="35.000" width="0.455" height="0.455" fill="#312E81"/>
      <rect x="74.000" y="35.000" width="0.455" height="0.455" fill="#312E81"/>
      <rect x="74.909" y="35.000" width="0.455" height="0.455" fill="#312E81"/>
      <rect x="75.364" y="35.000" width="0.455" height="0.455" fill="#312E81"/>
      <rect x="76.273" y="35.000" width="0.455" height="0.455" fill="#312E81"/>
      <rect x="76.727" y="35.000" width="0.455" height="0.455" fill="#312E81"/>
      <rect x="65.818" y="35.455" width="0.455" height="0.455" fill="#312E81"/>
      <rect x="68.545" y="35.455" width="0.455" height="0.455" fill="#312E81"/>
      <rect x="69.909" y="35.455" width="0.455" height="0.455" fill="#312E81"/>
      <rect x="70.364" y="35.455" width="0.455" height="0.455" fill="#312E81"/>
      <rect x="71.273" y="35.455" width="0.455" height="0.455" fill="#312E81"/>
      <rect x="73.091" y="35.455" width="0.455" height="0.455" fill="#312E81"/>
      <rect x="74.909" y="35.455" width="0.455" height="0.455" fill="#312E81"/>
      <rect x="75.364" y="35.455" width="0.455" height="0.455" fill="#312E81"/>
      <rect x="76.273" y="35.455" width="0.455" height="0.455" fill="#312E81"/>
      <rect x="65.818" y="35.909" width="0.455" height="0.455" fill="#312E81"/>
      <rect x="66.727" y="35.909" width="0.455" height="0.455" fill="#312E81"/>
      <rect x="67.182" y="35.909" width="0.455" height="0.455" fill="#312E81"/>
      <rect x="67.636" y="35.909" width="0.455" height="0.455" fill="#312E81"/>
      <rect x="68.545" y="35.909" width="0.455" height="0.455" fill="#312E81"/>
      <rect x="69.455" y="35.909" width="0.455" height="0.455" fill="#312E81"/>
      <rect x="70.364" y="35.909" width="0.455" height="0.455" fill="#312E81"/>
      <rect x="72.182" y="35.909" width="0.455" height="0.455" fill="#312E81"/>
      <rect x="73.091" y="35.909" width="0.455" height="0.455" fill="#312E81"/>
      <rect x="73.545" y="35.909" width="0.455" height="0.455" fill="#312E81"/>
      <rect x="74.000" y="35.909" width="0.455" height="0.455" fill="#312E81"/>
      <rect x="74.455" y="35.909" width="0.455" height="0.455" fill="#312E81"/>
      <rect x="74.909" y="35.909" width="0.455" height="0.455" fill="#312E81"/>
      <rect x="75.364" y="35.909" width="0.455" height="0.455" fill="#312E81"/>
      <rect x="76.273" y="35.909" width="0.455" height="0.455" fill="#312E81"/>
      <rect x="76.727" y="35.909" width="0.455" height="0.455" fill="#312E81"/>
      <rect x="65.818" y="36.364" width="0.455" height="0.455" fill="#312E81"/>
      <rect x="66.727" y="36.364" width="0.455" height="0.455" fill="#312E81"/>
      <rect x="67.182" y="36.364" width="0.455" height="0.455" fill="#312E81"/>
      <rect x="67.636" y="36.364" width="0.455" height="0.455" fill="#312E81"/>
      <rect x="68.545" y="36.364" width="0.455" height="0.455" fill="#312E81"/>
      <rect x="71.273" y="36.364" width="0.455" height="0.455" fill="#312E81"/>
      <rect x="71.727" y="36.364" width="0.455" height="0.455" fill="#312E81"/>
      <rect x="72.182" y="36.364" width="0.455" height="0.455" fill="#312E81"/>
      <rect x="73.091" y="36.364" width="0.455" height="0.455" fill="#312E81"/>
      <rect x="74.455" y="36.364" width="0.455" height="0.455" fill="#312E81"/>
      <rect x="74.909" y="36.364" width="0.455" height="0.455" fill="#312E81"/>
      <rect x="75.364" y="36.364" width="0.455" height="0.455" fill="#312E81"/>
      <rect x="75.818" y="36.364" width="0.455" height="0.455" fill="#312E81"/>
      <rect x="65.818" y="36.818" width="0.455" height="0.455" fill="#312E81"/>
      <rect x="66.727" y="36.818" width="0.455" height="0.455" fill="#312E81"/>
      <rect x="67.182" y="36.818" width="0.455" height="0.455" fill="#312E81"/>
      <rect x="67.636" y="36.818" width="0.455" height="0.455" fill="#312E81"/>
      <rect x="68.545" y="36.818" width="0.455" height="0.455" fill="#312E81"/>
      <rect x="69.455" y="36.818" width="0.455" height="0.455" fill="#312E81"/>
      <rect x="70.818" y="36.818" width="0.455" height="0.455" fill="#312E81"/>
      <rect x="72.636" y="36.818" width="0.455" height="0.455" fill="#312E81"/>
      <rect x="74.909" y="36.818" width="0.455" height="0.455" fill="#312E81"/>
      <rect x="76.727" y="36.818" width="0.455" height="0.455" fill="#312E81"/>
      <rect x="65.818" y="37.273" width="0.455" height="0.455" fill="#312E81"/>
      <rect x="68.545" y="37.273" width="0.455" height="0.455" fill="#312E81"/>
      <rect x="69.455" y="37.273" width="0.455" height="0.455" fill="#312E81"/>
      <rect x="69.909" y="37.273" width="0.455" height="0.455" fill="#312E81"/>
      <rect x="70.364" y="37.273" width="0.455" height="0.455" fill="#312E81"/>
      <rect x="70.818" y="37.273" width="0.455" height="0.455" fill="#312E81"/>
      <rect x="71.273" y="37.273" width="0.455" height="0.455" fill="#312E81"/>
      <rect x="72.636" y="37.273" width="0.455" height="0.455" fill="#312E81"/>
      <rect x="73.091" y="37.273" width="0.455" height="0.455" fill="#312E81"/>
      <rect x="74.000" y="37.273" width="0.455" height="0.455" fill="#312E81"/>
      <rect x="74.909" y="37.273" width="0.455" height="0.455" fill="#312E81"/>
      <rect x="75.364" y="37.273" width="0.455" height="0.455" fill="#312E81"/>
      <rect x="76.273" y="37.273" width="0.455" height="0.455" fill="#312E81"/>
      <rect x="65.818" y="37.727" width="0.455" height="0.455" fill="#312E81"/>
      <rect x="66.273" y="37.727" width="0.455" height="0.455" fill="#312E81"/>
      <rect x="66.727" y="37.727" width="0.455" height="0.455" fill="#312E81"/>
      <rect x="67.182" y="37.727" width="0.455" height="0.455" fill="#312E81"/>
      <rect x="67.636" y="37.727" width="0.455" height="0.455" fill="#312E81"/>
      <rect x="68.091" y="37.727" width="0.455" height="0.455" fill="#312E81"/>
      <rect x="68.545" y="37.727" width="0.455" height="0.455" fill="#312E81"/>
      <rect x="72.636" y="37.727" width="0.455" height="0.455" fill="#312E81"/>
      <rect x="73.091" y="37.727" width="0.455" height="0.455" fill="#312E81"/>
      <rect x="74.000" y="37.727" width="0.455" height="0.455" fill="#312E81"/>
      <rect x="74.455" y="37.727" width="0.455" height="0.455" fill="#312E81"/>
      <rect x="76.273" y="37.727" width="0.455" height="0.455" fill="#312E81"/>
      <rect x="76.727" y="37.727" width="0.455" height="0.455" fill="#312E81"/>
  </g>
</svg>
