<svg xmlns="http://www.w3.org/2000/svg" width="105mm" height="148mm" viewBox="0 0 105 148" role="img" aria-label="IndLokal - your Indian community, locally">
  <title>IndLokal - Event table tent</title>
  <defs>
    <linearGradient id="a6bg" x1="0" y1="0" x2="0.35" y2="1">
      <stop offset="0%" stop-color="#312E81"/>
      <stop offset="100%" stop-color="#4F46E5"/>
    </linearGradient>
  </defs>
  <rect width="105" height="148" fill="url(#a6bg)"/>
  <polyline points="60.0,21.2 69.6,21.2 73.92,14.0 78.24,28.4 82.56,21.2 93.6,21.2" fill="none" stroke="#F59E0B" stroke-width="0.8" stroke-linecap="round" stroke-linejoin="round" opacity="0.16"/>

  <g transform="translate(40.5,12)">
    <rect width="24" height="24" rx="5.25" fill="#FAFAF9"/>
    <g fill="none" stroke-width="1.875" stroke-linecap="round" stroke-linejoin="round">
      <polyline points="3.75,14.0625 9.375,14.0625 12.0,6.375" stroke="#312E81"/>
      <polyline points="12.0,6.375 14.625,14.0625 20.25,14.0625" stroke="#F59E0B"/>
    </g>
  </g>
  <text x="52.5" y="49" text-anchor="middle" font-family="Inter, 'Helvetica Neue', Arial, sans-serif" font-weight="700" font-size="15" letter-spacing="-0.6" fill="#FAFAF9" opacity="1.0">IndLokal</text>
  <text x="52.5" y="60" text-anchor="middle" font-family="Inter, 'Helvetica Neue', Arial, sans-serif" font-weight="600" font-size="4.5" letter-spacing="0.4" fill="#FCD34D" opacity="1.0" text-transform="uppercase">INDIAN LIFE IN GERMANY</text>
  <text x="52.5" y="73" text-anchor="middle" font-family="Inter, 'Helvetica Neue', Arial, sans-serif" font-weight="500" font-size="8" letter-spacing="-0.3" fill="#FAFAF9" opacity="1.0">Your Indian community,</text>
  <text x="52.5" y="83" text-anchor="middle" font-family="Inter, 'Helvetica Neue', Arial, sans-serif" font-weight="700" font-size="12" letter-spacing="-0.3" fill="#FCD34D" opacity="1.0">locally.</text>
  <rect x="34.5" y="86" width="36" height="36" rx="3" fill="#FAFAF9"/>

  <g>
    <rect x="37.5" y="89" width="30" height="30" fill="#FFFFFF"/>
      <rect x="41.136" y="92.636" width="0.909" height="0.909" fill="#312E81"/>
      <rect x="42.045" y="92.636" width="0.909" height="0.909" fill="#312E81"/>
      <rect x="42.955" y="92.636" width="0.909" height="0.909" fill="#312E81"/>
      <rect x="43.864" y="92.636" width="0.909" height="0.909" fill="#312E81"/>
      <rect x="44.773" y="92.636" width="0.909" height="0.909" fill="#312E81"/>
      <rect x="45.682" y="92.636" width="0.909" height="0.909" fill="#312E81"/>
      <rect x="46.591" y="92.636" width="0.909" height="0.909" fill="#312E81"/>
      <rect x="48.409" y="92.636" width="0.909" height="0.909" fill="#312E81"/>
      <rect x="49.318" y="92.636" width="0.909" height="0.909" fill="#312E81"/>
      <rect x="51.136" y="92.636" width="0.909" height="0.909" fill="#312E81"/>
      <rect x="52.045" y="92.636" width="0.909" height="0.909" fill="#312E81"/>
      <rect x="53.864" y="92.636" width="0.909" height="0.909" fill="#312E81"/>
      <rect x="54.773" y="92.636" width="0.909" height="0.909" fill="#312E81"/>
      <rect x="57.500" y="92.636" width="0.909" height="0.909" fill="#312E81"/>
      <rect x="58.409" y="92.636" width="0.909" height="0.909" fill="#312E81"/>
      <rect x="59.318" y="92.636" width="0.909" height="0.909" fill="#312E81"/>
      <rect x="60.227" y="92.636" width="0.909" height="0.909" fill="#312E81"/>
      <rect x="61.136" y="92.636" width="0.909" height="0.909" fill="#312E81"/>
      <rect x="62.045" y="92.636" width="0.909" height="0.909" fill="#312E81"/>
      <rect x="62.955" y="92.636" width="0.909" height="0.909" fill="#312E81"/>
      <rect x="41.136" y="93.545" width="0.909" height="0.909" fill="#312E81"/>
      <rect x="46.591" y="93.545" width="0.909" height="0.909" fill="#312E81"/>
      <rect x="48.409" y="93.545" width="0.909" height="0.909" fill="#312E81"/>
      <rect x="49.318" y="93.545" width="0.909" height="0.909" fill="#312E81"/>
      <rect x="52.045" y="93.545" width="0.909" height="0.909" fill="#312E81"/>
      <rect x="54.773" y="93.545" width="0.909" height="0.909" fill="#312E81"/>
      <rect x="57.500" y="93.545" width="0.909" height="0.909" fill="#312E81"/>
      <rect x="62.955" y="93.545" width="0.909" height="0.909" fill="#312E81"/>
      <rect x="41.136" y="94.455" width="0.909" height="0.909" fill="#312E81"/>
      <rect x="42.955" y="94.455" width="0.909" height="0.909" fill="#312E81"/>
      <rect x="43.864" y="94.455" width="0.909" height="0.909" fill="#312E81"/>
      <rect x="44.773" y="94.455" width="0.909" height="0.909" fill="#312E81"/>
      <rect x="46.591" y="94.455" width="0.909" height="0.909" fill="#312E81"/>
      <rect x="48.409" y="94.455" width="0.909" height="0.909" fill="#312E81"/>
      <rect x="49.318" y="94.455" width="0.909" height="0.909" fill="#312E81"/>
      <rect x="51.136" y="94.455" width="0.909" height="0.909" fill="#312E81"/>
      <rect x="52.045" y="94.455" width="0.909" height="0.909" fill="#312E81"/>
      <rect x="54.773" y="94.455" width="0.909" height="0.909" fill="#312E81"/>
      <rect x="57.500" y="94.455" width="0.909" height="0.909" fill="#312E81"/>
      <rect x="59.318" y="94.455" width="0.909" height="0.909" fill="#312E81"/>
      <rect x="60.227" y="94.455" width="0.909" height="0.909" fill="#312E81"/>
      <rect x="61.136" y="94.455" width="0.909" height="0.909" fill="#312E81"/>
      <rect x="62.955" y="94.455" width="0.909" height="0.909" fill="#312E81"/>
      <rect x="41.136" y="95.364" width="0.909" height="0.909" fill="#312E81"/>
      <rect x="42.955" y="95.364" width="0.909" height="0.909" fill="#312E81"/>
      <rect x="43.864" y="95.364" width="0.909" height="0.909" fill="#312E81"/>
      <rect x="44.773" y="95.364" width="0.909" height="0.909" fill="#312E81"/>
      <rect x="46.591" y="95.364" width="0.909" height="0.909" fill="#312E81"/>
      <rect x="48.409" y="95.364" width="0.909" height="0.909" fill="#312E81"/>
      <rect x="51.136" y="95.364" width="0.909" height="0.909" fill="#312E81"/>
      <rect x="53.864" y="95.364" width="0.909" height="0.909" fill="#312E81"/>
      <rect x="57.500" y="95.364" width="0.909" height="0.909" fill="#312E81"/>
      <rect x="59.318" y="95.364" width="0.909" height="0.909" fill="#312E81"/>
      <rect x="60.227" y="95.364" width="0.909" height="0.909" fill="#312E81"/>
      <rect x="61.136" y="95.364" width="0.909" height="0.909" fill="#312E81"/>
      <rect x="62.955" y="95.364" width="0.909" height="0.909" fill="#312E81"/>
      <rect x="41.136" y="96.273" width="0.909" height="0.909" fill="#312E81"/>
      <rect x="42.955" y="96.273" width="0.909" height="0.909" fill="#312E81"/>
      <rect x="43.864" y="96.273" width="0.909" height="0.909" fill="#312E81"/>
      <rect x="44.773" y="96.273" width="0.909" height="0.909" fill="#312E81"/>
      <rect x="46.591" y="96.273" width="0.909" height="0.909" fill="#312E81"/>
      <rect x="48.409" y="96.273" width="0.909" height="0.909" fill="#312E81"/>
      <rect x="49.318" y="96.273" width="0.909" height="0.909" fill="#312E81"/>
      <rect x="50.227" y="96.273" width="0.909" height="0.909" fill="#312E81"/>
      <rect x="52.045" y="96.273" width="0.909" height="0.909" fill="#312E81"/>
      <rect x="52.955" y="96.273" width="0.909" height="0.909" fill="#312E81"/>
      <rect x="53.864" y="96.273" width="0.909" height="0.909" fill="#312E81"/>
      <rect x="54.773" y="96.273" width="0.909" height="0.909" fill="#312E81"/>
      <rect x="55.682" y="96.273" width="0.909" height="0.909" fill="#312E81"/>
      <rect x="57.500" y="96.273" width="0.909" height="0.909" fill="#312E81"/>
      <rect x="59.318" y="96.273" width="0.909" height="0.909" fill="#312E81"/>
      <rect x="60.227" y="96.273" width="0.909" height="0.909" fill="#312E81"/>
      <rect x="61.136" y="96.273" width="0.909" height="0.909" fill="#312E81"/>
      <rect x="62.955" y="96.273" width="0.909" height="0.909" fill="#312E81"/>
      <rect x="41.136" y="97.182" width="0.909" height="0.909" fill="#312E81"/>
      <rect x="46.591" y="97.182" width="0.909" height="0.909" fill="#312E81"/>
      <rect x="49.318" y="97.182" width="0.909" height="0.909" fill="#312E81"/>
      <rect x="51.136" y="97.182" width="0.909" height="0.909" fill="#312E81"/>
      <rect x="52.045" y="97.182" width="0.909" height="0.909" fill="#312E81"/>
      <rect x="53.864" y="97.182" width="0.909" height="0.909" fill="#312E81"/>
      <rect x="54.773" y="97.182" width="0.909" height="0.909" fill="#312E81"/>
      <rect x="57.500" y="97.182" width="0.909" height="0.909" fill="#312E81"/>
      <rect x="62.955" y="97.182" width="0.909" height="0.909" fill="#312E81"/>
      <rect x="41.136" y="98.091" width="0.909" height="0.909" fill="#312E81"/>
      <rect x="42.045" y="98.091" width="0.909" height="0.909" fill="#312E81"/>
      <rect x="42.955" y="98.091" width="0.909" height="0.909" fill="#312E81"/>
      <rect x="43.864" y="98.091" width="0.909" height="0.909" fill="#312E81"/>
      <rect x="44.773" y="98.091" width="0.909" height="0.909" fill="#312E81"/>
      <rect x="45.682" y="98.091" width="0.909" height="0.909" fill="#312E81"/>
      <rect x="46.591" y="98.091" width="0.909" height="0.909" fill="#312E81"/>
      <rect x="48.409" y="98.091" width="0.909" height="0.909" fill="#312E81"/>
      <rect x="50.227" y="98.091" width="0.909" height="0.909" fill="#312E81"/>
      <rect x="52.045" y="98.091" width="0.909" height="0.909" fill="#312E81"/>
      <rect x="53.864" y="98.091" width="0.909" height="0.909" fill="#312E81"/>
      <rect x="55.682" y="98.091" width="0.909" height="0.909" fill="#312E81"/>
      <rect x="57.500" y="98.091" width="0.909" height="0.909" fill="#312E81"/>
      <rect x="58.409" y="98.091" width="0.909" height="0.909" fill="#312E81"/>
      <rect x="59.318" y="98.091" width="0.909" height="0.909" fill="#312E81"/>
      <rect x="60.227" y="98.091" width="0.909" height="0.909" fill="#312E81"/>
      <rect x="61.136" y="98.091" width="0.909" height="0.909" fill="#312E81"/>
      <rect x="62.045" y="98.091" width="0.909" height="0.909" fill="#312E81"/>
      <rect x="62.955" y="98.091" width="0.909" height="0.909" fill="#312E81"/>
      <rect x="48.409" y="99.000" width="0.909" height="0.909" fill="#312E81"/>
      <rect x="51.136" y="99.000" width="0.909" height="0.909" fill="#312E81"/>
      <rect x="52.045" y="99.000" width="0.909" height="0.909" fill="#312E81"/>
      <rect x="52.955" y="99.000" width="0.909" height="0.909" fill="#312E81"/>
      <rect x="53.864" y="99.000" width="0.909" height="0.909" fill="#312E81"/>
      <rect x="54.773" y="99.000" width="0.909" height="0.909" fill="#312E81"/>
      <rect x="55.682" y="99.000" width="0.909" height="0.909" fill="#312E81"/>
      <rect x="42.045" y="99.909" width="0.909" height="0.909" fill="#312E81"/>
      <rect x="42.955" y="99.909" width="0.909" height="0.909" fill="#312E81"/>
      <rect x="44.773" y="99.909" width="0.909" height="0.909" fill="#312E81"/>
      <rect x="46.591" y="99.909" width="0.909" height="0.909" fill="#312E81"/>
      <rect x="47.500" y="99.909" width="0.909" height="0.909" fill="#312E81"/>
      <rect x="49.318" y="99.909" width="0.909" height="0.909" fill="#312E81"/>
      <rect x="52.045" y="99.909" width="0.909" height="0.909" fill="#312E81"/>
      <rect x="52.955" y="99.909" width="0.909" height="0.909" fill="#312E81"/>
      <rect x="54.773" y="99.909" width="0.909" height="0.909" fill="#312E81"/>
      <rect x="55.682" y="99.909" width="0.909" height="0.909" fill="#312E81"/>
      <rect x="57.500" y="99.909" width="0.909" height="0.909" fill="#312E81"/>
      <rect x="59.318" y="99.909" width="0.909" height="0.909" fill="#312E81"/>
      <rect x="60.227" y="99.909" width="0.909" height="0.909" fill="#312E81"/>
      <rect x="61.136" y="99.909" width="0.909" height="0.909" fill="#312E81"/>
      <rect x="62.045" y="99.909" width="0.909" height="0.909" fill="#312E81"/>
      <rect x="62.955" y="99.909" width="0.909" height="0.909" fill="#312E81"/>
      <rect x="41.136" y="100.818" width="0.909" height="0.909" fill="#312E81"/>
      <rect x="43.864" y="100.818" width="0.909" height="0.909" fill="#312E81"/>
      <rect x="44.773" y="100.818" width="0.909" height="0.909" fill="#312E81"/>
      <rect x="45.682" y="100.818" width="0.909" height="0.909" fill="#312E81"/>
      <rect x="47.500" y="100.818" width="0.909" height="0.909" fill="#312E81"/>
      <rect x="49.318" y="100.818" width="0.909" height="0.909" fill="#312E81"/>
      <rect x="51.136" y="100.818" width="0.909" height="0.909" fill="#312E81"/>
      <rect x="52.045" y="100.818" width="0.909" height="0.909" fill="#312E81"/>
      <rect x="55.682" y="100.818" width="0.909" height="0.909" fill="#312E81"/>
      <rect x="56.591" y="100.818" width="0.909" height="0.909" fill="#312E81"/>
      <rect x="57.500" y="100.818" width="0.909" height="0.909" fill="#312E81"/>
      <rect x="62.955" y="100.818" width="0.909" height="0.909" fill="#312E81"/>
      <rect x="41.136" y="101.727" width="0.909" height="0.909" fill="#312E81"/>
      <rect x="42.045" y="101.727" width="0.909" height="0.909" fill="#312E81"/>
      <rect x="42.955" y="101.727" width="0.909" height="0.909" fill="#312E81"/>
      <rect x="44.773" y="101.727" width="0.909" height="0.909" fill="#312E81"/>
      <rect x="45.682" y="101.727" width="0.909" height="0.909" fill="#312E81"/>
      <rect x="46.591" y="101.727" width="0.909" height="0.909" fill="#312E81"/>
      <rect x="47.500" y="101.727" width="0.909" height="0.909" fill="#312E81"/>
      <rect x="49.318" y="101.727" width="0.909" height="0.909" fill="#312E81"/>
      <rect x="51.136" y="101.727" width="0.909" height="0.909" fill="#312E81"/>
      <rect x="56.591" y="101.727" width="0.909" height="0.909" fill="#312E81"/>
      <rect x="58.409" y="101.727" width="0.909" height="0.909" fill="#312E81"/>
      <rect x="59.318" y="101.727" width="0.909" height="0.909" fill="#312E81"/>
      <rect x="61.136" y="101.727" width="0.909" height="0.909" fill="#312E81"/>
      <rect x="62.045" y="101.727" width="0.909" height="0.909" fill="#312E81"/>
      <rect x="62.955" y="101.727" width="0.909" height="0.909" fill="#312E81"/>
      <rect x="42.045" y="102.636" width="0.909" height="0.909" fill="#312E81"/>
      <rect x="47.500" y="102.636" width="0.909" height="0.909" fill="#312E81"/>
      <rect x="48.409" y="102.636" width="0.909" height="0.909" fill="#312E81"/>
      <rect x="50.227" y="102.636" width="0.909" height="0.909" fill="#312E81"/>
      <rect x="52.045" y="102.636" width="0.909" height="0.909" fill="#312E81"/>
      <rect x="52.955" y="102.636" width="0.909" height="0.909" fill="#312E81"/>
      <rect x="53.864" y="102.636" width="0.909" height="0.909" fill="#312E81"/>
      <rect x="54.773" y="102.636" width="0.909" height="0.909" fill="#312E81"/>
      <rect x="56.591" y="102.636" width="0.909" height="0.909" fill="#312E81"/>
      <rect x="57.500" y="102.636" width="0.909" height="0.909" fill="#312E81"/>
      <rect x="58.409" y="102.636" width="0.909" height="0.909" fill="#312E81"/>
      <rect x="59.318" y="102.636" width="0.909" height="0.909" fill="#312E81"/>
      <rect x="62.045" y="102.636" width="0.909" height="0.909" fill="#312E81"/>
      <rect x="42.955" y="103.545" width="0.909" height="0.909" fill="#312E81"/>
      <rect x="43.864" y="103.545" width="0.909" height="0.909" fill="#312E81"/>
      <rect x="44.773" y="103.545" width="0.909" height="0.909" fill="#312E81"/>
      <rect x="46.591" y="103.545" width="0.909" height="0.909" fill="#312E81"/>
      <rect x="47.500" y="103.545" width="0.909" height="0.909" fill="#312E81"/>
      <rect x="52.045" y="103.545" width="0.909" height="0.909" fill="#312E81"/>
      <rect x="53.864" y="103.545" width="0.909" height="0.909" fill="#312E81"/>
      <rect x="55.682" y="103.545" width="0.909" height="0.909" fill="#312E81"/>
      <rect x="56.591" y="103.545" width="0.909" height="0.909" fill="#312E81"/>
      <rect x="57.500" y="103.545" width="0.909" height="0.909" fill="#312E81"/>
      <rect x="60.227" y="103.545" width="0.909" height="0.909" fill="#312E81"/>
      <rect x="62.045" y="103.545" width="0.909" height="0.909" fill="#312E81"/>
      <rect x="62.955" y="103.545" width="0.909" height="0.909" fill="#312E81"/>
      <rect x="42.045" y="104.455" width="0.909" height="0.909" fill="#312E81"/>
      <rect x="42.955" y="104.455" width="0.909" height="0.909" fill="#312E81"/>
      <rect x="43.864" y="104.455" width="0.909" height="0.909" fill="#312E81"/>
      <rect x="44.773" y="104.455" width="0.909" height="0.909" fill="#312E81"/>
      <rect x="45.682" y="104.455" width="0.909" height="0.909" fill="#312E81"/>
      <rect x="47.500" y="104.455" width="0.909" height="0.909" fill="#312E81"/>
      <rect x="49.318" y="104.455" width="0.909" height="0.909" fill="#312E81"/>
      <rect x="52.045" y="104.455" width="0.909" height="0.909" fill="#312E81"/>
      <rect x="52.955" y="104.455" width="0.909" height="0.909" fill="#312E81"/>
      <rect x="55.682" y="104.455" width="0.909" height="0.909" fill="#312E81"/>
      <rect x="56.591" y="104.455" width="0.909" height="0.909" fill="#312E81"/>
      <rect x="57.500" y="104.455" width="0.909" height="0.909" fill="#312E81"/>
      <rect x="60.227" y="104.455" width="0.909" height="0.909" fill="#312E81"/>
      <rect x="62.955" y="104.455" width="0.909" height="0.909" fill="#312E81"/>
      <rect x="41.136" y="105.364" width="0.909" height="0.909" fill="#312E81"/>
      <rect x="42.955" y="105.364" width="0.909" height="0.909" fill="#312E81"/>
      <rect x="43.864" y="105.364" width="0.909" height="0.909" fill="#312E81"/>
      <rect x="46.591" y="105.364" width="0.909" height="0.909" fill="#312E81"/>
      <rect x="47.500" y="105.364" width="0.909" height="0.909" fill="#312E81"/>
      <rect x="48.409" y="105.364" width="0.909" height="0.909" fill="#312E81"/>
      <rect x="49.318" y="105.364" width="0.909" height="0.909" fill="#312E81"/>
      <rect x="50.227" y="105.364" width="0.909" height="0.909" fill="#312E81"/>
      <rect x="51.136" y="105.364" width="0.909" height="0.909" fill="#312E81"/>
      <rect x="52.955" y="105.364" width="0.909" height="0.909" fill="#312E81"/>
      <rect x="56.591" y="105.364" width="0.909" height="0.909" fill="#312E81"/>
      <rect x="57.500" y="105.364" width="0.909" height="0.909" fill="#312E81"/>
      <rect x="58.409" y="105.364" width="0.909" height="0.909" fill="#312E81"/>
      <rect x="61.136" y="105.364" width="0.909" height="0.909" fill="#312E81"/>
      <rect x="62.045" y="105.364" width="0.909" height="0.909" fill="#312E81"/>
      <rect x="62.955" y="105.364" width="0.909" height="0.909" fill="#312E81"/>
      <rect x="42.045" y="106.273" width="0.909" height="0.909" fill="#312E81"/>
      <rect x="43.864" y="106.273" width="0.909" height="0.909" fill="#312E81"/>
      <rect x="44.773" y="106.273" width="0.909" height="0.909" fill="#312E81"/>
      <rect x="45.682" y="106.273" width="0.909" height="0.909" fill="#312E81"/>
      <rect x="47.500" y="106.273" width="0.909" height="0.909" fill="#312E81"/>
      <rect x="49.318" y="106.273" width="0.909" height="0.909" fill="#312E81"/>
      <rect x="51.136" y="106.273" width="0.909" height="0.909" fill="#312E81"/>
      <rect x="52.955" y="106.273" width="0.909" height="0.909" fill="#312E81"/>
      <rect x="56.591" y="106.273" width="0.909" height="0.909" fill="#312E81"/>
      <rect x="59.318" y="106.273" width="0.909" height="0.909" fill="#312E81"/>
      <rect x="62.045" y="106.273" width="0.909" height="0.909" fill="#312E81"/>
      <rect x="41.136" y="107.182" width="0.909" height="0.909" fill="#312E81"/>
      <rect x="42.955" y="107.182" width="0.909" height="0.909" fill="#312E81"/>
      <rect x="44.773" y="107.182" width="0.909" height="0.909" fill="#312E81"/>
      <rect x="45.682" y="107.182" width="0.909" height="0.909" fill="#312E81"/>
      <rect x="46.591" y="107.182" width="0.909" height="0.909" fill="#312E81"/>
      <rect x="48.409" y="107.182" width="0.909" height="0.909" fill="#312E81"/>
      <rect x="50.227" y="107.182" width="0.909" height="0.909" fill="#312E81"/>
      <rect x="51.136" y="107.182" width="0.909" height="0.909" fill="#312E81"/>
      <rect x="52.045" y="107.182" width="0.909" height="0.909" fill="#312E81"/>
      <rect x="52.955" y="107.182" width="0.909" height="0.909" fill="#312E81"/>
      <rect x="53.864" y="107.182" width="0.909" height="0.909" fill="#312E81"/>
      <rect x="54.773" y="107.182" width="0.909" height="0.909" fill="#312E81"/>
      <rect x="55.682" y="107.182" width="0.909" height="0.909" fill="#312E81"/>
      <rect x="56.591" y="107.182" width="0.909" height="0.909" fill="#312E81"/>
      <rect x="57.500" y="107.182" width="0.909" height="0.909" fill="#312E81"/>
      <rect x="58.409" y="107.182" width="0.909" height="0.909" fill="#312E81"/>
      <rect x="59.318" y="107.182" width="0.909" height="0.909" fill="#312E81"/>
      <rect x="60.227" y="107.182" width="0.909" height="0.909" fill="#312E81"/>
      <rect x="48.409" y="108.091" width="0.909" height="0.909" fill="#312E81"/>
      <rect x="49.318" y="108.091" width="0.909" height="0.909" fill="#312E81"/>
      <rect x="51.136" y="108.091" width="0.909" height="0.909" fill="#312E81"/>
      <rect x="53.864" y="108.091" width="0.909" height="0.909" fill="#312E81"/>
      <rect x="54.773" y="108.091" width="0.909" height="0.909" fill="#312E81"/>
      <rect x="55.682" y="108.091" width="0.909" height="0.909" fill="#312E81"/>
      <rect x="59.318" y="108.091" width="0.909" height="0.909" fill="#312E81"/>
      <rect x="60.227" y="108.091" width="0.909" height="0.909" fill="#312E81"/>
      <rect x="62.045" y="108.091" width="0.909" height="0.909" fill="#312E81"/>
      <rect x="62.955" y="108.091" width="0.909" height="0.909" fill="#312E81"/>
      <rect x="41.136" y="109.000" width="0.909" height="0.909" fill="#312E81"/>
      <rect x="42.045" y="109.000" width="0.909" height="0.909" fill="#312E81"/>
      <rect x="42.955" y="109.000" width="0.909" height="0.909" fill="#312E81"/>
      <rect x="43.864" y="109.000" width="0.909" height="0.909" fill="#312E81"/>
      <rect x="44.773" y="109.000" width="0.909" height="0.909" fill="#312E81"/>
      <rect x="45.682" y="109.000" width="0.909" height="0.909" fill="#312E81"/>
      <rect x="46.591" y="109.000" width="0.909" height="0.909" fill="#312E81"/>
      <rect x="48.409" y="109.000" width="0.909" height="0.909" fill="#312E81"/>
      <rect x="49.318" y="109.000" width="0.909" height="0.909" fill="#312E81"/>
      <rect x="52.045" y="109.000" width="0.909" height="0.909" fill="#312E81"/>
      <rect x="54.773" y="109.000" width="0.909" height="0.909" fill="#312E81"/>
      <rect x="55.682" y="109.000" width="0.909" height="0.909" fill="#312E81"/>
      <rect x="57.500" y="109.000" width="0.909" height="0.909" fill="#312E81"/>
      <rect x="59.318" y="109.000" width="0.909" height="0.909" fill="#312E81"/>
      <rect x="60.227" y="109.000" width="0.909" height="0.909" fill="#312E81"/>
      <rect x="62.045" y="109.000" width="0.909" height="0.909" fill="#312E81"/>
      <rect x="62.955" y="109.000" width="0.909" height="0.909" fill="#312E81"/>
      <rect x="41.136" y="109.909" width="0.909" height="0.909" fill="#312E81"/>
      <rect x="46.591" y="109.909" width="0.909" height="0.909" fill="#312E81"/>
      <rect x="49.318" y="109.909" width="0.909" height="0.909" fill="#312E81"/>
      <rect x="50.227" y="109.909" width="0.909" height="0.909" fill="#312E81"/>
      <rect x="52.045" y="109.909" width="0.909" height="0.909" fill="#312E81"/>
      <rect x="55.682" y="109.909" width="0.909" height="0.909" fill="#312E81"/>
      <rect x="59.318" y="109.909" width="0.909" height="0.909" fill="#312E81"/>
      <rect x="60.227" y="109.909" width="0.909" height="0.909" fill="#312E81"/>
      <rect x="62.045" y="109.909" width="0.909" height="0.909" fill="#312E81"/>
      <rect x="41.136" y="110.818" width="0.909" height="0.909" fill="#312E81"/>
      <rect x="42.955" y="110.818" width="0.909" height="0.909" fill="#312E81"/>
      <rect x="43.864" y="110.818" width="0.909" height="0.909" fill="#312E81"/>
      <rect x="44.773" y="110.818" width="0.909" height="0.909" fill="#312E81"/>
      <rect x="46.591" y="110.818" width="0.909" height="0.909" fill="#312E81"/>
      <rect x="48.409" y="110.818" width="0.909" height="0.909" fill="#312E81"/>
      <rect x="50.227" y="110.818" width="0.909" height="0.909" fill="#312E81"/>
      <rect x="53.864" y="110.818" width="0.909" height="0.909" fill="#312E81"/>
      <rect x="55.682" y="110.818" width="0.909" height="0.909" fill="#312E81"/>
      <rect x="56.591" y="110.818" width="0.909" height="0.909" fill="#312E81"/>
      <rect x="57.500" y="110.818" width="0.909" height="0.909" fill="#312E81"/>
      <rect x="58.409" y="110.818" width="0.909" height="0.909" fill="#312E81"/>
      <rect x="59.318" y="110.818" width="0.909" height="0.909" fill="#312E81"/>
      <rect x="60.227" y="110.818" width="0.909" height="0.909" fill="#312E81"/>
      <rect x="62.045" y="110.818" width="0.909" height="0.909" fill="#312E81"/>
      <rect x="62.955" y="110.818" width="0.909" height="0.909" fill="#312E81"/>
      <rect x="41.136" y="111.727" width="0.909" height="0.909" fill="#312E81"/>
      <rect x="42.955" y="111.727" width="0.909" height="0.909" fill="#312E81"/>
      <rect x="43.864" y="111.727" width="0.909" height="0.909" fill="#312E81"/>
      <rect x="44.773" y="111.727" width="0.909" height="0.909" fill="#312E81"/>
      <rect x="46.591" y="111.727" width="0.909" height="0.909" fill="#312E81"/>
      <rect x="52.045" y="111.727" width="0.909" height="0.909" fill="#312E81"/>
      <rect x="52.955" y="111.727" width="0.909" height="0.909" fill="#312E81"/>
      <rect x="53.864" y="111.727" width="0.909" height="0.909" fill="#312E81"/>
      <rect x="55.682" y="111.727" width="0.909" height="0.909" fill="#312E81"/>
      <rect x="58.409" y="111.727" width="0.909" height="0.909" fill="#312E81"/>
      <rect x="59.318" y="111.727" width="0.909" height="0.909" fill="#312E81"/>
      <rect x="60.227" y="111.727" width="0.909" height="0.909" fill="#312E81"/>
      <rect x="61.136" y="111.727" width="0.909" height="0.909" fill="#312E81"/>
      <rect x="41.136" y="112.636" width="0.909" height="0.909" fill="#312E81"/>
      <rect x="42.955" y="112.636" width="0.909" height="0.909" fill="#312E81"/>
      <rect x="43.864" y="112.636" width="0.909" height="0.909" fill="#312E81"/>
      <rect x="44.773" y="112.636" width="0.909" height="0.909" fill="#312E81"/>
      <rect x="46.591" y="112.636" width="0.909" height="0.909" fill="#312E81"/>
      <rect x="48.409" y="112.636" width="0.909" height="0.909" fill="#312E81"/>
      <rect x="51.136" y="112.636" width="0.909" height="0.909" fill="#312E81"/>
      <rect x="54.773" y="112.636" width="0.909" height="0.909" fill="#312E81"/>
      <rect x="59.318" y="112.636" width="0.909" height="0.909" fill="#312E81"/>
      <rect x="62.955" y="112.636" width="0.909" height="0.909" fill="#312E81"/>
      <rect x="41.136" y="113.545" width="0.909" height="0.909" fill="#312E81"/>
      <rect x="46.591" y="113.545" width="0.909" height="0.909" fill="#312E81"/>
      <rect x="48.409" y="113.545" width="0.909" height="0.909" fill="#312E81"/>
      <rect x="49.318" y="113.545" width="0.909" height="0.909" fill="#312E81"/>
      <rect x="50.227" y="113.545" width="0.909" height="0.909" fill="#312E81"/>
      <rect x="51.136" y="113.545" width="0.909" height="0.909" fill="#312E81"/>
      <rect x="52.045" y="113.545" width="0.909" height="0.909" fill="#312E81"/>
      <rect x="54.773" y="113.545" width="0.909" height="0.909" fill="#312E81"/>
      <rect x="55.682" y="113.545" width="0.909" height="0.909" fill="#312E81"/>
      <rect x="57.500" y="113.545" width="0.909" height="0.909" fill="#312E81"/>
      <rect x="59.318" y="113.545" width="0.909" height="0.909" fill="#312E81"/>
      <rect x="60.227" y="113.545" width="0.909" height="0.909" fill="#312E81"/>
      <rect x="62.045" y="113.545" width="0.909" height="0.909" fill="#312E81"/>
      <rect x="41.136" y="114.455" width="0.909" height="0.909" fill="#312E81"/>
      <rect x="42.045" y="114.455" width="0.909" height="0.909" fill="#312E81"/>
      <rect x="42.955" y="114.455" width="0.909" height="0.909" fill="#312E81"/>
      <rect x="43.864" y="114.455" width="0.909" height="0.909" fill="#312E81"/>
      <rect x="44.773" y="114.455" width="0.909" height="0.909" fill="#312E81"/>
      <rect x="45.682" y="114.455" width="0.909" height="0.909" fill="#312E81"/>
      <rect x="46.591" y="114.455" width="0.909" height="0.909" fill="#312E81"/>
      <rect x="54.773" y="114.455" width="0.909" height="0.909" fill="#312E81"/>
      <rect x="55.682" y="114.455" width="0.909" height="0.909" fill="#312E81"/>
      <rect x="57.500" y="114.455" width="0.909" height="0.909" fill="#312E81"/>
      <rect x="58.409" y="114.455" width="0.909" height="0.909" fill="#312E81"/>
      <rect x="62.045" y="114.455" width="0.909" height="0.909" fill="#312E81"/>
      <rect x="62.955" y="114.455" width="0.909" height="0.909" fill="#312E81"/>
  </g>
  <text x="52.5" y="129" text-anchor="middle" font-family="Inter, 'Helvetica Neue', Arial, sans-serif" font-weight="700" font-size="7.5" letter-spacing="-0.2" fill="#FAFAF9" opacity="1.0">Scan to find your city</text>
  <text x="52.5" y="137" text-anchor="middle" font-family="Inter, 'Helvetica Neue', Arial, sans-serif" font-weight="600" font-size="6" letter-spacing="0.1" fill="#FCD34D" opacity="1.0">indlokal.com · @indlokal</text>
</svg>
