<svg xmlns="http://www.w3.org/2000/svg" width="105mm" height="148mm" viewBox="0 0 105 148" role="img" aria-label="IndLokal - your Indian community, locally">
  <title>IndLokal - A6 table tent</title>
  <defs>
    <linearGradient id="a6bg" x1="0" y1="0" x2="0.35" y2="1">
      <stop offset="0%" stop-color="#312E81"/>
      <stop offset="100%" stop-color="#4F46E5"/>
    </linearGradient>
  </defs>
  <rect width="105" height="148" fill="url(#a6bg)"/>
  <polyline points="60.0,23.2 69.6,23.2 73.92,16.0 78.24,30.4 82.56,23.2 93.6,23.2" fill="none" stroke="#F59E0B" stroke-width="0.8" stroke-linecap="round" stroke-linejoin="round" opacity="0.16"/>

  <g transform="translate(39.5,16)">
    <rect width="26" height="26" rx="5.6875" fill="#FAFAF9"/>
    <g fill="none" stroke-width="2.03125" stroke-linecap="round" stroke-linejoin="round">
      <polyline points="4.0625,15.234375 10.15625,15.234375 13.0,6.90625" stroke="#312E81"/>
      <polyline points="13.0,6.90625 15.84375,15.234375 21.9375,15.234375" stroke="#F59E0B"/>
    </g>
  </g>
  <text x="52.5" y="58" text-anchor="middle" font-family="Inter, 'Helvetica Neue', Arial, sans-serif" font-weight="700" font-size="17" letter-spacing="-0.7" fill="#FAFAF9" opacity="1.0">IndLokal</text>
  <text x="52.5" y="72" text-anchor="middle" font-family="Inter, 'Helvetica Neue', Arial, sans-serif" font-weight="500" font-size="8" letter-spacing="-0.2" fill="#FAFAF9" opacity="0.95">Your Indian community,</text>
  <text x="52.5" y="85" text-anchor="middle" font-family="Inter, 'Helvetica Neue', Arial, sans-serif" font-weight="700" font-size="12" letter-spacing="-0.3" fill="#FCD34D" opacity="1.0">locally.</text>
  <rect x="33.5" y="87" width="38" height="38" rx="3" fill="#FAFAF9"/>

  <g>
    <rect x="36.5" y="90" width="32" height="32" fill="#FFFFFF"/>
      <rect x="40.379" y="93.879" width="0.970" height="0.970" fill="#312E81"/>
      <rect x="41.348" y="93.879" width="0.970" height="0.970" fill="#312E81"/>
      <rect x="42.318" y="93.879" width="0.970" height="0.970" fill="#312E81"/>
      <rect x="43.288" y="93.879" width="0.970" height="0.970" fill="#312E81"/>
      <rect x="44.258" y="93.879" width="0.970" height="0.970" fill="#312E81"/>
      <rect x="45.227" y="93.879" width="0.970" height="0.970" fill="#312E81"/>
      <rect x="46.197" y="93.879" width="0.970" height="0.970" fill="#312E81"/>
      <rect x="50.076" y="93.879" width="0.970" height="0.970" fill="#312E81"/>
      <rect x="55.894" y="93.879" width="0.970" height="0.970" fill="#312E81"/>
      <rect x="57.833" y="93.879" width="0.970" height="0.970" fill="#312E81"/>
      <rect x="58.803" y="93.879" width="0.970" height="0.970" fill="#312E81"/>
      <rect x="59.773" y="93.879" width="0.970" height="0.970" fill="#312E81"/>
      <rect x="60.742" y="93.879" width="0.970" height="0.970" fill="#312E81"/>
      <rect x="61.712" y="93.879" width="0.970" height="0.970" fill="#312E81"/>
      <rect x="62.682" y="93.879" width="0.970" height="0.970" fill="#312E81"/>
      <rect x="63.652" y="93.879" width="0.970" height="0.970" fill="#312E81"/>
      <rect x="40.379" y="94.848" width="0.970" height="0.970" fill="#312E81"/>
      <rect x="46.197" y="94.848" width="0.970" height="0.970" fill="#312E81"/>
      <rect x="48.136" y="94.848" width="0.970" height="0.970" fill="#312E81"/>
      <rect x="52.015" y="94.848" width="0.970" height="0.970" fill="#312E81"/>
      <rect x="57.833" y="94.848" width="0.970" height="0.970" fill="#312E81"/>
      <rect x="63.652" y="94.848" width="0.970" height="0.970" fill="#312E81"/>
      <rect x="40.379" y="95.818" width="0.970" height="0.970" fill="#312E81"/>
      <rect x="42.318" y="95.818" width="0.970" height="0.970" fill="#312E81"/>
      <rect x="43.288" y="95.818" width="0.970" height="0.970" fill="#312E81"/>
      <rect x="44.258" y="95.818" width="0.970" height="0.970" fill="#312E81"/>
      <rect x="46.197" y="95.818" width="0.970" height="0.970" fill="#312E81"/>
      <rect x="48.136" y="95.818" width="0.970" height="0.970" fill="#312E81"/>
      <rect x="49.106" y="95.818" width="0.970" height="0.970" fill="#312E81"/>
      <rect x="51.045" y="95.818" width="0.970" height="0.970" fill="#312E81"/>
      <rect x="52.985" y="95.818" width="0.970" height="0.970" fill="#312E81"/>
      <rect x="54.924" y="95.818" width="0.970" height="0.970" fill="#312E81"/>
      <rect x="57.833" y="95.818" width="0.970" height="0.970" fill="#312E81"/>
      <rect x="59.773" y="95.818" width="0.970" height="0.970" fill="#312E81"/>
      <rect x="60.742" y="95.818" width="0.970" height="0.970" fill="#312E81"/>
      <rect x="61.712" y="95.818" width="0.970" height="0.970" fill="#312E81"/>
      <rect x="63.652" y="95.818" width="0.970" height="0.970" fill="#312E81"/>
      <rect x="40.379" y="96.788" width="0.970" height="0.970" fill="#312E81"/>
      <rect x="42.318" y="96.788" width="0.970" height="0.970" fill="#312E81"/>
      <rect x="43.288" y="96.788" width="0.970" height="0.970" fill="#312E81"/>
      <rect x="44.258" y="96.788" width="0.970" height="0.970" fill="#312E81"/>
      <rect x="46.197" y="96.788" width="0.970" height="0.970" fill="#312E81"/>
      <rect x="49.106" y="96.788" width="0.970" height="0.970" fill="#312E81"/>
      <rect x="51.045" y="96.788" width="0.970" height="0.970" fill="#312E81"/>
      <rect x="52.985" y="96.788" width="0.970" height="0.970" fill="#312E81"/>
      <rect x="53.955" y="96.788" width="0.970" height="0.970" fill="#312E81"/>
      <rect x="57.833" y="96.788" width="0.970" height="0.970" fill="#312E81"/>
      <rect x="59.773" y="96.788" width="0.970" height="0.970" fill="#312E81"/>
      <rect x="60.742" y="96.788" width="0.970" height="0.970" fill="#312E81"/>
      <rect x="61.712" y="96.788" width="0.970" height="0.970" fill="#312E81"/>
      <rect x="63.652" y="96.788" width="0.970" height="0.970" fill="#312E81"/>
      <rect x="40.379" y="97.758" width="0.970" height="0.970" fill="#312E81"/>
      <rect x="42.318" y="97.758" width="0.970" height="0.970" fill="#312E81"/>
      <rect x="43.288" y="97.758" width="0.970" height="0.970" fill="#312E81"/>
      <rect x="44.258" y="97.758" width="0.970" height="0.970" fill="#312E81"/>
      <rect x="46.197" y="97.758" width="0.970" height="0.970" fill="#312E81"/>
      <rect x="53.955" y="97.758" width="0.970" height="0.970" fill="#312E81"/>
      <rect x="54.924" y="97.758" width="0.970" height="0.970" fill="#312E81"/>
      <rect x="57.833" y="97.758" width="0.970" height="0.970" fill="#312E81"/>
      <rect x="59.773" y="97.758" width="0.970" height="0.970" fill="#312E81"/>
      <rect x="60.742" y="97.758" width="0.970" height="0.970" fill="#312E81"/>
      <rect x="61.712" y="97.758" width="0.970" height="0.970" fill="#312E81"/>
      <rect x="63.652" y="97.758" width="0.970" height="0.970" fill="#312E81"/>
      <rect x="40.379" y="98.727" width="0.970" height="0.970" fill="#312E81"/>
      <rect x="46.197" y="98.727" width="0.970" height="0.970" fill="#312E81"/>
      <rect x="49.106" y="98.727" width="0.970" height="0.970" fill="#312E81"/>
      <rect x="51.045" y="98.727" width="0.970" height="0.970" fill="#312E81"/>
      <rect x="52.015" y="98.727" width="0.970" height="0.970" fill="#312E81"/>
      <rect x="52.985" y="98.727" width="0.970" height="0.970" fill="#312E81"/>
      <rect x="53.955" y="98.727" width="0.970" height="0.970" fill="#312E81"/>
      <rect x="55.894" y="98.727" width="0.970" height="0.970" fill="#312E81"/>
      <rect x="57.833" y="98.727" width="0.970" height="0.970" fill="#312E81"/>
      <rect x="63.652" y="98.727" width="0.970" height="0.970" fill="#312E81"/>
      <rect x="40.379" y="99.697" width="0.970" height="0.970" fill="#312E81"/>
      <rect x="41.348" y="99.697" width="0.970" height="0.970" fill="#312E81"/>
      <rect x="42.318" y="99.697" width="0.970" height="0.970" fill="#312E81"/>
      <rect x="43.288" y="99.697" width="0.970" height="0.970" fill="#312E81"/>
      <rect x="44.258" y="99.697" width="0.970" height="0.970" fill="#312E81"/>
      <rect x="45.227" y="99.697" width="0.970" height="0.970" fill="#312E81"/>
      <rect x="46.197" y="99.697" width="0.970" height="0.970" fill="#312E81"/>
      <rect x="48.136" y="99.697" width="0.970" height="0.970" fill="#312E81"/>
      <rect x="50.076" y="99.697" width="0.970" height="0.970" fill="#312E81"/>
      <rect x="52.015" y="99.697" width="0.970" height="0.970" fill="#312E81"/>
      <rect x="53.955" y="99.697" width="0.970" height="0.970" fill="#312E81"/>
      <rect x="55.894" y="99.697" width="0.970" height="0.970" fill="#312E81"/>
      <rect x="57.833" y="99.697" width="0.970" height="0.970" fill="#312E81"/>
      <rect x="58.803" y="99.697" width="0.970" height="0.970" fill="#312E81"/>
      <rect x="59.773" y="99.697" width="0.970" height="0.970" fill="#312E81"/>
      <rect x="60.742" y="99.697" width="0.970" height="0.970" fill="#312E81"/>
      <rect x="61.712" y="99.697" width="0.970" height="0.970" fill="#312E81"/>
      <rect x="62.682" y="99.697" width="0.970" height="0.970" fill="#312E81"/>
      <rect x="63.652" y="99.697" width="0.970" height="0.970" fill="#312E81"/>
      <rect x="51.045" y="100.667" width="0.970" height="0.970" fill="#312E81"/>
      <rect x="55.894" y="100.667" width="0.970" height="0.970" fill="#312E81"/>
      <rect x="41.348" y="101.636" width="0.970" height="0.970" fill="#312E81"/>
      <rect x="42.318" y="101.636" width="0.970" height="0.970" fill="#312E81"/>
      <rect x="43.288" y="101.636" width="0.970" height="0.970" fill="#312E81"/>
      <rect x="45.227" y="101.636" width="0.970" height="0.970" fill="#312E81"/>
      <rect x="46.197" y="101.636" width="0.970" height="0.970" fill="#312E81"/>
      <rect x="49.106" y="101.636" width="0.970" height="0.970" fill="#312E81"/>
      <rect x="50.076" y="101.636" width="0.970" height="0.970" fill="#312E81"/>
      <rect x="51.045" y="101.636" width="0.970" height="0.970" fill="#312E81"/>
      <rect x="52.985" y="101.636" width="0.970" height="0.970" fill="#312E81"/>
      <rect x="54.924" y="101.636" width="0.970" height="0.970" fill="#312E81"/>
      <rect x="55.894" y="101.636" width="0.970" height="0.970" fill="#312E81"/>
      <rect x="61.712" y="101.636" width="0.970" height="0.970" fill="#312E81"/>
      <rect x="62.682" y="101.636" width="0.970" height="0.970" fill="#312E81"/>
      <rect x="40.379" y="102.606" width="0.970" height="0.970" fill="#312E81"/>
      <rect x="41.348" y="102.606" width="0.970" height="0.970" fill="#312E81"/>
      <rect x="44.258" y="102.606" width="0.970" height="0.970" fill="#312E81"/>
      <rect x="47.167" y="102.606" width="0.970" height="0.970" fill="#312E81"/>
      <rect x="51.045" y="102.606" width="0.970" height="0.970" fill="#312E81"/>
      <rect x="52.015" y="102.606" width="0.970" height="0.970" fill="#312E81"/>
      <rect x="55.894" y="102.606" width="0.970" height="0.970" fill="#312E81"/>
      <rect x="58.803" y="102.606" width="0.970" height="0.970" fill="#312E81"/>
      <rect x="62.682" y="102.606" width="0.970" height="0.970" fill="#312E81"/>
      <rect x="41.348" y="103.576" width="0.970" height="0.970" fill="#312E81"/>
      <rect x="43.288" y="103.576" width="0.970" height="0.970" fill="#312E81"/>
      <rect x="44.258" y="103.576" width="0.970" height="0.970" fill="#312E81"/>
      <rect x="45.227" y="103.576" width="0.970" height="0.970" fill="#312E81"/>
      <rect x="46.197" y="103.576" width="0.970" height="0.970" fill="#312E81"/>
      <rect x="48.136" y="103.576" width="0.970" height="0.970" fill="#312E81"/>
      <rect x="49.106" y="103.576" width="0.970" height="0.970" fill="#312E81"/>
      <rect x="50.076" y="103.576" width="0.970" height="0.970" fill="#312E81"/>
      <rect x="51.045" y="103.576" width="0.970" height="0.970" fill="#312E81"/>
      <rect x="52.015" y="103.576" width="0.970" height="0.970" fill="#312E81"/>
      <rect x="53.955" y="103.576" width="0.970" height="0.970" fill="#312E81"/>
      <rect x="55.894" y="103.576" width="0.970" height="0.970" fill="#312E81"/>
      <rect x="57.833" y="103.576" width="0.970" height="0.970" fill="#312E81"/>
      <rect x="58.803" y="103.576" width="0.970" height="0.970" fill="#312E81"/>
      <rect x="59.773" y="103.576" width="0.970" height="0.970" fill="#312E81"/>
      <rect x="44.258" y="104.545" width="0.970" height="0.970" fill="#312E81"/>
      <rect x="45.227" y="104.545" width="0.970" height="0.970" fill="#312E81"/>
      <rect x="50.076" y="104.545" width="0.970" height="0.970" fill="#312E81"/>
      <rect x="52.015" y="104.545" width="0.970" height="0.970" fill="#312E81"/>
      <rect x="52.985" y="104.545" width="0.970" height="0.970" fill="#312E81"/>
      <rect x="55.894" y="104.545" width="0.970" height="0.970" fill="#312E81"/>
      <rect x="57.833" y="104.545" width="0.970" height="0.970" fill="#312E81"/>
      <rect x="58.803" y="104.545" width="0.970" height="0.970" fill="#312E81"/>
      <rect x="59.773" y="104.545" width="0.970" height="0.970" fill="#312E81"/>
      <rect x="60.742" y="104.545" width="0.970" height="0.970" fill="#312E81"/>
      <rect x="61.712" y="104.545" width="0.970" height="0.970" fill="#312E81"/>
      <rect x="41.348" y="105.515" width="0.970" height="0.970" fill="#312E81"/>
      <rect x="45.227" y="105.515" width="0.970" height="0.970" fill="#312E81"/>
      <rect x="46.197" y="105.515" width="0.970" height="0.970" fill="#312E81"/>
      <rect x="47.167" y="105.515" width="0.970" height="0.970" fill="#312E81"/>
      <rect x="49.106" y="105.515" width="0.970" height="0.970" fill="#312E81"/>
      <rect x="50.076" y="105.515" width="0.970" height="0.970" fill="#312E81"/>
      <rect x="52.015" y="105.515" width="0.970" height="0.970" fill="#312E81"/>
      <rect x="54.924" y="105.515" width="0.970" height="0.970" fill="#312E81"/>
      <rect x="56.864" y="105.515" width="0.970" height="0.970" fill="#312E81"/>
      <rect x="57.833" y="105.515" width="0.970" height="0.970" fill="#312E81"/>
      <rect x="59.773" y="105.515" width="0.970" height="0.970" fill="#312E81"/>
      <rect x="61.712" y="105.515" width="0.970" height="0.970" fill="#312E81"/>
      <rect x="62.682" y="105.515" width="0.970" height="0.970" fill="#312E81"/>
      <rect x="63.652" y="105.515" width="0.970" height="0.970" fill="#312E81"/>
      <rect x="41.348" y="106.485" width="0.970" height="0.970" fill="#312E81"/>
      <rect x="49.106" y="106.485" width="0.970" height="0.970" fill="#312E81"/>
      <rect x="51.045" y="106.485" width="0.970" height="0.970" fill="#312E81"/>
      <rect x="52.985" y="106.485" width="0.970" height="0.970" fill="#312E81"/>
      <rect x="53.955" y="106.485" width="0.970" height="0.970" fill="#312E81"/>
      <rect x="54.924" y="106.485" width="0.970" height="0.970" fill="#312E81"/>
      <rect x="55.894" y="106.485" width="0.970" height="0.970" fill="#312E81"/>
      <rect x="56.864" y="106.485" width="0.970" height="0.970" fill="#312E81"/>
      <rect x="57.833" y="106.485" width="0.970" height="0.970" fill="#312E81"/>
      <rect x="58.803" y="106.485" width="0.970" height="0.970" fill="#312E81"/>
      <rect x="59.773" y="106.485" width="0.970" height="0.970" fill="#312E81"/>
      <rect x="63.652" y="106.485" width="0.970" height="0.970" fill="#312E81"/>
      <rect x="41.348" y="107.455" width="0.970" height="0.970" fill="#312E81"/>
      <rect x="42.318" y="107.455" width="0.970" height="0.970" fill="#312E81"/>
      <rect x="46.197" y="107.455" width="0.970" height="0.970" fill="#312E81"/>
      <rect x="48.136" y="107.455" width="0.970" height="0.970" fill="#312E81"/>
      <rect x="51.045" y="107.455" width="0.970" height="0.970" fill="#312E81"/>
      <rect x="53.955" y="107.455" width="0.970" height="0.970" fill="#312E81"/>
      <rect x="56.864" y="107.455" width="0.970" height="0.970" fill="#312E81"/>
      <rect x="59.773" y="107.455" width="0.970" height="0.970" fill="#312E81"/>
      <rect x="61.712" y="107.455" width="0.970" height="0.970" fill="#312E81"/>
      <rect x="62.682" y="107.455" width="0.970" height="0.970" fill="#312E81"/>
      <rect x="40.379" y="108.424" width="0.970" height="0.970" fill="#312E81"/>
      <rect x="43.288" y="108.424" width="0.970" height="0.970" fill="#312E81"/>
      <rect x="44.258" y="108.424" width="0.970" height="0.970" fill="#312E81"/>
      <rect x="45.227" y="108.424" width="0.970" height="0.970" fill="#312E81"/>
      <rect x="47.167" y="108.424" width="0.970" height="0.970" fill="#312E81"/>
      <rect x="48.136" y="108.424" width="0.970" height="0.970" fill="#312E81"/>
      <rect x="49.106" y="108.424" width="0.970" height="0.970" fill="#312E81"/>
      <rect x="50.076" y="108.424" width="0.970" height="0.970" fill="#312E81"/>
      <rect x="51.045" y="108.424" width="0.970" height="0.970" fill="#312E81"/>
      <rect x="57.833" y="108.424" width="0.970" height="0.970" fill="#312E81"/>
      <rect x="58.803" y="108.424" width="0.970" height="0.970" fill="#312E81"/>
      <rect x="59.773" y="108.424" width="0.970" height="0.970" fill="#312E81"/>
      <rect x="63.652" y="108.424" width="0.970" height="0.970" fill="#312E81"/>
      <rect x="42.318" y="109.394" width="0.970" height="0.970" fill="#312E81"/>
      <rect x="43.288" y="109.394" width="0.970" height="0.970" fill="#312E81"/>
      <rect x="45.227" y="109.394" width="0.970" height="0.970" fill="#312E81"/>
      <rect x="46.197" y="109.394" width="0.970" height="0.970" fill="#312E81"/>
      <rect x="50.076" y="109.394" width="0.970" height="0.970" fill="#312E81"/>
      <rect x="51.045" y="109.394" width="0.970" height="0.970" fill="#312E81"/>
      <rect x="52.015" y="109.394" width="0.970" height="0.970" fill="#312E81"/>
      <rect x="54.924" y="109.394" width="0.970" height="0.970" fill="#312E81"/>
      <rect x="55.894" y="109.394" width="0.970" height="0.970" fill="#312E81"/>
      <rect x="56.864" y="109.394" width="0.970" height="0.970" fill="#312E81"/>
      <rect x="57.833" y="109.394" width="0.970" height="0.970" fill="#312E81"/>
      <rect x="58.803" y="109.394" width="0.970" height="0.970" fill="#312E81"/>
      <rect x="59.773" y="109.394" width="0.970" height="0.970" fill="#312E81"/>
      <rect x="60.742" y="109.394" width="0.970" height="0.970" fill="#312E81"/>
      <rect x="61.712" y="109.394" width="0.970" height="0.970" fill="#312E81"/>
      <rect x="62.682" y="109.394" width="0.970" height="0.970" fill="#312E81"/>
      <rect x="63.652" y="109.394" width="0.970" height="0.970" fill="#312E81"/>
      <rect x="48.136" y="110.364" width="0.970" height="0.970" fill="#312E81"/>
      <rect x="49.106" y="110.364" width="0.970" height="0.970" fill="#312E81"/>
      <rect x="50.076" y="110.364" width="0.970" height="0.970" fill="#312E81"/>
      <rect x="51.045" y="110.364" width="0.970" height="0.970" fill="#312E81"/>
      <rect x="55.894" y="110.364" width="0.970" height="0.970" fill="#312E81"/>
      <rect x="59.773" y="110.364" width="0.970" height="0.970" fill="#312E81"/>
      <rect x="61.712" y="110.364" width="0.970" height="0.970" fill="#312E81"/>
      <rect x="63.652" y="110.364" width="0.970" height="0.970" fill="#312E81"/>
      <rect x="40.379" y="111.333" width="0.970" height="0.970" fill="#312E81"/>
      <rect x="41.348" y="111.333" width="0.970" height="0.970" fill="#312E81"/>
      <rect x="42.318" y="111.333" width="0.970" height="0.970" fill="#312E81"/>
      <rect x="43.288" y="111.333" width="0.970" height="0.970" fill="#312E81"/>
      <rect x="44.258" y="111.333" width="0.970" height="0.970" fill="#312E81"/>
      <rect x="45.227" y="111.333" width="0.970" height="0.970" fill="#312E81"/>
      <rect x="46.197" y="111.333" width="0.970" height="0.970" fill="#312E81"/>
      <rect x="50.076" y="111.333" width="0.970" height="0.970" fill="#312E81"/>
      <rect x="52.015" y="111.333" width="0.970" height="0.970" fill="#312E81"/>
      <rect x="55.894" y="111.333" width="0.970" height="0.970" fill="#312E81"/>
      <rect x="57.833" y="111.333" width="0.970" height="0.970" fill="#312E81"/>
      <rect x="59.773" y="111.333" width="0.970" height="0.970" fill="#312E81"/>
      <rect x="61.712" y="111.333" width="0.970" height="0.970" fill="#312E81"/>
      <rect x="62.682" y="111.333" width="0.970" height="0.970" fill="#312E81"/>
      <rect x="63.652" y="111.333" width="0.970" height="0.970" fill="#312E81"/>
      <rect x="40.379" y="112.303" width="0.970" height="0.970" fill="#312E81"/>
      <rect x="46.197" y="112.303" width="0.970" height="0.970" fill="#312E81"/>
      <rect x="48.136" y="112.303" width="0.970" height="0.970" fill="#312E81"/>
      <rect x="52.015" y="112.303" width="0.970" height="0.970" fill="#312E81"/>
      <rect x="52.985" y="112.303" width="0.970" height="0.970" fill="#312E81"/>
      <rect x="54.924" y="112.303" width="0.970" height="0.970" fill="#312E81"/>
      <rect x="55.894" y="112.303" width="0.970" height="0.970" fill="#312E81"/>
      <rect x="59.773" y="112.303" width="0.970" height="0.970" fill="#312E81"/>
      <rect x="63.652" y="112.303" width="0.970" height="0.970" fill="#312E81"/>
      <rect x="40.379" y="113.273" width="0.970" height="0.970" fill="#312E81"/>
      <rect x="42.318" y="113.273" width="0.970" height="0.970" fill="#312E81"/>
      <rect x="43.288" y="113.273" width="0.970" height="0.970" fill="#312E81"/>
      <rect x="44.258" y="113.273" width="0.970" height="0.970" fill="#312E81"/>
      <rect x="46.197" y="113.273" width="0.970" height="0.970" fill="#312E81"/>
      <rect x="49.106" y="113.273" width="0.970" height="0.970" fill="#312E81"/>
      <rect x="50.076" y="113.273" width="0.970" height="0.970" fill="#312E81"/>
      <rect x="51.045" y="113.273" width="0.970" height="0.970" fill="#312E81"/>
      <rect x="52.985" y="113.273" width="0.970" height="0.970" fill="#312E81"/>
      <rect x="55.894" y="113.273" width="0.970" height="0.970" fill="#312E81"/>
      <rect x="56.864" y="113.273" width="0.970" height="0.970" fill="#312E81"/>
      <rect x="57.833" y="113.273" width="0.970" height="0.970" fill="#312E81"/>
      <rect x="58.803" y="113.273" width="0.970" height="0.970" fill="#312E81"/>
      <rect x="59.773" y="113.273" width="0.970" height="0.970" fill="#312E81"/>
      <rect x="60.742" y="113.273" width="0.970" height="0.970" fill="#312E81"/>
      <rect x="40.379" y="114.242" width="0.970" height="0.970" fill="#312E81"/>
      <rect x="42.318" y="114.242" width="0.970" height="0.970" fill="#312E81"/>
      <rect x="43.288" y="114.242" width="0.970" height="0.970" fill="#312E81"/>
      <rect x="44.258" y="114.242" width="0.970" height="0.970" fill="#312E81"/>
      <rect x="46.197" y="114.242" width="0.970" height="0.970" fill="#312E81"/>
      <rect x="48.136" y="114.242" width="0.970" height="0.970" fill="#312E81"/>
      <rect x="52.015" y="114.242" width="0.970" height="0.970" fill="#312E81"/>
      <rect x="55.894" y="114.242" width="0.970" height="0.970" fill="#312E81"/>
      <rect x="56.864" y="114.242" width="0.970" height="0.970" fill="#312E81"/>
      <rect x="57.833" y="114.242" width="0.970" height="0.970" fill="#312E81"/>
      <rect x="59.773" y="114.242" width="0.970" height="0.970" fill="#312E81"/>
      <rect x="60.742" y="114.242" width="0.970" height="0.970" fill="#312E81"/>
      <rect x="61.712" y="114.242" width="0.970" height="0.970" fill="#312E81"/>
      <rect x="62.682" y="114.242" width="0.970" height="0.970" fill="#312E81"/>
      <rect x="63.652" y="114.242" width="0.970" height="0.970" fill="#312E81"/>
      <rect x="40.379" y="115.212" width="0.970" height="0.970" fill="#312E81"/>
      <rect x="42.318" y="115.212" width="0.970" height="0.970" fill="#312E81"/>
      <rect x="43.288" y="115.212" width="0.970" height="0.970" fill="#312E81"/>
      <rect x="44.258" y="115.212" width="0.970" height="0.970" fill="#312E81"/>
      <rect x="46.197" y="115.212" width="0.970" height="0.970" fill="#312E81"/>
      <rect x="48.136" y="115.212" width="0.970" height="0.970" fill="#312E81"/>
      <rect x="51.045" y="115.212" width="0.970" height="0.970" fill="#312E81"/>
      <rect x="52.985" y="115.212" width="0.970" height="0.970" fill="#312E81"/>
      <rect x="54.924" y="115.212" width="0.970" height="0.970" fill="#312E81"/>
      <rect x="55.894" y="115.212" width="0.970" height="0.970" fill="#312E81"/>
      <rect x="56.864" y="115.212" width="0.970" height="0.970" fill="#312E81"/>
      <rect x="57.833" y="115.212" width="0.970" height="0.970" fill="#312E81"/>
      <rect x="59.773" y="115.212" width="0.970" height="0.970" fill="#312E81"/>
      <rect x="61.712" y="115.212" width="0.970" height="0.970" fill="#312E81"/>
      <rect x="62.682" y="115.212" width="0.970" height="0.970" fill="#312E81"/>
      <rect x="40.379" y="116.182" width="0.970" height="0.970" fill="#312E81"/>
      <rect x="46.197" y="116.182" width="0.970" height="0.970" fill="#312E81"/>
      <rect x="48.136" y="116.182" width="0.970" height="0.970" fill="#312E81"/>
      <rect x="49.106" y="116.182" width="0.970" height="0.970" fill="#312E81"/>
      <rect x="50.076" y="116.182" width="0.970" height="0.970" fill="#312E81"/>
      <rect x="51.045" y="116.182" width="0.970" height="0.970" fill="#312E81"/>
      <rect x="52.985" y="116.182" width="0.970" height="0.970" fill="#312E81"/>
      <rect x="56.864" y="116.182" width="0.970" height="0.970" fill="#312E81"/>
      <rect x="57.833" y="116.182" width="0.970" height="0.970" fill="#312E81"/>
      <rect x="59.773" y="116.182" width="0.970" height="0.970" fill="#312E81"/>
      <rect x="61.712" y="116.182" width="0.970" height="0.970" fill="#312E81"/>
      <rect x="40.379" y="117.152" width="0.970" height="0.970" fill="#312E81"/>
      <rect x="41.348" y="117.152" width="0.970" height="0.970" fill="#312E81"/>
      <rect x="42.318" y="117.152" width="0.970" height="0.970" fill="#312E81"/>
      <rect x="43.288" y="117.152" width="0.970" height="0.970" fill="#312E81"/>
      <rect x="44.258" y="117.152" width="0.970" height="0.970" fill="#312E81"/>
      <rect x="45.227" y="117.152" width="0.970" height="0.970" fill="#312E81"/>
      <rect x="46.197" y="117.152" width="0.970" height="0.970" fill="#312E81"/>
      <rect x="50.076" y="117.152" width="0.970" height="0.970" fill="#312E81"/>
      <rect x="51.045" y="117.152" width="0.970" height="0.970" fill="#312E81"/>
      <rect x="57.833" y="117.152" width="0.970" height="0.970" fill="#312E81"/>
      <rect x="58.803" y="117.152" width="0.970" height="0.970" fill="#312E81"/>
      <rect x="59.773" y="117.152" width="0.970" height="0.970" fill="#312E81"/>
      <rect x="60.742" y="117.152" width="0.970" height="0.970" fill="#312E81"/>
      <rect x="61.712" y="117.152" width="0.970" height="0.970" fill="#312E81"/>
      <rect x="62.682" y="117.152" width="0.970" height="0.970" fill="#312E81"/>
      <rect x="63.652" y="117.152" width="0.970" height="0.970" fill="#312E81"/>
  </g>
  <text x="52.5" y="132" text-anchor="middle" font-family="Inter, 'Helvetica Neue', Arial, sans-serif" font-weight="700" font-size="8" letter-spacing="-0.2" fill="#FAFAF9" opacity="1.0">Scan to find your city</text>
  <text x="52.5" y="141" text-anchor="middle" font-family="Inter, 'Helvetica Neue', Arial, sans-serif" font-weight="600" font-size="6.5" letter-spacing="0.1" fill="#FCD34D" opacity="1.0">indlokal.de · @indlokal</text>
</svg>
