<svg xmlns="http://www.w3.org/2000/svg" width="85mm" height="55mm" viewBox="0 0 85 55" role="img" aria-label="IndLokal - your Indian community, locally">
  <title>IndLokal - Visiting card (85x55)</title>
  <rect width="85" height="55" fill="#FAFAF9"/>
  <rect x="0.5" y="0.5" width="84" height="54" fill="none" stroke="#6366F1" stroke-width="1" opacity="0.35"/>

  <g transform="translate(6,7)">
    <rect width="12" height="12" rx="2.625" fill="#4F46E5"/>
    <g fill="none" stroke-width="0.9375" stroke-linecap="round" stroke-linejoin="round">
      <polyline points="1.875,7.03125 4.6875,7.03125 6.0,3.1875" stroke="#FAFAF9"/>
      <polyline points="6.0,3.1875 7.3125,7.03125 10.125,7.03125" stroke="#F59E0B"/>
    </g>
  </g>
  <text x="22" y="17" text-anchor="start" font-family="Inter, 'Helvetica Neue', Arial, sans-serif" font-weight="700" font-size="13" letter-spacing="-0.5" fill="#312E81" opacity="1.0">IndLokal</text>
  <text x="22" y="22.2" text-anchor="start" font-family="Inter, 'Helvetica Neue', Arial, sans-serif" font-weight="500" font-size="4.2" letter-spacing="-0.05" fill="#64748B" opacity="1.0">Your Indian community, locally.</text>
  <polyline points="57.0,14.3 63.4,14.3 66.28,9.5 69.16,19.1 72.04,14.3 79.4,14.3" fill="none" stroke="#6366F1" stroke-width="0.8" stroke-linecap="round" stroke-linejoin="round" opacity="0.22"/>
  <line x1="6" y1="28" x2="79" y2="28" stroke="#6366F1" stroke-width="0.6" opacity="0.35"/>
  <text x="6" y="37" text-anchor="start" font-family="Inter, 'Helvetica Neue', Arial, sans-serif" font-weight="700" font-size="6.6" letter-spacing="-0.1" fill="#312E81" opacity="1.0">indlokal.com</text>
  <text x="6" y="43.5" text-anchor="start" font-family="Inter, 'Helvetica Neue', Arial, sans-serif" font-weight="600" font-size="4.8" letter-spacing="0.0" fill="#64748B" opacity="1.0">@indlokal</text>
  <text x="6" y="49" text-anchor="start" font-family="Inter, 'Helvetica Neue', Arial, sans-serif" font-weight="500" font-size="4.4" letter-spacing="-0.05" fill="#6366F1" opacity="1.0">Scan to start your journey</text>
  <rect x="59.5" y="29.5" width="21" height="21" rx="2" fill="#FFFFFF"/>

  <g>
    <rect x="61" y="31" width="18" height="18" fill="#FFFFFF"/>
      <rect x="63.182" y="33.182" width="0.545" height="0.545" fill="#312E81"/>
      <rect x="63.727" y="33.182" width="0.545" height="0.545" fill="#312E81"/>
      <rect x="64.273" y="33.182" width="0.545" height="0.545" fill="#312E81"/>
      <rect x="64.818" y="33.182" width="0.545" height="0.545" fill="#312E81"/>
      <rect x="65.364" y="33.182" width="0.545" height="0.545" fill="#312E81"/>
      <rect x="65.909" y="33.182" width="0.545" height="0.545" fill="#312E81"/>
      <rect x="66.455" y="33.182" width="0.545" height="0.545" fill="#312E81"/>
      <rect x="67.545" y="33.182" width="0.545" height="0.545" fill="#312E81"/>
      <rect x="68.091" y="33.182" width="0.545" height="0.545" fill="#312E81"/>
      <rect x="69.182" y="33.182" width="0.545" height="0.545" fill="#312E81"/>
      <rect x="69.727" y="33.182" width="0.545" height="0.545" fill="#312E81"/>
      <rect x="70.818" y="33.182" width="0.545" height="0.545" fill="#312E81"/>
      <rect x="71.364" y="33.182" width="0.545" height="0.545" fill="#312E81"/>
      <rect x="73.000" y="33.182" width="0.545" height="0.545" fill="#312E81"/>
      <rect x="73.545" y="33.182" width="0.545" height="0.545" fill="#312E81"/>
      <rect x="74.091" y="33.182" width="0.545" height="0.545" fill="#312E81"/>
      <rect x="74.636" y="33.182" width="0.545" height="0.545" fill="#312E81"/>
      <rect x="75.182" y="33.182" width="0.545" height="0.545" fill="#312E81"/>
      <rect x="75.727" y="33.182" width="0.545" height="0.545" fill="#312E81"/>
      <rect x="76.273" y="33.182" width="0.545" height="0.545" fill="#312E81"/>
      <rect x="63.182" y="33.727" width="0.545" height="0.545" fill="#312E81"/>
      <rect x="66.455" y="33.727" width="0.545" height="0.545" fill="#312E81"/>
      <rect x="67.545" y="33.727" width="0.545" height="0.545" fill="#312E81"/>
      <rect x="68.091" y="33.727" width="0.545" height="0.545" fill="#312E81"/>
      <rect x="69.727" y="33.727" width="0.545" height="0.545" fill="#312E81"/>
      <rect x="71.364" y="33.727" width="0.545" height="0.545" fill="#312E81"/>
      <rect x="73.000" y="33.727" width="0.545" height="0.545" fill="#312E81"/>
      <rect x="76.273" y="33.727" width="0.545" height="0.545" fill="#312E81"/>
      <rect x="63.182" y="34.273" width="0.545" height="0.545" fill="#312E81"/>
      <rect x="64.273" y="34.273" width="0.545" height="0.545" fill="#312E81"/>
      <rect x="64.818" y="34.273" width="0.545" height="0.545" fill="#312E81"/>
      <rect x="65.364" y="34.273" width="0.545" height="0.545" fill="#312E81"/>
      <rect x="66.455" y="34.273" width="0.545" height="0.545" fill="#312E81"/>
      <rect x="67.545" y="34.273" width="0.545" height="0.545" fill="#312E81"/>
      <rect x="68.091" y="34.273" width="0.545" height="0.545" fill="#312E81"/>
      <rect x="69.182" y="34.273" width="0.545" height="0.545" fill="#312E81"/>
      <rect x="69.727" y="34.273" width="0.545" height="0.545" fill="#312E81"/>
      <rect x="71.364" y="34.273" width="0.545" height="0.545" fill="#312E81"/>
      <rect x="73.000" y="34.273" width="0.545" height="0.545" fill="#312E81"/>
      <rect x="74.091" y="34.273" width="0.545" height="0.545" fill="#312E81"/>
      <rect x="74.636" y="34.273" width="0.545" height="0.545" fill="#312E81"/>
      <rect x="75.182" y="34.273" width="0.545" height="0.545" fill="#312E81"/>
      <rect x="76.273" y="34.273" width="0.545" height="0.545" fill="#312E81"/>
      <rect x="63.182" y="34.818" width="0.545" height="0.545" fill="#312E81"/>
      <rect x="64.273" y="34.818" width="0.545" height="0.545" fill="#312E81"/>
      <rect x="64.818" y="34.818" width="0.545" height="0.545" fill="#312E81"/>
      <rect x="65.364" y="34.818" width="0.545" height="0.545" fill="#312E81"/>
      <rect x="66.455" y="34.818" width="0.545" height="0.545" fill="#312E81"/>
      <rect x="67.545" y="34.818" width="0.545" height="0.545" fill="#312E81"/>
      <rect x="69.182" y="34.818" width="0.545" height="0.545" fill="#312E81"/>
      <rect x="70.818" y="34.818" width="0.545" height="0.545" fill="#312E81"/>
      <rect x="73.000" y="34.818" width="0.545" height="0.545" fill="#312E81"/>
      <rect x="74.091" y="34.818" width="0.545" height="0.545" fill="#312E81"/>
      <rect x="74.636" y="34.818" width="0.545" height="0.545" fill="#312E81"/>
      <rect x="75.182" y="34.818" width="0.545" height="0.545" fill="#312E81"/>
      <rect x="76.273" y="34.818" width="0.545" height="0.545" fill="#312E81"/>
      <rect x="63.182" y="35.364" width="0.545" height="0.545" fill="#312E81"/>
      <rect x="64.273" y="35.364" width="0.545" height="0.545" fill="#312E81"/>
      <rect x="64.818" y="35.364" width="0.545" height="0.545" fill="#312E81"/>
      <rect x="65.364" y="35.364" width="0.545" height="0.545" fill="#312E81"/>
      <rect x="66.455" y="35.364" width="0.545" height="0.545" fill="#312E81"/>
      <rect x="67.545" y="35.364" width="0.545" height="0.545" fill="#312E81"/>
      <rect x="68.091" y="35.364" width="0.545" height="0.545" fill="#312E81"/>
      <rect x="68.636" y="35.364" width="0.545" height="0.545" fill="#312E81"/>
      <rect x="69.727" y="35.364" width="0.545" height="0.545" fill="#312E81"/>
      <rect x="70.273" y="35.364" width="0.545" height="0.545" fill="#312E81"/>
      <rect x="70.818" y="35.364" width="0.545" height="0.545" fill="#312E81"/>
      <rect x="71.364" y="35.364" width="0.545" height="0.545" fill="#312E81"/>
      <rect x="71.909" y="35.364" width="0.545" height="0.545" fill="#312E81"/>
      <rect x="73.000" y="35.364" width="0.545" height="0.545" fill="#312E81"/>
      <rect x="74.091" y="35.364" width="0.545" height="0.545" fill="#312E81"/>
      <rect x="74.636" y="35.364" width="0.545" height="0.545" fill="#312E81"/>
      <rect x="75.182" y="35.364" width="0.545" height="0.545" fill="#312E81"/>
      <rect x="76.273" y="35.364" width="0.545" height="0.545" fill="#312E81"/>
      <rect x="63.182" y="35.909" width="0.545" height="0.545" fill="#312E81"/>
      <rect x="66.455" y="35.909" width="0.545" height="0.545" fill="#312E81"/>
      <rect x="68.091" y="35.909" width="0.545" height="0.545" fill="#312E81"/>
      <rect x="69.182" y="35.909" width="0.545" height="0.545" fill="#312E81"/>
      <rect x="69.727" y="35.909" width="0.545" height="0.545" fill="#312E81"/>
      <rect x="70.818" y="35.909" width="0.545" height="0.545" fill="#312E81"/>
      <rect x="71.364" y="35.909" width="0.545" height="0.545" fill="#312E81"/>
      <rect x="73.000" y="35.909" width="0.545" height="0.545" fill="#312E81"/>
      <rect x="76.273" y="35.909" width="0.545" height="0.545" fill="#312E81"/>
      <rect x="63.182" y="36.455" width="0.545" height="0.545" fill="#312E81"/>
      <rect x="63.727" y="36.455" width="0.545" height="0.545" fill="#312E81"/>
      <rect x="64.273" y="36.455" width="0.545" height="0.545" fill="#312E81"/>
      <rect x="64.818" y="36.455" width="0.545" height="0.545" fill="#312E81"/>
      <rect x="65.364" y="36.455" width="0.545" height="0.545" fill="#312E81"/>
      <rect x="65.909" y="36.455" width="0.545" height="0.545" fill="#312E81"/>
      <rect x="66.455" y="36.455" width="0.545" height="0.545" fill="#312E81"/>
      <rect x="67.545" y="36.455" width="0.545" height="0.545" fill="#312E81"/>
      <rect x="68.636" y="36.455" width="0.545" height="0.545" fill="#312E81"/>
      <rect x="69.727" y="36.455" width="0.545" height="0.545" fill="#312E81"/>
      <rect x="70.818" y="36.455" width="0.545" height="0.545" fill="#312E81"/>
      <rect x="71.909" y="36.455" width="0.545" height="0.545" fill="#312E81"/>
      <rect x="73.000" y="36.455" width="0.545" height="0.545" fill="#312E81"/>
      <rect x="73.545" y="36.455" width="0.545" height="0.545" fill="#312E81"/>
      <rect x="74.091" y="36.455" width="0.545" height="0.545" fill="#312E81"/>
      <rect x="74.636" y="36.455" width="0.545" height="0.545" fill="#312E81"/>
      <rect x="75.182" y="36.455" width="0.545" height="0.545" fill="#312E81"/>
      <rect x="75.727" y="36.455" width="0.545" height="0.545" fill="#312E81"/>
      <rect x="76.273" y="36.455" width="0.545" height="0.545" fill="#312E81"/>
      <rect x="67.545" y="37.000" width="0.545" height="0.545" fill="#312E81"/>
      <rect x="69.182" y="37.000" width="0.545" height="0.545" fill="#312E81"/>
      <rect x="69.727" y="37.000" width="0.545" height="0.545" fill="#312E81"/>
      <rect x="70.273" y="37.000" width="0.545" height="0.545" fill="#312E81"/>
      <rect x="70.818" y="37.000" width="0.545" height="0.545" fill="#312E81"/>
      <rect x="71.364" y="37.000" width="0.545" height="0.545" fill="#312E81"/>
      <rect x="71.909" y="37.000" width="0.545" height="0.545" fill="#312E81"/>
      <rect x="63.727" y="37.545" width="0.545" height="0.545" fill="#312E81"/>
      <rect x="64.273" y="37.545" width="0.545" height="0.545" fill="#312E81"/>
      <rect x="65.364" y="37.545" width="0.545" height="0.545" fill="#312E81"/>
      <rect x="66.455" y="37.545" width="0.545" height="0.545" fill="#312E81"/>
      <rect x="67.000" y="37.545" width="0.545" height="0.545" fill="#312E81"/>
      <rect x="68.091" y="37.545" width="0.545" height="0.545" fill="#312E81"/>
      <rect x="69.727" y="37.545" width="0.545" height="0.545" fill="#312E81"/>
      <rect x="70.273" y="37.545" width="0.545" height="0.545" fill="#312E81"/>
      <rect x="71.364" y="37.545" width="0.545" height="0.545" fill="#312E81"/>
      <rect x="71.909" y="37.545" width="0.545" height="0.545" fill="#312E81"/>
      <rect x="73.000" y="37.545" width="0.545" height="0.545" fill="#312E81"/>
      <rect x="74.091" y="37.545" width="0.545" height="0.545" fill="#312E81"/>
      <rect x="74.636" y="37.545" width="0.545" height="0.545" fill="#312E81"/>
      <rect x="75.182" y="37.545" width="0.545" height="0.545" fill="#312E81"/>
      <rect x="75.727" y="37.545" width="0.545" height="0.545" fill="#312E81"/>
      <rect x="76.273" y="37.545" width="0.545" height="0.545" fill="#312E81"/>
      <rect x="63.182" y="38.091" width="0.545" height="0.545" fill="#312E81"/>
      <rect x="64.818" y="38.091" width="0.545" height="0.545" fill="#312E81"/>
      <rect x="65.364" y="38.091" width="0.545" height="0.545" fill="#312E81"/>
      <rect x="65.909" y="38.091" width="0.545" height="0.545" fill="#312E81"/>
      <rect x="67.000" y="38.091" width="0.545" height="0.545" fill="#312E81"/>
      <rect x="68.091" y="38.091" width="0.545" height="0.545" fill="#312E81"/>
      <rect x="69.182" y="38.091" width="0.545" height="0.545" fill="#312E81"/>
      <rect x="69.727" y="38.091" width="0.545" height="0.545" fill="#312E81"/>
      <rect x="71.909" y="38.091" width="0.545" height="0.545" fill="#312E81"/>
      <rect x="72.455" y="38.091" width="0.545" height="0.545" fill="#312E81"/>
      <rect x="73.000" y="38.091" width="0.545" height="0.545" fill="#312E81"/>
      <rect x="76.273" y="38.091" width="0.545" height="0.545" fill="#312E81"/>
      <rect x="63.182" y="38.636" width="0.545" height="0.545" fill="#312E81"/>
      <rect x="63.727" y="38.636" width="0.545" height="0.545" fill="#312E81"/>
      <rect x="64.273" y="38.636" width="0.545" height="0.545" fill="#312E81"/>
      <rect x="65.364" y="38.636" width="0.545" height="0.545" fill="#312E81"/>
      <rect x="65.909" y="38.636" width="0.545" height="0.545" fill="#312E81"/>
      <rect x="66.455" y="38.636" width="0.545" height="0.545" fill="#312E81"/>
      <rect x="67.000" y="38.636" width="0.545" height="0.545" fill="#312E81"/>
      <rect x="68.091" y="38.636" width="0.545" height="0.545" fill="#312E81"/>
      <rect x="69.182" y="38.636" width="0.545" height="0.545" fill="#312E81"/>
      <rect x="72.455" y="38.636" width="0.545" height="0.545" fill="#312E81"/>
      <rect x="73.545" y="38.636" width="0.545" height="0.545" fill="#312E81"/>
      <rect x="74.091" y="38.636" width="0.545" height="0.545" fill="#312E81"/>
      <rect x="75.182" y="38.636" width="0.545" height="0.545" fill="#312E81"/>
      <rect x="75.727" y="38.636" width="0.545" height="0.545" fill="#312E81"/>
      <rect x="76.273" y="38.636" width="0.545" height="0.545" fill="#312E81"/>
      <rect x="63.727" y="39.182" width="0.545" height="0.545" fill="#312E81"/>
      <rect x="67.000" y="39.182" width="0.545" height="0.545" fill="#312E81"/>
      <rect x="67.545" y="39.182" width="0.545" height="0.545" fill="#312E81"/>
      <rect x="68.636" y="39.182" width="0.545" height="0.545" fill="#312E81"/>
      <rect x="69.727" y="39.182" width="0.545" height="0.545" fill="#312E81"/>
      <rect x="70.273" y="39.182" width="0.545" height="0.545" fill="#312E81"/>
      <rect x="70.818" y="39.182" width="0.545" height="0.545" fill="#312E81"/>
      <rect x="71.364" y="39.182" width="0.545" height="0.545" fill="#312E81"/>
      <rect x="72.455" y="39.182" width="0.545" height="0.545" fill="#312E81"/>
      <rect x="73.000" y="39.182" width="0.545" height="0.545" fill="#312E81"/>
      <rect x="73.545" y="39.182" width="0.545" height="0.545" fill="#312E81"/>
      <rect x="74.091" y="39.182" width="0.545" height="0.545" fill="#312E81"/>
      <rect x="75.727" y="39.182" width="0.545" height="0.545" fill="#312E81"/>
      <rect x="64.273" y="39.727" width="0.545" height="0.545" fill="#312E81"/>
      <rect x="64.818" y="39.727" width="0.545" height="0.545" fill="#312E81"/>
      <rect x="65.364" y="39.727" width="0.545" height="0.545" fill="#312E81"/>
      <rect x="66.455" y="39.727" width="0.545" height="0.545" fill="#312E81"/>
      <rect x="67.000" y="39.727" width="0.545" height="0.545" fill="#312E81"/>
      <rect x="69.727" y="39.727" width="0.545" height="0.545" fill="#312E81"/>
      <rect x="70.818" y="39.727" width="0.545" height="0.545" fill="#312E81"/>
      <rect x="71.909" y="39.727" width="0.545" height="0.545" fill="#312E81"/>
      <rect x="72.455" y="39.727" width="0.545" height="0.545" fill="#312E81"/>
      <rect x="73.000" y="39.727" width="0.545" height="0.545" fill="#312E81"/>
      <rect x="74.636" y="39.727" width="0.545" height="0.545" fill="#312E81"/>
      <rect x="75.727" y="39.727" width="0.545" height="0.545" fill="#312E81"/>
      <rect x="76.273" y="39.727" width="0.545" height="0.545" fill="#312E81"/>
      <rect x="63.727" y="40.273" width="0.545" height="0.545" fill="#312E81"/>
      <rect x="64.273" y="40.273" width="0.545" height="0.545" fill="#312E81"/>
      <rect x="64.818" y="40.273" width="0.545" height="0.545" fill="#312E81"/>
      <rect x="65.364" y="40.273" width="0.545" height="0.545" fill="#312E81"/>
      <rect x="65.909" y="40.273" width="0.545" height="0.545" fill="#312E81"/>
      <rect x="67.000" y="40.273" width="0.545" height="0.545" fill="#312E81"/>
      <rect x="68.091" y="40.273" width="0.545" height="0.545" fill="#312E81"/>
      <rect x="69.727" y="40.273" width="0.545" height="0.545" fill="#312E81"/>
      <rect x="70.273" y="40.273" width="0.545" height="0.545" fill="#312E81"/>
      <rect x="71.909" y="40.273" width="0.545" height="0.545" fill="#312E81"/>
      <rect x="72.455" y="40.273" width="0.545" height="0.545" fill="#312E81"/>
      <rect x="73.000" y="40.273" width="0.545" height="0.545" fill="#312E81"/>
      <rect x="74.636" y="40.273" width="0.545" height="0.545" fill="#312E81"/>
      <rect x="76.273" y="40.273" width="0.545" height="0.545" fill="#312E81"/>
      <rect x="63.182" y="40.818" width="0.545" height="0.545" fill="#312E81"/>
      <rect x="64.273" y="40.818" width="0.545" height="0.545" fill="#312E81"/>
      <rect x="64.818" y="40.818" width="0.545" height="0.545" fill="#312E81"/>
      <rect x="66.455" y="40.818" width="0.545" height="0.545" fill="#312E81"/>
      <rect x="67.000" y="40.818" width="0.545" height="0.545" fill="#312E81"/>
      <rect x="67.545" y="40.818" width="0.545" height="0.545" fill="#312E81"/>
      <rect x="68.091" y="40.818" width="0.545" height="0.545" fill="#312E81"/>
      <rect x="68.636" y="40.818" width="0.545" height="0.545" fill="#312E81"/>
      <rect x="69.182" y="40.818" width="0.545" height="0.545" fill="#312E81"/>
      <rect x="70.273" y="40.818" width="0.545" height="0.545" fill="#312E81"/>
      <rect x="72.455" y="40.818" width="0.545" height="0.545" fill="#312E81"/>
      <rect x="73.000" y="40.818" width="0.545" height="0.545" fill="#312E81"/>
      <rect x="73.545" y="40.818" width="0.545" height="0.545" fill="#312E81"/>
      <rect x="75.182" y="40.818" width="0.545" height="0.545" fill="#312E81"/>
      <rect x="75.727" y="40.818" width="0.545" height="0.545" fill="#312E81"/>
      <rect x="76.273" y="40.818" width="0.545" height="0.545" fill="#312E81"/>
      <rect x="63.727" y="41.364" width="0.545" height="0.545" fill="#312E81"/>
      <rect x="64.818" y="41.364" width="0.545" height="0.545" fill="#312E81"/>
      <rect x="65.364" y="41.364" width="0.545" height="0.545" fill="#312E81"/>
      <rect x="65.909" y="41.364" width="0.545" height="0.545" fill="#312E81"/>
      <rect x="67.000" y="41.364" width="0.545" height="0.545" fill="#312E81"/>
      <rect x="68.091" y="41.364" width="0.545" height="0.545" fill="#312E81"/>
      <rect x="69.182" y="41.364" width="0.545" height="0.545" fill="#312E81"/>
      <rect x="70.273" y="41.364" width="0.545" height="0.545" fill="#312E81"/>
      <rect x="72.455" y="41.364" width="0.545" height="0.545" fill="#312E81"/>
      <rect x="74.091" y="41.364" width="0.545" height="0.545" fill="#312E81"/>
      <rect x="75.727" y="41.364" width="0.545" height="0.545" fill="#312E81"/>
      <rect x="63.182" y="41.909" width="0.545" height="0.545" fill="#312E81"/>
      <rect x="64.273" y="41.909" width="0.545" height="0.545" fill="#312E81"/>
      <rect x="65.364" y="41.909" width="0.545" height="0.545" fill="#312E81"/>
      <rect x="65.909" y="41.909" width="0.545" height="0.545" fill="#312E81"/>
      <rect x="66.455" y="41.909" width="0.545" height="0.545" fill="#312E81"/>
      <rect x="67.545" y="41.909" width="0.545" height="0.545" fill="#312E81"/>
      <rect x="68.636" y="41.909" width="0.545" height="0.545" fill="#312E81"/>
      <rect x="69.182" y="41.909" width="0.545" height="0.545" fill="#312E81"/>
      <rect x="69.727" y="41.909" width="0.545" height="0.545" fill="#312E81"/>
      <rect x="70.273" y="41.909" width="0.545" height="0.545" fill="#312E81"/>
      <rect x="70.818" y="41.909" width="0.545" height="0.545" fill="#312E81"/>
      <rect x="71.364" y="41.909" width="0.545" height="0.545" fill="#312E81"/>
      <rect x="71.909" y="41.909" width="0.545" height="0.545" fill="#312E81"/>
      <rect x="72.455" y="41.909" width="0.545" height="0.545" fill="#312E81"/>
      <rect x="73.000" y="41.909" width="0.545" height="0.545" fill="#312E81"/>
      <rect x="73.545" y="41.909" width="0.545" height="0.545" fill="#312E81"/>
      <rect x="74.091" y="41.909" width="0.545" height="0.545" fill="#312E81"/>
      <rect x="74.636" y="41.909" width="0.545" height="0.545" fill="#312E81"/>
      <rect x="67.545" y="42.455" width="0.545" height="0.545" fill="#312E81"/>
      <rect x="68.091" y="42.455" width="0.545" height="0.545" fill="#312E81"/>
      <rect x="69.182" y="42.455" width="0.545" height="0.545" fill="#312E81"/>
      <rect x="70.818" y="42.455" width="0.545" height="0.545" fill="#312E81"/>
      <rect x="71.364" y="42.455" width="0.545" height="0.545" fill="#312E81"/>
      <rect x="71.909" y="42.455" width="0.545" height="0.545" fill="#312E81"/>
      <rect x="74.091" y="42.455" width="0.545" height="0.545" fill="#312E81"/>
      <rect x="74.636" y="42.455" width="0.545" height="0.545" fill="#312E81"/>
      <rect x="75.727" y="42.455" width="0.545" height="0.545" fill="#312E81"/>
      <rect x="76.273" y="42.455" width="0.545" height="0.545" fill="#312E81"/>
      <rect x="63.182" y="43.000" width="0.545" height="0.545" fill="#312E81"/>
      <rect x="63.727" y="43.000" width="0.545" height="0.545" fill="#312E81"/>
      <rect x="64.273" y="43.000" width="0.545" height="0.545" fill="#312E81"/>
      <rect x="64.818" y="43.000" width="0.545" height="0.545" fill="#312E81"/>
      <rect x="65.364" y="43.000" width="0.545" height="0.545" fill="#312E81"/>
      <rect x="65.909" y="43.000" width="0.545" height="0.545" fill="#312E81"/>
      <rect x="66.455" y="43.000" width="0.545" height="0.545" fill="#312E81"/>
      <rect x="67.545" y="43.000" width="0.545" height="0.545" fill="#312E81"/>
      <rect x="68.091" y="43.000" width="0.545" height="0.545" fill="#312E81"/>
      <rect x="69.727" y="43.000" width="0.545" height="0.545" fill="#312E81"/>
      <rect x="71.364" y="43.000" width="0.545" height="0.545" fill="#312E81"/>
      <rect x="71.909" y="43.000" width="0.545" height="0.545" fill="#312E81"/>
      <rect x="73.000" y="43.000" width="0.545" height="0.545" fill="#312E81"/>
      <rect x="74.091" y="43.000" width="0.545" height="0.545" fill="#312E81"/>
      <rect x="74.636" y="43.000" width="0.545" height="0.545" fill="#312E81"/>
      <rect x="75.727" y="43.000" width="0.545" height="0.545" fill="#312E81"/>
      <rect x="76.273" y="43.000" width="0.545" height="0.545" fill="#312E81"/>
      <rect x="63.182" y="43.545" width="0.545" height="0.545" fill="#312E81"/>
      <rect x="66.455" y="43.545" width="0.545" height="0.545" fill="#312E81"/>
      <rect x="68.091" y="43.545" width="0.545" height="0.545" fill="#312E81"/>
      <rect x="68.636" y="43.545" width="0.545" height="0.545" fill="#312E81"/>
      <rect x="69.727" y="43.545" width="0.545" height="0.545" fill="#312E81"/>
      <rect x="71.909" y="43.545" width="0.545" height="0.545" fill="#312E81"/>
      <rect x="74.091" y="43.545" width="0.545" height="0.545" fill="#312E81"/>
      <rect x="74.636" y="43.545" width="0.545" height="0.545" fill="#312E81"/>
      <rect x="75.727" y="43.545" width="0.545" height="0.545" fill="#312E81"/>
      <rect x="63.182" y="44.091" width="0.545" height="0.545" fill="#312E81"/>
      <rect x="64.273" y="44.091" width="0.545" height="0.545" fill="#312E81"/>
      <rect x="64.818" y="44.091" width="0.545" height="0.545" fill="#312E81"/>
      <rect x="65.364" y="44.091" width="0.545" height="0.545" fill="#312E81"/>
      <rect x="66.455" y="44.091" width="0.545" height="0.545" fill="#312E81"/>
      <rect x="67.545" y="44.091" width="0.545" height="0.545" fill="#312E81"/>
      <rect x="68.636" y="44.091" width="0.545" height="0.545" fill="#312E81"/>
      <rect x="70.818" y="44.091" width="0.545" height="0.545" fill="#312E81"/>
      <rect x="71.909" y="44.091" width="0.545" height="0.545" fill="#312E81"/>
      <rect x="72.455" y="44.091" width="0.545" height="0.545" fill="#312E81"/>
      <rect x="73.000" y="44.091" width="0.545" height="0.545" fill="#312E81"/>
      <rect x="73.545" y="44.091" width="0.545" height="0.545" fill="#312E81"/>
      <rect x="74.091" y="44.091" width="0.545" height="0.545" fill="#312E81"/>
      <rect x="74.636" y="44.091" width="0.545" height="0.545" fill="#312E81"/>
      <rect x="75.727" y="44.091" width="0.545" height="0.545" fill="#312E81"/>
      <rect x="76.273" y="44.091" width="0.545" height="0.545" fill="#312E81"/>
      <rect x="63.182" y="44.636" width="0.545" height="0.545" fill="#312E81"/>
      <rect x="64.273" y="44.636" width="0.545" height="0.545" fill="#312E81"/>
      <rect x="64.818" y="44.636" width="0.545" height="0.545" fill="#312E81"/>
      <rect x="65.364" y="44.636" width="0.545" height="0.545" fill="#312E81"/>
      <rect x="66.455" y="44.636" width="0.545" height="0.545" fill="#312E81"/>
      <rect x="69.727" y="44.636" width="0.545" height="0.545" fill="#312E81"/>
      <rect x="70.273" y="44.636" width="0.545" height="0.545" fill="#312E81"/>
      <rect x="70.818" y="44.636" width="0.545" height="0.545" fill="#312E81"/>
      <rect x="71.909" y="44.636" width="0.545" height="0.545" fill="#312E81"/>
      <rect x="73.545" y="44.636" width="0.545" height="0.545" fill="#312E81"/>
      <rect x="74.091" y="44.636" width="0.545" height="0.545" fill="#312E81"/>
      <rect x="74.636" y="44.636" width="0.545" height="0.545" fill="#312E81"/>
      <rect x="75.182" y="44.636" width="0.545" height="0.545" fill="#312E81"/>
      <rect x="63.182" y="45.182" width="0.545" height="0.545" fill="#312E81"/>
      <rect x="64.273" y="45.182" width="0.545" height="0.545" fill="#312E81"/>
      <rect x="64.818" y="45.182" width="0.545" height="0.545" fill="#312E81"/>
      <rect x="65.364" y="45.182" width="0.545" height="0.545" fill="#312E81"/>
      <rect x="66.455" y="45.182" width="0.545" height="0.545" fill="#312E81"/>
      <rect x="67.545" y="45.182" width="0.545" height="0.545" fill="#312E81"/>
      <rect x="69.182" y="45.182" width="0.545" height="0.545" fill="#312E81"/>
      <rect x="71.364" y="45.182" width="0.545" height="0.545" fill="#312E81"/>
      <rect x="74.091" y="45.182" width="0.545" height="0.545" fill="#312E81"/>
      <rect x="76.273" y="45.182" width="0.545" height="0.545" fill="#312E81"/>
      <rect x="63.182" y="45.727" width="0.545" height="0.545" fill="#312E81"/>
      <rect x="66.455" y="45.727" width="0.545" height="0.545" fill="#312E81"/>
      <rect x="67.545" y="45.727" width="0.545" height="0.545" fill="#312E81"/>
      <rect x="68.091" y="45.727" width="0.545" height="0.545" fill="#312E81"/>
      <rect x="68.636" y="45.727" width="0.545" height="0.545" fill="#312E81"/>
      <rect x="69.182" y="45.727" width="0.545" height="0.545" fill="#312E81"/>
      <rect x="69.727" y="45.727" width="0.545" height="0.545" fill="#312E81"/>
      <rect x="71.364" y="45.727" width="0.545" height="0.545" fill="#312E81"/>
      <rect x="71.909" y="45.727" width="0.545" height="0.545" fill="#312E81"/>
      <rect x="73.000" y="45.727" width="0.545" height="0.545" fill="#312E81"/>
      <rect x="74.091" y="45.727" width="0.545" height="0.545" fill="#312E81"/>
      <rect x="74.636" y="45.727" width="0.545" height="0.545" fill="#312E81"/>
      <rect x="75.727" y="45.727" width="0.545" height="0.545" fill="#312E81"/>
      <rect x="63.182" y="46.273" width="0.545" height="0.545" fill="#312E81"/>
      <rect x="63.727" y="46.273" width="0.545" height="0.545" fill="#312E81"/>
      <rect x="64.273" y="46.273" width="0.545" height="0.545" fill="#312E81"/>
      <rect x="64.818" y="46.273" width="0.545" height="0.545" fill="#312E81"/>
      <rect x="65.364" y="46.273" width="0.545" height="0.545" fill="#312E81"/>
      <rect x="65.909" y="46.273" width="0.545" height="0.545" fill="#312E81"/>
      <rect x="66.455" y="46.273" width="0.545" height="0.545" fill="#312E81"/>
      <rect x="71.364" y="46.273" width="0.545" height="0.545" fill="#312E81"/>
      <rect x="71.909" y="46.273" width="0.545" height="0.545" fill="#312E81"/>
      <rect x="73.000" y="46.273" width="0.545" height="0.545" fill="#312E81"/>
      <rect x="73.545" y="46.273" width="0.545" height="0.545" fill="#312E81"/>
      <rect x="75.727" y="46.273" width="0.545" height="0.545" fill="#312E81"/>
      <rect x="76.273" y="46.273" width="0.545" height="0.545" fill="#312E81"/>
  </g>
</svg>
