<svg xmlns="http://www.w3.org/2000/svg" width="841mm" height="1189mm" viewBox="0 0 841 1189" role="img" aria-label="IndLokal - your Indian community, locally">
  <title>IndLokal - Event banner</title>
  <defs>
    <linearGradient id="a0bg" x1="0" y1="0" x2="0.35" y2="1">
      <stop offset="0%" stop-color="#312E81"/>
      <stop offset="100%" stop-color="#4F46E5"/>
    </linearGradient>
  </defs>
  <rect width="841" height="1189" fill="url(#a0bg)"/>
  <polyline points="540.0,295.0 600.0,295.0 627.0,250.0 654.0,340.0 681.0,295.0 750.0,295.0" fill="none" stroke="#F59E0B" stroke-width="4" stroke-linecap="round" stroke-linejoin="round" opacity="0.13"/>
  <polyline points="120.0,283.0 164.0,283.0 183.8,250.0 203.60000000000002,316.0 223.4,283.0 274.0,283.0" fill="none" stroke="#FCD34D" stroke-width="3.5" stroke-linecap="round" stroke-linejoin="round" opacity="0.09"/>

  <g transform="translate(120.5,110)">
    <rect width="150" height="150" rx="32.8125" fill="#FAFAF9"/>
    <g fill="none" stroke-width="11.71875" stroke-linecap="round" stroke-linejoin="round">
      <polyline points="23.4375,87.890625 58.59375,87.890625 75.0,39.84375" stroke="#312E81"/>
      <polyline points="75.0,39.84375 91.40625,87.890625 126.5625,87.890625" stroke="#F59E0B"/>
    </g>
  </g>
  <text x="290.5" y="233" text-anchor="start" font-family="Inter, 'Helvetica Neue', Arial, sans-serif" font-weight="700" font-size="132" letter-spacing="-4" fill="#FAFAF9" opacity="1.0">IndLokal</text>
  <text x="420.5" y="332" text-anchor="middle" font-family="Inter, 'Helvetica Neue', Arial, sans-serif" font-weight="600" font-size="22" letter-spacing="4" fill="#FCD34D" opacity="1.0" text-transform="uppercase">INDIAN LIFE IN GERMANY</text>
  <text x="420.5" y="452" text-anchor="middle" font-family="Inter, 'Helvetica Neue', Arial, sans-serif" font-weight="700" font-size="74" letter-spacing="-3" fill="#FAFAF9" opacity="1.0">Your Indian community,</text>
  <text x="420.5" y="540" text-anchor="middle" font-family="Inter, 'Helvetica Neue', Arial, sans-serif" font-weight="700" font-size="74" letter-spacing="-3" fill="#FCD34D" opacity="1.0">locally.</text>
  <text x="420.5" y="606" text-anchor="middle" font-family="Inter, 'Helvetica Neue', Arial, sans-serif" font-weight="500" font-size="24" letter-spacing="-0.2" fill="#FAFAF9" opacity="0.9">Communities · Events · Resources — active near you in Germany.</text>
  <rect x="229.5" y="642" width="382" height="382" rx="28" fill="#FAFAF9"/>

  <g>
    <rect x="255.5" y="668" width="330" height="330" fill="#FFFFFF"/>
      <rect x="295.500" y="708.000" width="10.000" height="10.000" fill="#312E81"/>
      <rect x="305.500" y="708.000" width="10.000" height="10.000" fill="#312E81"/>
      <rect x="315.500" y="708.000" width="10.000" height="10.000" fill="#312E81"/>
      <rect x="325.500" y="708.000" width="10.000" height="10.000" fill="#312E81"/>
      <rect x="335.500" y="708.000" width="10.000" height="10.000" fill="#312E81"/>
      <rect x="345.500" y="708.000" width="10.000" height="10.000" fill="#312E81"/>
      <rect x="355.500" y="708.000" width="10.000" height="10.000" fill="#312E81"/>
      <rect x="375.500" y="708.000" width="10.000" height="10.000" fill="#312E81"/>
      <rect x="385.500" y="708.000" width="10.000" height="10.000" fill="#312E81"/>
      <rect x="405.500" y="708.000" width="10.000" height="10.000" fill="#312E81"/>
      <rect x="415.500" y="708.000" width="10.000" height="10.000" fill="#312E81"/>
      <rect x="435.500" y="708.000" width="10.000" height="10.000" fill="#312E81"/>
      <rect x="445.500" y="708.000" width="10.000" height="10.000" fill="#312E81"/>
      <rect x="475.500" y="708.000" width="10.000" height="10.000" fill="#312E81"/>
      <rect x="485.500" y="708.000" width="10.000" height="10.000" fill="#312E81"/>
      <rect x="495.500" y="708.000" width="10.000" height="10.000" fill="#312E81"/>
      <rect x="505.500" y="708.000" width="10.000" height="10.000" fill="#312E81"/>
      <rect x="515.500" y="708.000" width="10.000" height="10.000" fill="#312E81"/>
      <rect x="525.500" y="708.000" width="10.000" height="10.000" fill="#312E81"/>
      <rect x="535.500" y="708.000" width="10.000" height="10.000" fill="#312E81"/>
      <rect x="295.500" y="718.000" width="10.000" height="10.000" fill="#312E81"/>
      <rect x="355.500" y="718.000" width="10.000" height="10.000" fill="#312E81"/>
      <rect x="375.500" y="718.000" width="10.000" height="10.000" fill="#312E81"/>
      <rect x="385.500" y="718.000" width="10.000" height="10.000" fill="#312E81"/>
      <rect x="415.500" y="718.000" width="10.000" height="10.000" fill="#312E81"/>
      <rect x="445.500" y="718.000" width="10.000" height="10.000" fill="#312E81"/>
      <rect x="475.500" y="718.000" width="10.000" height="10.000" fill="#312E81"/>
      <rect x="535.500" y="718.000" width="10.000" height="10.000" fill="#312E81"/>
      <rect x="295.500" y="728.000" width="10.000" height="10.000" fill="#312E81"/>
      <rect x="315.500" y="728.000" width="10.000" height="10.000" fill="#312E81"/>
      <rect x="325.500" y="728.000" width="10.000" height="10.000" fill="#312E81"/>
      <rect x="335.500" y="728.000" width="10.000" height="10.000" fill="#312E81"/>
      <rect x="355.500" y="728.000" width="10.000" height="10.000" fill="#312E81"/>
      <rect x="375.500" y="728.000" width="10.000" height="10.000" fill="#312E81"/>
      <rect x="385.500" y="728.000" width="10.000" height="10.000" fill="#312E81"/>
      <rect x="405.500" y="728.000" width="10.000" height="10.000" fill="#312E81"/>
      <rect x="415.500" y="728.000" width="10.000" height="10.000" fill="#312E81"/>
      <rect x="445.500" y="728.000" width="10.000" height="10.000" fill="#312E81"/>
      <rect x="475.500" y="728.000" width="10.000" height="10.000" fill="#312E81"/>
      <rect x="495.500" y="728.000" width="10.000" height="10.000" fill="#312E81"/>
      <rect x="505.500" y="728.000" width="10.000" height="10.000" fill="#312E81"/>
      <rect x="515.500" y="728.000" width="10.000" height="10.000" fill="#312E81"/>
      <rect x="535.500" y="728.000" width="10.000" height="10.000" fill="#312E81"/>
      <rect x="295.500" y="738.000" width="10.000" height="10.000" fill="#312E81"/>
      <rect x="315.500" y="738.000" width="10.000" height="10.000" fill="#312E81"/>
      <rect x="325.500" y="738.000" width="10.000" height="10.000" fill="#312E81"/>
      <rect x="335.500" y="738.000" width="10.000" height="10.000" fill="#312E81"/>
      <rect x="355.500" y="738.000" width="10.000" height="10.000" fill="#312E81"/>
      <rect x="375.500" y="738.000" width="10.000" height="10.000" fill="#312E81"/>
      <rect x="405.500" y="738.000" width="10.000" height="10.000" fill="#312E81"/>
      <rect x="435.500" y="738.000" width="10.000" height="10.000" fill="#312E81"/>
      <rect x="475.500" y="738.000" width="10.000" height="10.000" fill="#312E81"/>
      <rect x="495.500" y="738.000" width="10.000" height="10.000" fill="#312E81"/>
      <rect x="505.500" y="738.000" width="10.000" height="10.000" fill="#312E81"/>
      <rect x="515.500" y="738.000" width="10.000" height="10.000" fill="#312E81"/>
      <rect x="535.500" y="738.000" width="10.000" height="10.000" fill="#312E81"/>
      <rect x="295.500" y="748.000" width="10.000" height="10.000" fill="#312E81"/>
      <rect x="315.500" y="748.000" width="10.000" height="10.000" fill="#312E81"/>
      <rect x="325.500" y="748.000" width="10.000" height="10.000" fill="#312E81"/>
      <rect x="335.500" y="748.000" width="10.000" height="10.000" fill="#312E81"/>
      <rect x="355.500" y="748.000" width="10.000" height="10.000" fill="#312E81"/>
      <rect x="375.500" y="748.000" width="10.000" height="10.000" fill="#312E81"/>
      <rect x="385.500" y="748.000" width="10.000" height="10.000" fill="#312E81"/>
      <rect x="395.500" y="748.000" width="10.000" height="10.000" fill="#312E81"/>
      <rect x="415.500" y="748.000" width="10.000" height="10.000" fill="#312E81"/>
      <rect x="425.500" y="748.000" width="10.000" height="10.000" fill="#312E81"/>
      <rect x="435.500" y="748.000" width="10.000" height="10.000" fill="#312E81"/>
      <rect x="445.500" y="748.000" width="10.000" height="10.000" fill="#312E81"/>
      <rect x="455.500" y="748.000" width="10.000" height="10.000" fill="#312E81"/>
      <rect x="475.500" y="748.000" width="10.000" height="10.000" fill="#312E81"/>
      <rect x="495.500" y="748.000" width="10.000" height="10.000" fill="#312E81"/>
      <rect x="505.500" y="748.000" width="10.000" height="10.000" fill="#312E81"/>
      <rect x="515.500" y="748.000" width="10.000" height="10.000" fill="#312E81"/>
      <rect x="535.500" y="748.000" width="10.000" height="10.000" fill="#312E81"/>
      <rect x="295.500" y="758.000" width="10.000" height="10.000" fill="#312E81"/>
      <rect x="355.500" y="758.000" width="10.000" height="10.000" fill="#312E81"/>
      <rect x="385.500" y="758.000" width="10.000" height="10.000" fill="#312E81"/>
      <rect x="405.500" y="758.000" width="10.000" height="10.000" fill="#312E81"/>
      <rect x="415.500" y="758.000" width="10.000" height="10.000" fill="#312E81"/>
      <rect x="435.500" y="758.000" width="10.000" height="10.000" fill="#312E81"/>
      <rect x="445.500" y="758.000" width="10.000" height="10.000" fill="#312E81"/>
      <rect x="475.500" y="758.000" width="10.000" height="10.000" fill="#312E81"/>
      <rect x="535.500" y="758.000" width="10.000" height="10.000" fill="#312E81"/>
      <rect x="295.500" y="768.000" width="10.000" height="10.000" fill="#312E81"/>
      <rect x="305.500" y="768.000" width="10.000" height="10.000" fill="#312E81"/>
      <rect x="315.500" y="768.000" width="10.000" height="10.000" fill="#312E81"/>
      <rect x="325.500" y="768.000" width="10.000" height="10.000" fill="#312E81"/>
      <rect x="335.500" y="768.000" width="10.000" height="10.000" fill="#312E81"/>
      <rect x="345.500" y="768.000" width="10.000" height="10.000" fill="#312E81"/>
      <rect x="355.500" y="768.000" width="10.000" height="10.000" fill="#312E81"/>
      <rect x="375.500" y="768.000" width="10.000" height="10.000" fill="#312E81"/>
      <rect x="395.500" y="768.000" width="10.000" height="10.000" fill="#312E81"/>
      <rect x="415.500" y="768.000" width="10.000" height="10.000" fill="#312E81"/>
      <rect x="435.500" y="768.000" width="10.000" height="10.000" fill="#312E81"/>
      <rect x="455.500" y="768.000" width="10.000" height="10.000" fill="#312E81"/>
      <rect x="475.500" y="768.000" width="10.000" height="10.000" fill="#312E81"/>
      <rect x="485.500" y="768.000" width="10.000" height="10.000" fill="#312E81"/>
      <rect x="495.500" y="768.000" width="10.000" height="10.000" fill="#312E81"/>
      <rect x="505.500" y="768.000" width="10.000" height="10.000" fill="#312E81"/>
      <rect x="515.500" y="768.000" width="10.000" height="10.000" fill="#312E81"/>
      <rect x="525.500" y="768.000" width="10.000" height="10.000" fill="#312E81"/>
      <rect x="535.500" y="768.000" width="10.000" height="10.000" fill="#312E81"/>
      <rect x="375.500" y="778.000" width="10.000" height="10.000" fill="#312E81"/>
      <rect x="405.500" y="778.000" width="10.000" height="10.000" fill="#312E81"/>
      <rect x="415.500" y="778.000" width="10.000" height="10.000" fill="#312E81"/>
      <rect x="425.500" y="778.000" width="10.000" height="10.000" fill="#312E81"/>
      <rect x="435.500" y="778.000" width="10.000" height="10.000" fill="#312E81"/>
      <rect x="445.500" y="778.000" width="10.000" height="10.000" fill="#312E81"/>
      <rect x="455.500" y="778.000" width="10.000" height="10.000" fill="#312E81"/>
      <rect x="305.500" y="788.000" width="10.000" height="10.000" fill="#312E81"/>
      <rect x="315.500" y="788.000" width="10.000" height="10.000" fill="#312E81"/>
      <rect x="335.500" y="788.000" width="10.000" height="10.000" fill="#312E81"/>
      <rect x="355.500" y="788.000" width="10.000" height="10.000" fill="#312E81"/>
      <rect x="365.500" y="788.000" width="10.000" height="10.000" fill="#312E81"/>
      <rect x="385.500" y="788.000" width="10.000" height="10.000" fill="#312E81"/>
      <rect x="415.500" y="788.000" width="10.000" height="10.000" fill="#312E81"/>
      <rect x="425.500" y="788.000" width="10.000" height="10.000" fill="#312E81"/>
      <rect x="445.500" y="788.000" width="10.000" height="10.000" fill="#312E81"/>
      <rect x="455.500" y="788.000" width="10.000" height="10.000" fill="#312E81"/>
      <rect x="475.500" y="788.000" width="10.000" height="10.000" fill="#312E81"/>
      <rect x="495.500" y="788.000" width="10.000" height="10.000" fill="#312E81"/>
      <rect x="505.500" y="788.000" width="10.000" height="10.000" fill="#312E81"/>
      <rect x="515.500" y="788.000" width="10.000" height="10.000" fill="#312E81"/>
      <rect x="525.500" y="788.000" width="10.000" height="10.000" fill="#312E81"/>
      <rect x="535.500" y="788.000" width="10.000" height="10.000" fill="#312E81"/>
      <rect x="295.500" y="798.000" width="10.000" height="10.000" fill="#312E81"/>
      <rect x="325.500" y="798.000" width="10.000" height="10.000" fill="#312E81"/>
      <rect x="335.500" y="798.000" width="10.000" height="10.000" fill="#312E81"/>
      <rect x="345.500" y="798.000" width="10.000" height="10.000" fill="#312E81"/>
      <rect x="365.500" y="798.000" width="10.000" height="10.000" fill="#312E81"/>
      <rect x="385.500" y="798.000" width="10.000" height="10.000" fill="#312E81"/>
      <rect x="405.500" y="798.000" width="10.000" height="10.000" fill="#312E81"/>
      <rect x="415.500" y="798.000" width="10.000" height="10.000" fill="#312E81"/>
      <rect x="455.500" y="798.000" width="10.000" height="10.000" fill="#312E81"/>
      <rect x="465.500" y="798.000" width="10.000" height="10.000" fill="#312E81"/>
      <rect x="475.500" y="798.000" width="10.000" height="10.000" fill="#312E81"/>
      <rect x="535.500" y="798.000" width="10.000" height="10.000" fill="#312E81"/>
      <rect x="295.500" y="808.000" width="10.000" height="10.000" fill="#312E81"/>
      <rect x="305.500" y="808.000" width="10.000" height="10.000" fill="#312E81"/>
      <rect x="315.500" y="808.000" width="10.000" height="10.000" fill="#312E81"/>
      <rect x="335.500" y="808.000" width="10.000" height="10.000" fill="#312E81"/>
      <rect x="345.500" y="808.000" width="10.000" height="10.000" fill="#312E81"/>
      <rect x="355.500" y="808.000" width="10.000" height="10.000" fill="#312E81"/>
      <rect x="365.500" y="808.000" width="10.000" height="10.000" fill="#312E81"/>
      <rect x="385.500" y="808.000" width="10.000" height="10.000" fill="#312E81"/>
      <rect x="405.500" y="808.000" width="10.000" height="10.000" fill="#312E81"/>
      <rect x="465.500" y="808.000" width="10.000" height="10.000" fill="#312E81"/>
      <rect x="485.500" y="808.000" width="10.000" height="10.000" fill="#312E81"/>
      <rect x="495.500" y="808.000" width="10.000" height="10.000" fill="#312E81"/>
      <rect x="515.500" y="808.000" width="10.000" height="10.000" fill="#312E81"/>
      <rect x="525.500" y="808.000" width="10.000" height="10.000" fill="#312E81"/>
      <rect x="535.500" y="808.000" width="10.000" height="10.000" fill="#312E81"/>
      <rect x="305.500" y="818.000" width="10.000" height="10.000" fill="#312E81"/>
      <rect x="365.500" y="818.000" width="10.000" height="10.000" fill="#312E81"/>
      <rect x="375.500" y="818.000" width="10.000" height="10.000" fill="#312E81"/>
      <rect x="395.500" y="818.000" width="10.000" height="10.000" fill="#312E81"/>
      <rect x="415.500" y="818.000" width="10.000" height="10.000" fill="#312E81"/>
      <rect x="425.500" y="818.000" width="10.000" height="10.000" fill="#312E81"/>
      <rect x="435.500" y="818.000" width="10.000" height="10.000" fill="#312E81"/>
      <rect x="445.500" y="818.000" width="10.000" height="10.000" fill="#312E81"/>
      <rect x="465.500" y="818.000" width="10.000" height="10.000" fill="#312E81"/>
      <rect x="475.500" y="818.000" width="10.000" height="10.000" fill="#312E81"/>
      <rect x="485.500" y="818.000" width="10.000" height="10.000" fill="#312E81"/>
      <rect x="495.500" y="818.000" width="10.000" height="10.000" fill="#312E81"/>
      <rect x="525.500" y="818.000" width="10.000" height="10.000" fill="#312E81"/>
      <rect x="315.500" y="828.000" width="10.000" height="10.000" fill="#312E81"/>
      <rect x="325.500" y="828.000" width="10.000" height="10.000" fill="#312E81"/>
      <rect x="335.500" y="828.000" width="10.000" height="10.000" fill="#312E81"/>
      <rect x="355.500" y="828.000" width="10.000" height="10.000" fill="#312E81"/>
      <rect x="365.500" y="828.000" width="10.000" height="10.000" fill="#312E81"/>
      <rect x="415.500" y="828.000" width="10.000" height="10.000" fill="#312E81"/>
      <rect x="435.500" y="828.000" width="10.000" height="10.000" fill="#312E81"/>
      <rect x="455.500" y="828.000" width="10.000" height="10.000" fill="#312E81"/>
      <rect x="465.500" y="828.000" width="10.000" height="10.000" fill="#312E81"/>
      <rect x="475.500" y="828.000" width="10.000" height="10.000" fill="#312E81"/>
      <rect x="505.500" y="828.000" width="10.000" height="10.000" fill="#312E81"/>
      <rect x="525.500" y="828.000" width="10.000" height="10.000" fill="#312E81"/>
      <rect x="535.500" y="828.000" width="10.000" height="10.000" fill="#312E81"/>
      <rect x="305.500" y="838.000" width="10.000" height="10.000" fill="#312E81"/>
      <rect x="315.500" y="838.000" width="10.000" height="10.000" fill="#312E81"/>
      <rect x="325.500" y="838.000" width="10.000" height="10.000" fill="#312E81"/>
      <rect x="335.500" y="838.000" width="10.000" height="10.000" fill="#312E81"/>
      <rect x="345.500" y="838.000" width="10.000" height="10.000" fill="#312E81"/>
      <rect x="365.500" y="838.000" width="10.000" height="10.000" fill="#312E81"/>
      <rect x="385.500" y="838.000" width="10.000" height="10.000" fill="#312E81"/>
      <rect x="415.500" y="838.000" width="10.000" height="10.000" fill="#312E81"/>
      <rect x="425.500" y="838.000" width="10.000" height="10.000" fill="#312E81"/>
      <rect x="455.500" y="838.000" width="10.000" height="10.000" fill="#312E81"/>
      <rect x="465.500" y="838.000" width="10.000" height="10.000" fill="#312E81"/>
      <rect x="475.500" y="838.000" width="10.000" height="10.000" fill="#312E81"/>
      <rect x="505.500" y="838.000" width="10.000" height="10.000" fill="#312E81"/>
      <rect x="535.500" y="838.000" width="10.000" height="10.000" fill="#312E81"/>
      <rect x="295.500" y="848.000" width="10.000" height="10.000" fill="#312E81"/>
      <rect x="315.500" y="848.000" width="10.000" height="10.000" fill="#312E81"/>
      <rect x="325.500" y="848.000" width="10.000" height="10.000" fill="#312E81"/>
      <rect x="355.500" y="848.000" width="10.000" height="10.000" fill="#312E81"/>
      <rect x="365.500" y="848.000" width="10.000" height="10.000" fill="#312E81"/>
      <rect x="375.500" y="848.000" width="10.000" height="10.000" fill="#312E81"/>
      <rect x="385.500" y="848.000" width="10.000" height="10.000" fill="#312E81"/>
      <rect x="395.500" y="848.000" width="10.000" height="10.000" fill="#312E81"/>
      <rect x="405.500" y="848.000" width="10.000" height="10.000" fill="#312E81"/>
      <rect x="425.500" y="848.000" width="10.000" height="10.000" fill="#312E81"/>
      <rect x="465.500" y="848.000" width="10.000" height="10.000" fill="#312E81"/>
      <rect x="475.500" y="848.000" width="10.000" height="10.000" fill="#312E81"/>
      <rect x="485.500" y="848.000" width="10.000" height="10.000" fill="#312E81"/>
      <rect x="515.500" y="848.000" width="10.000" height="10.000" fill="#312E81"/>
      <rect x="525.500" y="848.000" width="10.000" height="10.000" fill="#312E81"/>
      <rect x="535.500" y="848.000" width="10.000" height="10.000" fill="#312E81"/>
      <rect x="305.500" y="858.000" width="10.000" height="10.000" fill="#312E81"/>
      <rect x="325.500" y="858.000" width="10.000" height="10.000" fill="#312E81"/>
      <rect x="335.500" y="858.000" width="10.000" height="10.000" fill="#312E81"/>
      <rect x="345.500" y="858.000" width="10.000" height="10.000" fill="#312E81"/>
      <rect x="365.500" y="858.000" width="10.000" height="10.000" fill="#312E81"/>
      <rect x="385.500" y="858.000" width="10.000" height="10.000" fill="#312E81"/>
      <rect x="405.500" y="858.000" width="10.000" height="10.000" fill="#312E81"/>
      <rect x="425.500" y="858.000" width="10.000" height="10.000" fill="#312E81"/>
      <rect x="465.500" y="858.000" width="10.000" height="10.000" fill="#312E81"/>
      <rect x="495.500" y="858.000" width="10.000" height="10.000" fill="#312E81"/>
      <rect x="525.500" y="858.000" width="10.000" height="10.000" fill="#312E81"/>
      <rect x="295.500" y="868.000" width="10.000" height="10.000" fill="#312E81"/>
      <rect x="315.500" y="868.000" width="10.000" height="10.000" fill="#312E81"/>
      <rect x="335.500" y="868.000" width="10.000" height="10.000" fill="#312E81"/>
      <rect x="345.500" y="868.000" width="10.000" height="10.000" fill="#312E81"/>
      <rect x="355.500" y="868.000" width="10.000" height="10.000" fill="#312E81"/>
      <rect x="375.500" y="868.000" width="10.000" height="10.000" fill="#312E81"/>
      <rect x="395.500" y="868.000" width="10.000" height="10.000" fill="#312E81"/>
      <rect x="405.500" y="868.000" width="10.000" height="10.000" fill="#312E81"/>
      <rect x="415.500" y="868.000" width="10.000" height="10.000" fill="#312E81"/>
      <rect x="425.500" y="868.000" width="10.000" height="10.000" fill="#312E81"/>
      <rect x="435.500" y="868.000" width="10.000" height="10.000" fill="#312E81"/>
      <rect x="445.500" y="868.000" width="10.000" height="10.000" fill="#312E81"/>
      <rect x="455.500" y="868.000" width="10.000" height="10.000" fill="#312E81"/>
      <rect x="465.500" y="868.000" width="10.000" height="10.000" fill="#312E81"/>
      <rect x="475.500" y="868.000" width="10.000" height="10.000" fill="#312E81"/>
      <rect x="485.500" y="868.000" width="10.000" height="10.000" fill="#312E81"/>
      <rect x="495.500" y="868.000" width="10.000" height="10.000" fill="#312E81"/>
      <rect x="505.500" y="868.000" width="10.000" height="10.000" fill="#312E81"/>
      <rect x="375.500" y="878.000" width="10.000" height="10.000" fill="#312E81"/>
      <rect x="385.500" y="878.000" width="10.000" height="10.000" fill="#312E81"/>
      <rect x="405.500" y="878.000" width="10.000" height="10.000" fill="#312E81"/>
      <rect x="435.500" y="878.000" width="10.000" height="10.000" fill="#312E81"/>
      <rect x="445.500" y="878.000" width="10.000" height="10.000" fill="#312E81"/>
      <rect x="455.500" y="878.000" width="10.000" height="10.000" fill="#312E81"/>
      <rect x="495.500" y="878.000" width="10.000" height="10.000" fill="#312E81"/>
      <rect x="505.500" y="878.000" width="10.000" height="10.000" fill="#312E81"/>
      <rect x="525.500" y="878.000" width="10.000" height="10.000" fill="#312E81"/>
      <rect x="535.500" y="878.000" width="10.000" height="10.000" fill="#312E81"/>
      <rect x="295.500" y="888.000" width="10.000" height="10.000" fill="#312E81"/>
      <rect x="305.500" y="888.000" width="10.000" height="10.000" fill="#312E81"/>
      <rect x="315.500" y="888.000" width="10.000" height="10.000" fill="#312E81"/>
      <rect x="325.500" y="888.000" width="10.000" height="10.000" fill="#312E81"/>
      <rect x="335.500" y="888.000" width="10.000" height="10.000" fill="#312E81"/>
      <rect x="345.500" y="888.000" width="10.000" height="10.000" fill="#312E81"/>
      <rect x="355.500" y="888.000" width="10.000" height="10.000" fill="#312E81"/>
      <rect x="375.500" y="888.000" width="10.000" height="10.000" fill="#312E81"/>
      <rect x="385.500" y="888.000" width="10.000" height="10.000" fill="#312E81"/>
      <rect x="415.500" y="888.000" width="10.000" height="10.000" fill="#312E81"/>
      <rect x="445.500" y="888.000" width="10.000" height="10.000" fill="#312E81"/>
      <rect x="455.500" y="888.000" width="10.000" height="10.000" fill="#312E81"/>
      <rect x="475.500" y="888.000" width="10.000" height="10.000" fill="#312E81"/>
      <rect x="495.500" y="888.000" width="10.000" height="10.000" fill="#312E81"/>
      <rect x="505.500" y="888.000" width="10.000" height="10.000" fill="#312E81"/>
      <rect x="525.500" y="888.000" width="10.000" height="10.000" fill="#312E81"/>
      <rect x="535.500" y="888.000" width="10.000" height="10.000" fill="#312E81"/>
      <rect x="295.500" y="898.000" width="10.000" height="10.000" fill="#312E81"/>
      <rect x="355.500" y="898.000" width="10.000" height="10.000" fill="#312E81"/>
      <rect x="385.500" y="898.000" width="10.000" height="10.000" fill="#312E81"/>
      <rect x="395.500" y="898.000" width="10.000" height="10.000" fill="#312E81"/>
      <rect x="415.500" y="898.000" width="10.000" height="10.000" fill="#312E81"/>
      <rect x="455.500" y="898.000" width="10.000" height="10.000" fill="#312E81"/>
      <rect x="495.500" y="898.000" width="10.000" height="10.000" fill="#312E81"/>
      <rect x="505.500" y="898.000" width="10.000" height="10.000" fill="#312E81"/>
      <rect x="525.500" y="898.000" width="10.000" height="10.000" fill="#312E81"/>
      <rect x="295.500" y="908.000" width="10.000" height="10.000" fill="#312E81"/>
      <rect x="315.500" y="908.000" width="10.000" height="10.000" fill="#312E81"/>
      <rect x="325.500" y="908.000" width="10.000" height="10.000" fill="#312E81"/>
      <rect x="335.500" y="908.000" width="10.000" height="10.000" fill="#312E81"/>
      <rect x="355.500" y="908.000" width="10.000" height="10.000" fill="#312E81"/>
      <rect x="375.500" y="908.000" width="10.000" height="10.000" fill="#312E81"/>
      <rect x="395.500" y="908.000" width="10.000" height="10.000" fill="#312E81"/>
      <rect x="435.500" y="908.000" width="10.000" height="10.000" fill="#312E81"/>
      <rect x="455.500" y="908.000" width="10.000" height="10.000" fill="#312E81"/>
      <rect x="465.500" y="908.000" width="10.000" height="10.000" fill="#312E81"/>
      <rect x="475.500" y="908.000" width="10.000" height="10.000" fill="#312E81"/>
      <rect x="485.500" y="908.000" width="10.000" height="10.000" fill="#312E81"/>
      <rect x="495.500" y="908.000" width="10.000" height="10.000" fill="#312E81"/>
      <rect x="505.500" y="908.000" width="10.000" height="10.000" fill="#312E81"/>
      <rect x="525.500" y="908.000" width="10.000" height="10.000" fill="#312E81"/>
      <rect x="535.500" y="908.000" width="10.000" height="10.000" fill="#312E81"/>
      <rect x="295.500" y="918.000" width="10.000" height="10.000" fill="#312E81"/>
      <rect x="315.500" y="918.000" width="10.000" height="10.000" fill="#312E81"/>
      <rect x="325.500" y="918.000" width="10.000" height="10.000" fill="#312E81"/>
      <rect x="335.500" y="918.000" width="10.000" height="10.000" fill="#312E81"/>
      <rect x="355.500" y="918.000" width="10.000" height="10.000" fill="#312E81"/>
      <rect x="415.500" y="918.000" width="10.000" height="10.000" fill="#312E81"/>
      <rect x="425.500" y="918.000" width="10.000" height="10.000" fill="#312E81"/>
      <rect x="435.500" y="918.000" width="10.000" height="10.000" fill="#312E81"/>
      <rect x="455.500" y="918.000" width="10.000" height="10.000" fill="#312E81"/>
      <rect x="485.500" y="918.000" width="10.000" height="10.000" fill="#312E81"/>
      <rect x="495.500" y="918.000" width="10.000" height="10.000" fill="#312E81"/>
      <rect x="505.500" y="918.000" width="10.000" height="10.000" fill="#312E81"/>
      <rect x="515.500" y="918.000" width="10.000" height="10.000" fill="#312E81"/>
      <rect x="295.500" y="928.000" width="10.000" height="10.000" fill="#312E81"/>
      <rect x="315.500" y="928.000" width="10.000" height="10.000" fill="#312E81"/>
      <rect x="325.500" y="928.000" width="10.000" height="10.000" fill="#312E81"/>
      <rect x="335.500" y="928.000" width="10.000" height="10.000" fill="#312E81"/>
      <rect x="355.500" y="928.000" width="10.000" height="10.000" fill="#312E81"/>
      <rect x="375.500" y="928.000" width="10.000" height="10.000" fill="#312E81"/>
      <rect x="405.500" y="928.000" width="10.000" height="10.000" fill="#312E81"/>
      <rect x="445.500" y="928.000" width="10.000" height="10.000" fill="#312E81"/>
      <rect x="495.500" y="928.000" width="10.000" height="10.000" fill="#312E81"/>
      <rect x="535.500" y="928.000" width="10.000" height="10.000" fill="#312E81"/>
      <rect x="295.500" y="938.000" width="10.000" height="10.000" fill="#312E81"/>
      <rect x="355.500" y="938.000" width="10.000" height="10.000" fill="#312E81"/>
      <rect x="375.500" y="938.000" width="10.000" height="10.000" fill="#312E81"/>
      <rect x="385.500" y="938.000" width="10.000" height="10.000" fill="#312E81"/>
      <rect x="395.500" y="938.000" width="10.000" height="10.000" fill="#312E81"/>
      <rect x="405.500" y="938.000" width="10.000" height="10.000" fill="#312E81"/>
      <rect x="415.500" y="938.000" width="10.000" height="10.000" fill="#312E81"/>
      <rect x="445.500" y="938.000" width="10.000" height="10.000" fill="#312E81"/>
      <rect x="455.500" y="938.000" width="10.000" height="10.000" fill="#312E81"/>
      <rect x="475.500" y="938.000" width="10.000" height="10.000" fill="#312E81"/>
      <rect x="495.500" y="938.000" width="10.000" height="10.000" fill="#312E81"/>
      <rect x="505.500" y="938.000" width="10.000" height="10.000" fill="#312E81"/>
      <rect x="525.500" y="938.000" width="10.000" height="10.000" fill="#312E81"/>
      <rect x="295.500" y="948.000" width="10.000" height="10.000" fill="#312E81"/>
      <rect x="305.500" y="948.000" width="10.000" height="10.000" fill="#312E81"/>
      <rect x="315.500" y="948.000" width="10.000" height="10.000" fill="#312E81"/>
      <rect x="325.500" y="948.000" width="10.000" height="10.000" fill="#312E81"/>
      <rect x="335.500" y="948.000" width="10.000" height="10.000" fill="#312E81"/>
      <rect x="345.500" y="948.000" width="10.000" height="10.000" fill="#312E81"/>
      <rect x="355.500" y="948.000" width="10.000" height="10.000" fill="#312E81"/>
      <rect x="445.500" y="948.000" width="10.000" height="10.000" fill="#312E81"/>
      <rect x="455.500" y="948.000" width="10.000" height="10.000" fill="#312E81"/>
      <rect x="475.500" y="948.000" width="10.000" height="10.000" fill="#312E81"/>
      <rect x="485.500" y="948.000" width="10.000" height="10.000" fill="#312E81"/>
      <rect x="525.500" y="948.000" width="10.000" height="10.000" fill="#312E81"/>
      <rect x="535.500" y="948.000" width="10.000" height="10.000" fill="#312E81"/>
  </g>
  <text x="420.5" y="1078" text-anchor="middle" font-family="Inter, 'Helvetica Neue', Arial, sans-serif" font-weight="700" font-size="52" letter-spacing="-1.5" fill="#FAFAF9" opacity="1.0">Scan to find your city.</text>
  <text x="420.5" y="1124" text-anchor="middle" font-family="Inter, 'Helvetica Neue', Arial, sans-serif" font-weight="600" font-size="28" letter-spacing="0.4" fill="#FCD34D" opacity="1.0">indlokal.com · @indlokal</text>
  <text x="420.5" y="1171" text-anchor="middle" font-family="Inter, 'Helvetica Neue', Arial, sans-serif" font-weight="400" font-size="15" letter-spacing="0.1" fill="#FAFAF9" opacity="0.5">© 2026 IndLokal. Made with care for the Indian diaspora in Germany.</text>
</svg>
