<svg xmlns="http://www.w3.org/2000/svg" width="148mm" height="210mm" viewBox="0 0 148 210" role="img" aria-label="IndLokal - your Indian community, locally">
  <title>IndLokal - Event flyer</title>
  <defs>
    <linearGradient id="a5bg" x1="0" y1="0" x2="0.35" y2="1">
      <stop offset="0%" stop-color="#312E81"/>
      <stop offset="100%" stop-color="#4F46E5"/>
    </linearGradient>
  </defs>
  <rect width="148" height="210" fill="url(#a5bg)"/>
  <polyline points="98.0,27.0 110.0,27.0 115.4,18.0 120.8,36.0 126.2,27.0 140.0,27.0" fill="none" stroke="#F59E0B" stroke-width="0.9" stroke-linecap="round" stroke-linejoin="round" opacity="0.16"/>

  <g transform="translate(12,12)">
    <rect width="16" height="16" rx="3.5" fill="#FAFAF9"/>
    <g fill="none" stroke-width="1.25" stroke-linecap="round" stroke-linejoin="round">
      <polyline points="2.5,9.375 6.25,9.375 8.0,4.25" stroke="#312E81"/>
      <polyline points="8.0,4.25 9.75,9.375 13.5,9.375" stroke="#F59E0B"/>
    </g>
  </g>
  <text x="34" y="25" text-anchor="start" font-family="Inter, 'Helvetica Neue', Arial, sans-serif" font-weight="700" font-size="14" letter-spacing="-0.6" fill="#FAFAF9" opacity="1.0">IndLokal</text>
  <text x="12" y="41" text-anchor="start" font-family="Inter, 'Helvetica Neue', Arial, sans-serif" font-weight="600" font-size="6" letter-spacing="0.9" fill="#FCD34D" opacity="1.0" text-transform="uppercase">INDIAN LIFE IN GERMANY</text>
  <text x="12" y="48" text-anchor="start" font-family="Inter, 'Helvetica Neue', Arial, sans-serif" font-weight="600" font-size="4.6" letter-spacing="0.6" fill="#FAFAF9" opacity="0.8" text-transform="uppercase">JOURNEYS · EVENTS · RESOURCES</text>
  <text x="12" y="63" text-anchor="start" font-family="Inter, 'Helvetica Neue', Arial, sans-serif" font-weight="700" font-size="12.5" letter-spacing="-0.5" fill="#FAFAF9" opacity="1.0">Move through Germany</text>
  <text x="12" y="78" text-anchor="start" font-family="Inter, 'Helvetica Neue', Arial, sans-serif" font-weight="700" font-size="12.5" letter-spacing="-0.5" fill="#FCD34D" opacity="1.0">with confidence.</text>
  <text x="12" y="93" text-anchor="start" font-family="Inter, 'Helvetica Neue', Arial, sans-serif" font-weight="500" font-size="6.3" letter-spacing="-0.1" fill="#FAFAF9" opacity="0.9">IndLokal helps at every stage:</text>
  <text x="12" y="108" text-anchor="start" font-family="Inter, 'Helvetica Neue', Arial, sans-serif" font-weight="700" font-size="8.8" letter-spacing="-0.2" fill="#FAFAF9" opacity="1.0">Before move</text>
  <text x="12" y="121" text-anchor="start" font-family="Inter, 'Helvetica Neue', Arial, sans-serif" font-weight="700" font-size="8.8" letter-spacing="-0.2" fill="#FAFAF9" opacity="1.0">First 90 days</text>
  <text x="12" y="134" text-anchor="start" font-family="Inter, 'Helvetica Neue', Arial, sans-serif" font-weight="700" font-size="8.8" letter-spacing="-0.2" fill="#FAFAF9" opacity="1.0">Settle and grow</text>
  <text x="12" y="149" text-anchor="start" font-family="Inter, 'Helvetica Neue', Arial, sans-serif" font-weight="500" font-size="6.3" letter-spacing="-0.1" fill="#FAFAF9" opacity="0.88">Find the right people, events,</text>
  <text x="12" y="157" text-anchor="start" font-family="Inter, 'Helvetica Neue', Arial, sans-serif" font-weight="500" font-size="6.3" letter-spacing="-0.1" fill="#FAFAF9" opacity="0.88">and practical resources for your city.</text>
  <rect x="12" y="166" width="124" height="32" rx="6" fill="#FAFAF9"/>

  <g>
    <rect x="109" y="170" width="24" height="24" fill="#FFFFFF"/>
      <rect x="111.909" y="172.909" width="0.727" height="0.727" fill="#312E81"/>
      <rect x="112.636" y="172.909" width="0.727" height="0.727" fill="#312E81"/>
      <rect x="113.364" y="172.909" width="0.727" height="0.727" fill="#312E81"/>
      <rect x="114.091" y="172.909" width="0.727" height="0.727" fill="#312E81"/>
      <rect x="114.818" y="172.909" width="0.727" height="0.727" fill="#312E81"/>
      <rect x="115.545" y="172.909" width="0.727" height="0.727" fill="#312E81"/>
      <rect x="116.273" y="172.909" width="0.727" height="0.727" fill="#312E81"/>
      <rect x="117.727" y="172.909" width="0.727" height="0.727" fill="#312E81"/>
      <rect x="118.455" y="172.909" width="0.727" height="0.727" fill="#312E81"/>
      <rect x="119.909" y="172.909" width="0.727" height="0.727" fill="#312E81"/>
      <rect x="120.636" y="172.909" width="0.727" height="0.727" fill="#312E81"/>
      <rect x="122.091" y="172.909" width="0.727" height="0.727" fill="#312E81"/>
      <rect x="122.818" y="172.909" width="0.727" height="0.727" fill="#312E81"/>
      <rect x="125.000" y="172.909" width="0.727" height="0.727" fill="#312E81"/>
      <rect x="125.727" y="172.909" width="0.727" height="0.727" fill="#312E81"/>
      <rect x="126.455" y="172.909" width="0.727" height="0.727" fill="#312E81"/>
      <rect x="127.182" y="172.909" width="0.727" height="0.727" fill="#312E81"/>
      <rect x="127.909" y="172.909" width="0.727" height="0.727" fill="#312E81"/>
      <rect x="128.636" y="172.909" width="0.727" height="0.727" fill="#312E81"/>
      <rect x="129.364" y="172.909" width="0.727" height="0.727" fill="#312E81"/>
      <rect x="111.909" y="173.636" width="0.727" height="0.727" fill="#312E81"/>
      <rect x="116.273" y="173.636" width="0.727" height="0.727" fill="#312E81"/>
      <rect x="117.727" y="173.636" width="0.727" height="0.727" fill="#312E81"/>
      <rect x="118.455" y="173.636" width="0.727" height="0.727" fill="#312E81"/>
      <rect x="120.636" y="173.636" width="0.727" height="0.727" fill="#312E81"/>
      <rect x="122.818" y="173.636" width="0.727" height="0.727" fill="#312E81"/>
      <rect x="125.000" y="173.636" width="0.727" height="0.727" fill="#312E81"/>
      <rect x="129.364" y="173.636" width="0.727" height="0.727" fill="#312E81"/>
      <rect x="111.909" y="174.364" width="0.727" height="0.727" fill="#312E81"/>
      <rect x="113.364" y="174.364" width="0.727" height="0.727" fill="#312E81"/>
      <rect x="114.091" y="174.364" width="0.727" height="0.727" fill="#312E81"/>
      <rect x="114.818" y="174.364" width="0.727" height="0.727" fill="#312E81"/>
      <rect x="116.273" y="174.364" width="0.727" height="0.727" fill="#312E81"/>
      <rect x="117.727" y="174.364" width="0.727" height="0.727" fill="#312E81"/>
      <rect x="118.455" y="174.364" width="0.727" height="0.727" fill="#312E81"/>
      <rect x="119.909" y="174.364" width="0.727" height="0.727" fill="#312E81"/>
      <rect x="120.636" y="174.364" width="0.727" height="0.727" fill="#312E81"/>
      <rect x="122.818" y="174.364" width="0.727" height="0.727" fill="#312E81"/>
      <rect x="125.000" y="174.364" width="0.727" height="0.727" fill="#312E81"/>
      <rect x="126.455" y="174.364" width="0.727" height="0.727" fill="#312E81"/>
      <rect x="127.182" y="174.364" width="0.727" height="0.727" fill="#312E81"/>
      <rect x="127.909" y="174.364" width="0.727" height="0.727" fill="#312E81"/>
      <rect x="129.364" y="174.364" width="0.727" height="0.727" fill="#312E81"/>
      <rect x="111.909" y="175.091" width="0.727" height="0.727" fill="#312E81"/>
      <rect x="113.364" y="175.091" width="0.727" height="0.727" fill="#312E81"/>
      <rect x="114.091" y="175.091" width="0.727" height="0.727" fill="#312E81"/>
      <rect x="114.818" y="175.091" width="0.727" height="0.727" fill="#312E81"/>
      <rect x="116.273" y="175.091" width="0.727" height="0.727" fill="#312E81"/>
      <rect x="117.727" y="175.091" width="0.727" height="0.727" fill="#312E81"/>
      <rect x="119.909" y="175.091" width="0.727" height="0.727" fill="#312E81"/>
      <rect x="122.091" y="175.091" width="0.727" height="0.727" fill="#312E81"/>
      <rect x="125.000" y="175.091" width="0.727" height="0.727" fill="#312E81"/>
      <rect x="126.455" y="175.091" width="0.727" height="0.727" fill="#312E81"/>
      <rect x="127.182" y="175.091" width="0.727" height="0.727" fill="#312E81"/>
      <rect x="127.909" y="175.091" width="0.727" height="0.727" fill="#312E81"/>
      <rect x="129.364" y="175.091" width="0.727" height="0.727" fill="#312E81"/>
      <rect x="111.909" y="175.818" width="0.727" height="0.727" fill="#312E81"/>
      <rect x="113.364" y="175.818" width="0.727" height="0.727" fill="#312E81"/>
      <rect x="114.091" y="175.818" width="0.727" height="0.727" fill="#312E81"/>
      <rect x="114.818" y="175.818" width="0.727" height="0.727" fill="#312E81"/>
      <rect x="116.273" y="175.818" width="0.727" height="0.727" fill="#312E81"/>
      <rect x="117.727" y="175.818" width="0.727" height="0.727" fill="#312E81"/>
      <rect x="118.455" y="175.818" width="0.727" height="0.727" fill="#312E81"/>
      <rect x="119.182" y="175.818" width="0.727" height="0.727" fill="#312E81"/>
      <rect x="120.636" y="175.818" width="0.727" height="0.727" fill="#312E81"/>
      <rect x="121.364" y="175.818" width="0.727" height="0.727" fill="#312E81"/>
      <rect x="122.091" y="175.818" width="0.727" height="0.727" fill="#312E81"/>
      <rect x="122.818" y="175.818" width="0.727" height="0.727" fill="#312E81"/>
      <rect x="123.545" y="175.818" width="0.727" height="0.727" fill="#312E81"/>
      <rect x="125.000" y="175.818" width="0.727" height="0.727" fill="#312E81"/>
      <rect x="126.455" y="175.818" width="0.727" height="0.727" fill="#312E81"/>
      <rect x="127.182" y="175.818" width="0.727" height="0.727" fill="#312E81"/>
      <rect x="127.909" y="175.818" width="0.727" height="0.727" fill="#312E81"/>
      <rect x="129.364" y="175.818" width="0.727" height="0.727" fill="#312E81"/>
      <rect x="111.909" y="176.545" width="0.727" height="0.727" fill="#312E81"/>
      <rect x="116.273" y="176.545" width="0.727" height="0.727" fill="#312E81"/>
      <rect x="118.455" y="176.545" width="0.727" height="0.727" fill="#312E81"/>
      <rect x="119.909" y="176.545" width="0.727" height="0.727" fill="#312E81"/>
      <rect x="120.636" y="176.545" width="0.727" height="0.727" fill="#312E81"/>
      <rect x="122.091" y="176.545" width="0.727" height="0.727" fill="#312E81"/>
      <rect x="122.818" y="176.545" width="0.727" height="0.727" fill="#312E81"/>
      <rect x="125.000" y="176.545" width="0.727" height="0.727" fill="#312E81"/>
      <rect x="129.364" y="176.545" width="0.727" height="0.727" fill="#312E81"/>
      <rect x="111.909" y="177.273" width="0.727" height="0.727" fill="#312E81"/>
      <rect x="112.636" y="177.273" width="0.727" height="0.727" fill="#312E81"/>
      <rect x="113.364" y="177.273" width="0.727" height="0.727" fill="#312E81"/>
      <rect x="114.091" y="177.273" width="0.727" height="0.727" fill="#312E81"/>
      <rect x="114.818" y="177.273" width="0.727" height="0.727" fill="#312E81"/>
      <rect x="115.545" y="177.273" width="0.727" height="0.727" fill="#312E81"/>
      <rect x="116.273" y="177.273" width="0.727" height="0.727" fill="#312E81"/>
      <rect x="117.727" y="177.273" width="0.727" height="0.727" fill="#312E81"/>
      <rect x="119.182" y="177.273" width="0.727" height="0.727" fill="#312E81"/>
      <rect x="120.636" y="177.273" width="0.727" height="0.727" fill="#312E81"/>
      <rect x="122.091" y="177.273" width="0.727" height="0.727" fill="#312E81"/>
      <rect x="123.545" y="177.273" width="0.727" height="0.727" fill="#312E81"/>
      <rect x="125.000" y="177.273" width="0.727" height="0.727" fill="#312E81"/>
      <rect x="125.727" y="177.273" width="0.727" height="0.727" fill="#312E81"/>
      <rect x="126.455" y="177.273" width="0.727" height="0.727" fill="#312E81"/>
      <rect x="127.182" y="177.273" width="0.727" height="0.727" fill="#312E81"/>
      <rect x="127.909" y="177.273" width="0.727" height="0.727" fill="#312E81"/>
      <rect x="128.636" y="177.273" width="0.727" height="0.727" fill="#312E81"/>
      <rect x="129.364" y="177.273" width="0.727" height="0.727" fill="#312E81"/>
      <rect x="117.727" y="178.000" width="0.727" height="0.727" fill="#312E81"/>
      <rect x="119.909" y="178.000" width="0.727" height="0.727" fill="#312E81"/>
      <rect x="120.636" y="178.000" width="0.727" height="0.727" fill="#312E81"/>
      <rect x="121.364" y="178.000" width="0.727" height="0.727" fill="#312E81"/>
      <rect x="122.091" y="178.000" width="0.727" height="0.727" fill="#312E81"/>
      <rect x="122.818" y="178.000" width="0.727" height="0.727" fill="#312E81"/>
      <rect x="123.545" y="178.000" width="0.727" height="0.727" fill="#312E81"/>
      <rect x="112.636" y="178.727" width="0.727" height="0.727" fill="#312E81"/>
      <rect x="113.364" y="178.727" width="0.727" height="0.727" fill="#312E81"/>
      <rect x="114.818" y="178.727" width="0.727" height="0.727" fill="#312E81"/>
      <rect x="116.273" y="178.727" width="0.727" height="0.727" fill="#312E81"/>
      <rect x="117.000" y="178.727" width="0.727" height="0.727" fill="#312E81"/>
      <rect x="118.455" y="178.727" width="0.727" height="0.727" fill="#312E81"/>
      <rect x="120.636" y="178.727" width="0.727" height="0.727" fill="#312E81"/>
      <rect x="121.364" y="178.727" width="0.727" height="0.727" fill="#312E81"/>
      <rect x="122.818" y="178.727" width="0.727" height="0.727" fill="#312E81"/>
      <rect x="123.545" y="178.727" width="0.727" height="0.727" fill="#312E81"/>
      <rect x="125.000" y="178.727" width="0.727" height="0.727" fill="#312E81"/>
      <rect x="126.455" y="178.727" width="0.727" height="0.727" fill="#312E81"/>
      <rect x="127.182" y="178.727" width="0.727" height="0.727" fill="#312E81"/>
      <rect x="127.909" y="178.727" width="0.727" height="0.727" fill="#312E81"/>
      <rect x="128.636" y="178.727" width="0.727" height="0.727" fill="#312E81"/>
      <rect x="129.364" y="178.727" width="0.727" height="0.727" fill="#312E81"/>
      <rect x="111.909" y="179.455" width="0.727" height="0.727" fill="#312E81"/>
      <rect x="114.091" y="179.455" width="0.727" height="0.727" fill="#312E81"/>
      <rect x="114.818" y="179.455" width="0.727" height="0.727" fill="#312E81"/>
      <rect x="115.545" y="179.455" width="0.727" height="0.727" fill="#312E81"/>
      <rect x="117.000" y="179.455" width="0.727" height="0.727" fill="#312E81"/>
      <rect x="118.455" y="179.455" width="0.727" height="0.727" fill="#312E81"/>
      <rect x="119.909" y="179.455" width="0.727" height="0.727" fill="#312E81"/>
      <rect x="120.636" y="179.455" width="0.727" height="0.727" fill="#312E81"/>
      <rect x="123.545" y="179.455" width="0.727" height="0.727" fill="#312E81"/>
      <rect x="124.273" y="179.455" width="0.727" height="0.727" fill="#312E81"/>
      <rect x="125.000" y="179.455" width="0.727" height="0.727" fill="#312E81"/>
      <rect x="129.364" y="179.455" width="0.727" height="0.727" fill="#312E81"/>
      <rect x="111.909" y="180.182" width="0.727" height="0.727" fill="#312E81"/>
      <rect x="112.636" y="180.182" width="0.727" height="0.727" fill="#312E81"/>
      <rect x="113.364" y="180.182" width="0.727" height="0.727" fill="#312E81"/>
      <rect x="114.818" y="180.182" width="0.727" height="0.727" fill="#312E81"/>
      <rect x="115.545" y="180.182" width="0.727" height="0.727" fill="#312E81"/>
      <rect x="116.273" y="180.182" width="0.727" height="0.727" fill="#312E81"/>
      <rect x="117.000" y="180.182" width="0.727" height="0.727" fill="#312E81"/>
      <rect x="118.455" y="180.182" width="0.727" height="0.727" fill="#312E81"/>
      <rect x="119.909" y="180.182" width="0.727" height="0.727" fill="#312E81"/>
      <rect x="124.273" y="180.182" width="0.727" height="0.727" fill="#312E81"/>
      <rect x="125.727" y="180.182" width="0.727" height="0.727" fill="#312E81"/>
      <rect x="126.455" y="180.182" width="0.727" height="0.727" fill="#312E81"/>
      <rect x="127.909" y="180.182" width="0.727" height="0.727" fill="#312E81"/>
      <rect x="128.636" y="180.182" width="0.727" height="0.727" fill="#312E81"/>
      <rect x="129.364" y="180.182" width="0.727" height="0.727" fill="#312E81"/>
      <rect x="112.636" y="180.909" width="0.727" height="0.727" fill="#312E81"/>
      <rect x="117.000" y="180.909" width="0.727" height="0.727" fill="#312E81"/>
      <rect x="117.727" y="180.909" width="0.727" height="0.727" fill="#312E81"/>
      <rect x="119.182" y="180.909" width="0.727" height="0.727" fill="#312E81"/>
      <rect x="120.636" y="180.909" width="0.727" height="0.727" fill="#312E81"/>
      <rect x="121.364" y="180.909" width="0.727" height="0.727" fill="#312E81"/>
      <rect x="122.091" y="180.909" width="0.727" height="0.727" fill="#312E81"/>
      <rect x="122.818" y="180.909" width="0.727" height="0.727" fill="#312E81"/>
      <rect x="124.273" y="180.909" width="0.727" height="0.727" fill="#312E81"/>
      <rect x="125.000" y="180.909" width="0.727" height="0.727" fill="#312E81"/>
      <rect x="125.727" y="180.909" width="0.727" height="0.727" fill="#312E81"/>
      <rect x="126.455" y="180.909" width="0.727" height="0.727" fill="#312E81"/>
      <rect x="128.636" y="180.909" width="0.727" height="0.727" fill="#312E81"/>
      <rect x="113.364" y="181.636" width="0.727" height="0.727" fill="#312E81"/>
      <rect x="114.091" y="181.636" width="0.727" height="0.727" fill="#312E81"/>
      <rect x="114.818" y="181.636" width="0.727" height="0.727" fill="#312E81"/>
      <rect x="116.273" y="181.636" width="0.727" height="0.727" fill="#312E81"/>
      <rect x="117.000" y="181.636" width="0.727" height="0.727" fill="#312E81"/>
      <rect x="120.636" y="181.636" width="0.727" height="0.727" fill="#312E81"/>
      <rect x="122.091" y="181.636" width="0.727" height="0.727" fill="#312E81"/>
      <rect x="123.545" y="181.636" width="0.727" height="0.727" fill="#312E81"/>
      <rect x="124.273" y="181.636" width="0.727" height="0.727" fill="#312E81"/>
      <rect x="125.000" y="181.636" width="0.727" height="0.727" fill="#312E81"/>
      <rect x="127.182" y="181.636" width="0.727" height="0.727" fill="#312E81"/>
      <rect x="128.636" y="181.636" width="0.727" height="0.727" fill="#312E81"/>
      <rect x="129.364" y="181.636" width="0.727" height="0.727" fill="#312E81"/>
      <rect x="112.636" y="182.364" width="0.727" height="0.727" fill="#312E81"/>
      <rect x="113.364" y="182.364" width="0.727" height="0.727" fill="#312E81"/>
      <rect x="114.091" y="182.364" width="0.727" height="0.727" fill="#312E81"/>
      <rect x="114.818" y="182.364" width="0.727" height="0.727" fill="#312E81"/>
      <rect x="115.545" y="182.364" width="0.727" height="0.727" fill="#312E81"/>
      <rect x="117.000" y="182.364" width="0.727" height="0.727" fill="#312E81"/>
      <rect x="118.455" y="182.364" width="0.727" height="0.727" fill="#312E81"/>
      <rect x="120.636" y="182.364" width="0.727" height="0.727" fill="#312E81"/>
      <rect x="121.364" y="182.364" width="0.727" height="0.727" fill="#312E81"/>
      <rect x="123.545" y="182.364" width="0.727" height="0.727" fill="#312E81"/>
      <rect x="124.273" y="182.364" width="0.727" height="0.727" fill="#312E81"/>
      <rect x="125.000" y="182.364" width="0.727" height="0.727" fill="#312E81"/>
      <rect x="127.182" y="182.364" width="0.727" height="0.727" fill="#312E81"/>
      <rect x="129.364" y="182.364" width="0.727" height="0.727" fill="#312E81"/>
      <rect x="111.909" y="183.091" width="0.727" height="0.727" fill="#312E81"/>
      <rect x="113.364" y="183.091" width="0.727" height="0.727" fill="#312E81"/>
      <rect x="114.091" y="183.091" width="0.727" height="0.727" fill="#312E81"/>
      <rect x="116.273" y="183.091" width="0.727" height="0.727" fill="#312E81"/>
      <rect x="117.000" y="183.091" width="0.727" height="0.727" fill="#312E81"/>
      <rect x="117.727" y="183.091" width="0.727" height="0.727" fill="#312E81"/>
      <rect x="118.455" y="183.091" width="0.727" height="0.727" fill="#312E81"/>
      <rect x="119.182" y="183.091" width="0.727" height="0.727" fill="#312E81"/>
      <rect x="119.909" y="183.091" width="0.727" height="0.727" fill="#312E81"/>
      <rect x="121.364" y="183.091" width="0.727" height="0.727" fill="#312E81"/>
      <rect x="124.273" y="183.091" width="0.727" height="0.727" fill="#312E81"/>
      <rect x="125.000" y="183.091" width="0.727" height="0.727" fill="#312E81"/>
      <rect x="125.727" y="183.091" width="0.727" height="0.727" fill="#312E81"/>
      <rect x="127.909" y="183.091" width="0.727" height="0.727" fill="#312E81"/>
      <rect x="128.636" y="183.091" width="0.727" height="0.727" fill="#312E81"/>
      <rect x="129.364" y="183.091" width="0.727" height="0.727" fill="#312E81"/>
      <rect x="112.636" y="183.818" width="0.727" height="0.727" fill="#312E81"/>
      <rect x="114.091" y="183.818" width="0.727" height="0.727" fill="#312E81"/>
      <rect x="114.818" y="183.818" width="0.727" height="0.727" fill="#312E81"/>
      <rect x="115.545" y="183.818" width="0.727" height="0.727" fill="#312E81"/>
      <rect x="117.000" y="183.818" width="0.727" height="0.727" fill="#312E81"/>
      <rect x="118.455" y="183.818" width="0.727" height="0.727" fill="#312E81"/>
      <rect x="119.909" y="183.818" width="0.727" height="0.727" fill="#312E81"/>
      <rect x="121.364" y="183.818" width="0.727" height="0.727" fill="#312E81"/>
      <rect x="124.273" y="183.818" width="0.727" height="0.727" fill="#312E81"/>
      <rect x="126.455" y="183.818" width="0.727" height="0.727" fill="#312E81"/>
      <rect x="128.636" y="183.818" width="0.727" height="0.727" fill="#312E81"/>
      <rect x="111.909" y="184.545" width="0.727" height="0.727" fill="#312E81"/>
      <rect x="113.364" y="184.545" width="0.727" height="0.727" fill="#312E81"/>
      <rect x="114.818" y="184.545" width="0.727" height="0.727" fill="#312E81"/>
      <rect x="115.545" y="184.545" width="0.727" height="0.727" fill="#312E81"/>
      <rect x="116.273" y="184.545" width="0.727" height="0.727" fill="#312E81"/>
      <rect x="117.727" y="184.545" width="0.727" height="0.727" fill="#312E81"/>
      <rect x="119.182" y="184.545" width="0.727" height="0.727" fill="#312E81"/>
      <rect x="119.909" y="184.545" width="0.727" height="0.727" fill="#312E81"/>
      <rect x="120.636" y="184.545" width="0.727" height="0.727" fill="#312E81"/>
      <rect x="121.364" y="184.545" width="0.727" height="0.727" fill="#312E81"/>
      <rect x="122.091" y="184.545" width="0.727" height="0.727" fill="#312E81"/>
      <rect x="122.818" y="184.545" width="0.727" height="0.727" fill="#312E81"/>
      <rect x="123.545" y="184.545" width="0.727" height="0.727" fill="#312E81"/>
      <rect x="124.273" y="184.545" width="0.727" height="0.727" fill="#312E81"/>
      <rect x="125.000" y="184.545" width="0.727" height="0.727" fill="#312E81"/>
      <rect x="125.727" y="184.545" width="0.727" height="0.727" fill="#312E81"/>
      <rect x="126.455" y="184.545" width="0.727" height="0.727" fill="#312E81"/>
      <rect x="127.182" y="184.545" width="0.727" height="0.727" fill="#312E81"/>
      <rect x="117.727" y="185.273" width="0.727" height="0.727" fill="#312E81"/>
      <rect x="118.455" y="185.273" width="0.727" height="0.727" fill="#312E81"/>
      <rect x="119.909" y="185.273" width="0.727" height="0.727" fill="#312E81"/>
      <rect x="122.091" y="185.273" width="0.727" height="0.727" fill="#312E81"/>
      <rect x="122.818" y="185.273" width="0.727" height="0.727" fill="#312E81"/>
      <rect x="123.545" y="185.273" width="0.727" height="0.727" fill="#312E81"/>
      <rect x="126.455" y="185.273" width="0.727" height="0.727" fill="#312E81"/>
      <rect x="127.182" y="185.273" width="0.727" height="0.727" fill="#312E81"/>
      <rect x="128.636" y="185.273" width="0.727" height="0.727" fill="#312E81"/>
      <rect x="129.364" y="185.273" width="0.727" height="0.727" fill="#312E81"/>
      <rect x="111.909" y="186.000" width="0.727" height="0.727" fill="#312E81"/>
      <rect x="112.636" y="186.000" width="0.727" height="0.727" fill="#312E81"/>
      <rect x="113.364" y="186.000" width="0.727" height="0.727" fill="#312E81"/>
      <rect x="114.091" y="186.000" width="0.727" height="0.727" fill="#312E81"/>
      <rect x="114.818" y="186.000" width="0.727" height="0.727" fill="#312E81"/>
      <rect x="115.545" y="186.000" width="0.727" height="0.727" fill="#312E81"/>
      <rect x="116.273" y="186.000" width="0.727" height="0.727" fill="#312E81"/>
      <rect x="117.727" y="186.000" width="0.727" height="0.727" fill="#312E81"/>
      <rect x="118.455" y="186.000" width="0.727" height="0.727" fill="#312E81"/>
      <rect x="120.636" y="186.000" width="0.727" height="0.727" fill="#312E81"/>
      <rect x="122.818" y="186.000" width="0.727" height="0.727" fill="#312E81"/>
      <rect x="123.545" y="186.000" width="0.727" height="0.727" fill="#312E81"/>
      <rect x="125.000" y="186.000" width="0.727" height="0.727" fill="#312E81"/>
      <rect x="126.455" y="186.000" width="0.727" height="0.727" fill="#312E81"/>
      <rect x="127.182" y="186.000" width="0.727" height="0.727" fill="#312E81"/>
      <rect x="128.636" y="186.000" width="0.727" height="0.727" fill="#312E81"/>
      <rect x="129.364" y="186.000" width="0.727" height="0.727" fill="#312E81"/>
      <rect x="111.909" y="186.727" width="0.727" height="0.727" fill="#312E81"/>
      <rect x="116.273" y="186.727" width="0.727" height="0.727" fill="#312E81"/>
      <rect x="118.455" y="186.727" width="0.727" height="0.727" fill="#312E81"/>
      <rect x="119.182" y="186.727" width="0.727" height="0.727" fill="#312E81"/>
      <rect x="120.636" y="186.727" width="0.727" height="0.727" fill="#312E81"/>
      <rect x="123.545" y="186.727" width="0.727" height="0.727" fill="#312E81"/>
      <rect x="126.455" y="186.727" width="0.727" height="0.727" fill="#312E81"/>
      <rect x="127.182" y="186.727" width="0.727" height="0.727" fill="#312E81"/>
      <rect x="128.636" y="186.727" width="0.727" height="0.727" fill="#312E81"/>
      <rect x="111.909" y="187.455" width="0.727" height="0.727" fill="#312E81"/>
      <rect x="113.364" y="187.455" width="0.727" height="0.727" fill="#312E81"/>
      <rect x="114.091" y="187.455" width="0.727" height="0.727" fill="#312E81"/>
      <rect x="114.818" y="187.455" width="0.727" height="0.727" fill="#312E81"/>
      <rect x="116.273" y="187.455" width="0.727" height="0.727" fill="#312E81"/>
      <rect x="117.727" y="187.455" width="0.727" height="0.727" fill="#312E81"/>
      <rect x="119.182" y="187.455" width="0.727" height="0.727" fill="#312E81"/>
      <rect x="122.091" y="187.455" width="0.727" height="0.727" fill="#312E81"/>
      <rect x="123.545" y="187.455" width="0.727" height="0.727" fill="#312E81"/>
      <rect x="124.273" y="187.455" width="0.727" height="0.727" fill="#312E81"/>
      <rect x="125.000" y="187.455" width="0.727" height="0.727" fill="#312E81"/>
      <rect x="125.727" y="187.455" width="0.727" height="0.727" fill="#312E81"/>
      <rect x="126.455" y="187.455" width="0.727" height="0.727" fill="#312E81"/>
      <rect x="127.182" y="187.455" width="0.727" height="0.727" fill="#312E81"/>
      <rect x="128.636" y="187.455" width="0.727" height="0.727" fill="#312E81"/>
      <rect x="129.364" y="187.455" width="0.727" height="0.727" fill="#312E81"/>
      <rect x="111.909" y="188.182" width="0.727" height="0.727" fill="#312E81"/>
      <rect x="113.364" y="188.182" width="0.727" height="0.727" fill="#312E81"/>
      <rect x="114.091" y="188.182" width="0.727" height="0.727" fill="#312E81"/>
      <rect x="114.818" y="188.182" width="0.727" height="0.727" fill="#312E81"/>
      <rect x="116.273" y="188.182" width="0.727" height="0.727" fill="#312E81"/>
      <rect x="120.636" y="188.182" width="0.727" height="0.727" fill="#312E81"/>
      <rect x="121.364" y="188.182" width="0.727" height="0.727" fill="#312E81"/>
      <rect x="122.091" y="188.182" width="0.727" height="0.727" fill="#312E81"/>
      <rect x="123.545" y="188.182" width="0.727" height="0.727" fill="#312E81"/>
      <rect x="125.727" y="188.182" width="0.727" height="0.727" fill="#312E81"/>
      <rect x="126.455" y="188.182" width="0.727" height="0.727" fill="#312E81"/>
      <rect x="127.182" y="188.182" width="0.727" height="0.727" fill="#312E81"/>
      <rect x="127.909" y="188.182" width="0.727" height="0.727" fill="#312E81"/>
      <rect x="111.909" y="188.909" width="0.727" height="0.727" fill="#312E81"/>
      <rect x="113.364" y="188.909" width="0.727" height="0.727" fill="#312E81"/>
      <rect x="114.091" y="188.909" width="0.727" height="0.727" fill="#312E81"/>
      <rect x="114.818" y="188.909" width="0.727" height="0.727" fill="#312E81"/>
      <rect x="116.273" y="188.909" width="0.727" height="0.727" fill="#312E81"/>
      <rect x="117.727" y="188.909" width="0.727" height="0.727" fill="#312E81"/>
      <rect x="119.909" y="188.909" width="0.727" height="0.727" fill="#312E81"/>
      <rect x="122.818" y="188.909" width="0.727" height="0.727" fill="#312E81"/>
      <rect x="126.455" y="188.909" width="0.727" height="0.727" fill="#312E81"/>
      <rect x="129.364" y="188.909" width="0.727" height="0.727" fill="#312E81"/>
      <rect x="111.909" y="189.636" width="0.727" height="0.727" fill="#312E81"/>
      <rect x="116.273" y="189.636" width="0.727" height="0.727" fill="#312E81"/>
      <rect x="117.727" y="189.636" width="0.727" height="0.727" fill="#312E81"/>
      <rect x="118.455" y="189.636" width="0.727" height="0.727" fill="#312E81"/>
      <rect x="119.182" y="189.636" width="0.727" height="0.727" fill="#312E81"/>
      <rect x="119.909" y="189.636" width="0.727" height="0.727" fill="#312E81"/>
      <rect x="120.636" y="189.636" width="0.727" height="0.727" fill="#312E81"/>
      <rect x="122.818" y="189.636" width="0.727" height="0.727" fill="#312E81"/>
      <rect x="123.545" y="189.636" width="0.727" height="0.727" fill="#312E81"/>
      <rect x="125.000" y="189.636" width="0.727" height="0.727" fill="#312E81"/>
      <rect x="126.455" y="189.636" width="0.727" height="0.727" fill="#312E81"/>
      <rect x="127.182" y="189.636" width="0.727" height="0.727" fill="#312E81"/>
      <rect x="128.636" y="189.636" width="0.727" height="0.727" fill="#312E81"/>
      <rect x="111.909" y="190.364" width="0.727" height="0.727" fill="#312E81"/>
      <rect x="112.636" y="190.364" width="0.727" height="0.727" fill="#312E81"/>
      <rect x="113.364" y="190.364" width="0.727" height="0.727" fill="#312E81"/>
      <rect x="114.091" y="190.364" width="0.727" height="0.727" fill="#312E81"/>
      <rect x="114.818" y="190.364" width="0.727" height="0.727" fill="#312E81"/>
      <rect x="115.545" y="190.364" width="0.727" height="0.727" fill="#312E81"/>
      <rect x="116.273" y="190.364" width="0.727" height="0.727" fill="#312E81"/>
      <rect x="122.818" y="190.364" width="0.727" height="0.727" fill="#312E81"/>
      <rect x="123.545" y="190.364" width="0.727" height="0.727" fill="#312E81"/>
      <rect x="125.000" y="190.364" width="0.727" height="0.727" fill="#312E81"/>
      <rect x="125.727" y="190.364" width="0.727" height="0.727" fill="#312E81"/>
      <rect x="128.636" y="190.364" width="0.727" height="0.727" fill="#312E81"/>
      <rect x="129.364" y="190.364" width="0.727" height="0.727" fill="#312E81"/>
  </g>
  <text x="20" y="179" text-anchor="start" font-family="Inter, 'Helvetica Neue', Arial, sans-serif" font-weight="700" font-size="8.5" letter-spacing="-0.3" fill="#312E81" opacity="1.0">Scan to find your city.</text>
  <text x="20" y="187.5" text-anchor="start" font-family="Inter, 'Helvetica Neue', Arial, sans-serif" font-weight="600" font-size="6" letter-spacing="0.0" fill="#64748B" opacity="1.0">Start your journey →</text>
  <text x="20" y="194" text-anchor="start" font-family="Inter, 'Helvetica Neue', Arial, sans-serif" font-weight="600" font-size="6" letter-spacing="0.0" fill="#64748B" opacity="1.0">indlokal.com · @indlokal</text>
</svg>
